<svg xmlns="http://www.w3.org/2000/svg" xmlns:xlink="http://www.w3.org/1999/xlink" width="2000" zoomAndPan="magnify" viewBox="0 0 1500 374.999991" height="500" preserveAspectRatio="xMidYMid meet" version="1.0"><defs><clipPath id="2649fb26df"><path d="M 11.929688 46.28125 L 294.371094 46.28125 L 294.371094 328.71875 L 11.929688 328.71875 Z M 11.929688 46.28125 " clip-rule="nonzero"/></clipPath><clipPath id="d8a243f14b"><path d="M 46.738281 46.28125 L 259.5625 46.28125 C 278.785156 46.28125 294.371094 61.863281 294.371094 81.089844 L 294.371094 293.910156 C 294.371094 313.136719 278.785156 328.71875 259.5625 328.71875 L 46.738281 328.71875 C 27.515625 328.71875 11.929688 313.136719 11.929688 293.910156 L 11.929688 81.089844 C 11.929688 61.863281 27.515625 46.28125 46.738281 46.28125 Z M 46.738281 46.28125 " clip-rule="nonzero"/></clipPath><clipPath id="4eecec66f3"><path d="M 608.773438 46.28125 L 891.214844 46.28125 L 891.214844 328.71875 L 608.773438 328.71875 Z M 608.773438 46.28125 " clip-rule="nonzero"/></clipPath><clipPath id="fe1cc99144"><path d="M 643.582031 46.28125 L 856.40625 46.28125 C 875.628906 46.28125 891.214844 61.863281 891.214844 81.089844 L 891.214844 293.910156 C 891.214844 313.136719 875.628906 328.71875 856.40625 328.71875 L 643.582031 328.71875 C 624.359375 328.71875 608.773438 313.136719 608.773438 293.910156 L 608.773438 81.089844 C 608.773438 61.863281 624.359375 46.28125 643.582031 46.28125 Z M 643.582031 46.28125 " clip-rule="nonzero"/></clipPath><clipPath id="af8c5351e5"><path d="M 310.347656 46.28125 L 592.785156 46.28125 L 592.785156 328.71875 L 310.347656 328.71875 Z M 310.347656 46.28125 " clip-rule="nonzero"/></clipPath><clipPath id="198bf8b4b3"><path d="M 345.152344 46.28125 L 557.976562 46.28125 C 577.203125 46.28125 592.785156 61.863281 592.785156 81.089844 L 592.785156 293.910156 C 592.785156 313.136719 577.203125 328.71875 557.976562 328.71875 L 345.152344 328.71875 C 325.929688 328.71875 310.347656 313.136719 310.347656 293.910156 L 310.347656 81.089844 C 310.347656 61.863281 325.929688 46.28125 345.152344 46.28125 Z M 345.152344 46.28125 " clip-rule="nonzero"/></clipPath><clipPath id="5cae6b8099"><path d="M 907.203125 46.28125 L 1189.640625 46.28125 L 1189.640625 328.71875 L 907.203125 328.71875 Z M 907.203125 46.28125 " clip-rule="nonzero"/></clipPath><clipPath id="facb4c54aa"><path d="M 942.007812 46.28125 L 1154.832031 46.28125 C 1174.058594 46.28125 1189.640625 61.863281 1189.640625 81.089844 L 1189.640625 293.910156 C 1189.640625 313.136719 1174.058594 328.71875 1154.832031 328.71875 L 942.007812 328.71875 C 922.785156 328.71875 907.203125 313.136719 907.203125 293.910156 L 907.203125 81.089844 C 907.203125 61.863281 922.785156 46.28125 942.007812 46.28125 Z M 942.007812 46.28125 " clip-rule="nonzero"/></clipPath><clipPath id="e0e928faad"><path d="M 1205.628906 46.28125 L 1488.070312 46.28125 L 1488.070312 328.71875 L 1205.628906 328.71875 Z M 1205.628906 46.28125 " clip-rule="nonzero"/></clipPath><clipPath id="6a94e17213"><path d="M 1240.4375 46.28125 L 1453.261719 46.28125 C 1472.484375 46.28125 1488.070312 61.863281 1488.070312 81.089844 L 1488.070312 293.910156 C 1488.070312 313.136719 1472.484375 328.71875 1453.261719 328.71875 L 1240.4375 328.71875 C 1221.214844 328.71875 1205.628906 313.136719 1205.628906 293.910156 L 1205.628906 81.089844 C 1205.628906 61.863281 1221.214844 46.28125 1240.4375 46.28125 Z M 1240.4375 46.28125 " clip-rule="nonzero"/></clipPath><clipPath id="b8a9878815"><path d="M 27.113281 67.367188 L 279.574219 67.367188 L 279.574219 307.632812 L 27.113281 307.632812 Z M 27.113281 67.367188 " clip-rule="nonzero"/></clipPath><clipPath id="4cb1a4a8fb"><path d="M 153.152344 67.367188 L 182.90625 159.140625 L 279.191406 159.140625 L 201.292969 215.859375 L 231.046875 307.632812 L 153.152344 250.914062 L 75.253906 307.632812 L 105.007812 215.859375 L 27.113281 159.140625 L 123.398438 159.140625 Z M 153.152344 67.367188 " clip-rule="nonzero"/></clipPath><clipPath id="7d5a5658a6"><path d="M 325.527344 67.367188 L 577.988281 67.367188 L 577.988281 307.632812 L 325.527344 307.632812 Z M 325.527344 67.367188 " clip-rule="nonzero"/></clipPath><clipPath id="98f341a5c1"><path d="M 451.566406 67.367188 L 481.320312 159.140625 L 577.605469 159.140625 L 499.707031 215.859375 L 529.460938 307.632812 L 451.566406 250.914062 L 373.667969 307.632812 L 403.421875 215.859375 L 325.527344 159.140625 L 421.8125 159.140625 Z M 451.566406 67.367188 " clip-rule="nonzero"/></clipPath><clipPath id="f990be2aaf"><path d="M 624.035156 67.367188 L 876.496094 67.367188 L 876.496094 307.632812 L 624.035156 307.632812 Z M 624.035156 67.367188 " clip-rule="nonzero"/></clipPath><clipPath id="5fd08be3e5"><path d="M 750.074219 67.367188 L 779.828125 159.140625 L 876.113281 159.140625 L 798.214844 215.859375 L 827.96875 307.632812 L 750.074219 250.914062 L 672.175781 307.632812 L 701.929688 215.859375 L 624.035156 159.140625 L 720.320312 159.140625 Z M 750.074219 67.367188 " clip-rule="nonzero"/></clipPath><clipPath id="fd29e9def3"><path d="M 922.382812 67.367188 L 1174.84375 67.367188 L 1174.84375 307.632812 L 922.382812 307.632812 Z M 922.382812 67.367188 " clip-rule="nonzero"/></clipPath><clipPath id="5a91eb2b25"><path d="M 1048.421875 67.367188 L 1078.175781 159.140625 L 1174.460938 159.140625 L 1096.5625 215.859375 L 1126.316406 307.632812 L 1048.421875 250.914062 L 970.523438 307.632812 L 1000.277344 215.859375 L 922.382812 159.140625 L 1018.667969 159.140625 Z M 1048.421875 67.367188 " clip-rule="nonzero"/></clipPath><clipPath id="0b455bfef4"><path d="M 1220.808594 67.367188 L 1473 67.367188 L 1473 307.632812 L 1220.808594 307.632812 Z M 1220.808594 67.367188 " clip-rule="nonzero"/></clipPath><clipPath id="0dc7aaca5d"><path d="M 1346.847656 67.367188 L 1376.601562 159.140625 L 1472.886719 159.140625 L 1394.992188 215.859375 L 1424.746094 307.632812 L 1346.847656 250.914062 L 1268.953125 307.632812 L 1298.707031 215.859375 L 1220.808594 159.140625 L 1317.09375 159.140625 Z M 1346.847656 67.367188 " clip-rule="nonzero"/></clipPath></defs><g clip-path="url(#2649fb26df)"><g clip-path="url(#d8a243f14b)"><path fill="#7ed957" d="M 11.929688 46.28125 L 294.371094 46.28125 L 294.371094 328.71875 L 11.929688 328.71875 Z M 11.929688 46.28125 " fill-opacity="1" fill-rule="nonzero"/></g></g><g clip-path="url(#4eecec66f3)"><g clip-path="url(#fe1cc99144)"><path fill="#7ed957" d="M 608.773438 46.28125 L 891.214844 46.28125 L 891.214844 328.71875 L 608.773438 328.71875 Z M 608.773438 46.28125 " fill-opacity="1" fill-rule="nonzero"/></g></g><g clip-path="url(#af8c5351e5)"><g clip-path="url(#198bf8b4b3)"><path fill="#7ed957" d="M 310.347656 46.28125 L 592.785156 46.28125 L 592.785156 328.71875 L 310.347656 328.71875 Z M 310.347656 46.28125 " fill-opacity="1" fill-rule="nonzero"/></g></g><g clip-path="url(#5cae6b8099)"><g clip-path="url(#facb4c54aa)"><path fill="#7ed957" d="M 907.203125 46.28125 L 1189.640625 46.28125 L 1189.640625 328.71875 L 907.203125 328.71875 Z M 907.203125 46.28125 " fill-opacity="1" fill-rule="nonzero"/></g></g><g clip-path="url(#e0e928faad)"><g clip-path="url(#6a94e17213)"><path fill="#7ed957" d="M 1205.628906 46.28125 L 1488.070312 46.28125 L 1488.070312 328.71875 L 1205.628906 328.71875 Z M 1205.628906 46.28125 " fill-opacity="1" fill-rule="nonzero"/></g></g><g clip-path="url(#b8a9878815)"><g clip-path="url(#4cb1a4a8fb)"><path fill="#ffffff" d="M 27.113281 67.367188 L 279.574219 67.367188 L 279.574219 307.632812 L 27.113281 307.632812 Z M 27.113281 67.367188 " fill-opacity="1" fill-rule="nonzero"/></g></g><g clip-path="url(#7d5a5658a6)"><g clip-path="url(#98f341a5c1)"><path fill="#ffffff" d="M 325.527344 67.367188 L 577.988281 67.367188 L 577.988281 307.632812 L 325.527344 307.632812 Z M 325.527344 67.367188 " fill-opacity="1" fill-rule="nonzero"/></g></g><g clip-path="url(#f990be2aaf)"><g clip-path="url(#5fd08be3e5)"><path fill="#ffffff" d="M 624.035156 67.367188 L 876.496094 67.367188 L 876.496094 307.632812 L 624.035156 307.632812 Z M 624.035156 67.367188 " fill-opacity="1" fill-rule="nonzero"/></g></g><g clip-path="url(#fd29e9def3)"><g clip-path="url(#5a91eb2b25)"><path fill="#ffffff" d="M 922.382812 67.367188 L 1174.84375 67.367188 L 1174.84375 307.632812 L 922.382812 307.632812 Z M 922.382812 67.367188 " fill-opacity="1" fill-rule="nonzero"/></g></g><g clip-path="url(#0b455bfef4)"><g clip-path="url(#0dc7aaca5d)"><path fill="#ffffff" d="M 1220.808594 67.367188 L 1473.273438 67.367188 L 1473.273438 307.632812 L 1220.808594 307.632812 Z M 1220.808594 67.367188 " fill-opacity="1" fill-rule="nonzero"/></g></g></svg>