<svg xmlns="http://www.w3.org/2000/svg" fill="none" viewBox="0 0 42 31" height="31" width="42">
<path fill="#3D7E8F" d="M0.581296 6.38752C-0.0256982 7.59476 0.621762 9.05829 1.91668 9.42923L12.9302 12.5789C13.8677 12.8486 14.8726 12.4507 15.3717 11.6144L21.0033 2.23973L4.49303 0.17595C4.04116 0.121995 3.59603 0.358048 3.3937 0.76271L0.581296 6.38752ZM21.0033 2.23973L26.6281 11.6144C27.1272 12.4507 28.1321 12.8486 29.0695 12.5789L40.0831 9.42923C41.3848 9.05829 42.0255 7.59476 41.4185 6.38752L38.6128 0.76271C38.4105 0.351303 37.9654 0.11525 37.5135 0.17595L21.0033 2.23973ZM35.0316 13.1184V23.4508L22.6219 26.5532V10.333C22.6219 9.43598 21.9003 8.71433 21.0033 8.71433C20.1063 8.71433 19.3846 9.43598 19.3846 10.333V26.5532L6.97496 23.4508V13.1184L3.73766 12.1944V23.4575C3.73766 24.9413 4.74932 26.2362 6.19262 26.6004L19.9579 30.04C20.6458 30.2087 21.3675 30.2087 22.0486 30.04L35.8139 26.6004C37.2572 26.243 38.2689 24.948 38.2689 23.4575V12.1944L35.0316 13.1184Z"></path>
</svg>
