<svg xmlns="http://www.w3.org/2000/svg" xmlns:xlink="http://www.w3.org/1999/xlink" width="1080" zoomAndPan="magnify" viewBox="0 0 810 809.999993" height="1080" preserveAspectRatio="xMidYMid meet" version="1.0"><defs><g/><clipPath id="3c05ef8042"><path d="M 423 286 L 513.96875 286 L 513.96875 439 L 423 439 Z M 423 286 " clip-rule="nonzero"/></clipPath><clipPath id="8268dc2907"><path d="M 296.347656 266 L 385 266 L 385 401 L 296.347656 401 Z M 296.347656 266 " clip-rule="nonzero"/></clipPath></defs><g fill="#000000" fill-opacity="1"><g transform="translate(116.948924, 521.610781)"><g><path d="M -50.578125 1.015625 C -58.066406 2.066406 -65.097656 1.90625 -71.671875 0.53125 C -78.242188 -0.84375 -84.148438 -3.222656 -89.390625 -6.609375 C -94.640625 -9.992188 -98.914062 -14.191406 -102.21875 -19.203125 C -105.53125 -24.210938 -107.617188 -29.800781 -108.484375 -35.96875 C -109.335938 -42.070312 -109.644531 -47.421875 -109.40625 -52.015625 C -109.175781 -56.617188 -108.671875 -60.9375 -107.890625 -64.96875 L -94.578125 -66.828125 L -94.4375 -65.828125 C -94.4375 -65.828125 -94.957031 -65.484375 -96 -64.796875 C -97.050781 -64.109375 -98.316406 -63.019531 -99.796875 -61.53125 C -101.285156 -60.039062 -102.707031 -58.132812 -104.0625 -55.8125 C -105.425781 -53.5 -106.453125 -50.703125 -107.140625 -47.421875 C -107.828125 -44.140625 -107.875 -40.378906 -107.28125 -36.140625 C -106.5625 -30.960938 -104.640625 -26.394531 -101.515625 -22.4375 C -98.390625 -18.488281 -94.332031 -15.257812 -89.34375 -12.75 C -84.351562 -10.238281 -78.671875 -8.550781 -72.296875 -7.6875 C -65.929688 -6.832031 -59.109375 -6.914062 -51.828125 -7.9375 C -44.597656 -8.957031 -38.03125 -10.828125 -32.125 -13.546875 C -26.21875 -16.265625 -21.222656 -19.566406 -17.140625 -23.453125 C -13.054688 -27.335938 -10.050781 -31.59375 -8.125 -36.21875 C -6.207031 -40.851562 -5.582031 -45.554688 -6.25 -50.328125 C -6.863281 -54.703125 -8.1875 -58.347656 -10.21875 -61.265625 C -12.257812 -64.191406 -14.515625 -66.53125 -16.984375 -68.28125 C -19.460938 -70.039062 -21.796875 -71.253906 -23.984375 -71.921875 C -26.179688 -72.597656 -27.707031 -72.875 -28.5625 -72.75 L -42.578125 -70.78125 C -46.492188 -70.226562 -49.484375 -69.113281 -51.546875 -67.4375 C -53.617188 -65.769531 -55.023438 -63.734375 -55.765625 -61.328125 C -56.503906 -58.929688 -56.820312 -56.300781 -56.71875 -53.4375 C -56.625 -50.570312 -56.335938 -47.664062 -55.859375 -44.71875 C -55.390625 -41.78125 -54.96875 -38.988281 -54.59375 -36.34375 C -54.257812 -33.957031 -54.101562 -31.765625 -54.125 -29.765625 C -54.144531 -27.773438 -54.570312 -26.128906 -55.40625 -24.828125 C -56.238281 -23.523438 -57.613281 -22.738281 -59.53125 -22.46875 C -62.394531 -22.070312 -64.851562 -22.59375 -66.90625 -24.03125 C -68.957031 -25.46875 -70.613281 -27.296875 -71.875 -29.515625 C -73.132812 -31.734375 -73.90625 -33.84375 -74.1875 -35.84375 C -74.707031 -39.550781 -74.734375 -42.972656 -74.265625 -46.109375 C -73.796875 -49.242188 -73.132812 -52.238281 -72.28125 -55.09375 C -71.425781 -57.957031 -70.742188 -60.84375 -70.234375 -63.75 C -69.734375 -66.664062 -69.707031 -69.710938 -70.15625 -72.890625 C -70.476562 -75.210938 -70.960938 -76.851562 -71.609375 -77.8125 C -72.253906 -78.769531 -72.835938 -79.328125 -73.359375 -79.484375 C -73.890625 -79.648438 -74.15625 -79.734375 -74.15625 -79.734375 C -72.1875 -80.554688 -70.410156 -80.640625 -68.828125 -79.984375 C -67.242188 -79.328125 -65.945312 -78.191406 -64.9375 -76.578125 C -63.9375 -74.960938 -63.289062 -73.125 -63 -71.0625 C -62.582031 -68.082031 -62.640625 -64.960938 -63.171875 -61.703125 C -63.703125 -58.453125 -64.378906 -55.210938 -65.203125 -51.984375 C -66.035156 -48.765625 -66.726562 -45.660156 -67.28125 -42.671875 C -67.84375 -39.691406 -67.953125 -36.972656 -67.609375 -34.515625 C -67.179688 -31.472656 -66.25 -28.816406 -64.8125 -26.546875 C -63.382812 -24.273438 -61.515625 -23.304688 -59.203125 -23.640625 C -57.546875 -23.867188 -56.429688 -24.710938 -55.859375 -26.171875 C -55.285156 -27.640625 -55.082031 -29.5625 -55.25 -31.9375 C -55.414062 -34.3125 -55.738281 -36.96875 -56.21875 -39.90625 C -56.695312 -42.851562 -57.15625 -45.882812 -57.59375 -49 C -58.070312 -52.382812 -58.359375 -55.757812 -58.453125 -59.125 C -58.546875 -62.488281 -58.179688 -65.59375 -57.359375 -68.4375 C -56.546875 -71.289062 -55.070312 -73.679688 -52.9375 -75.609375 C -50.8125 -77.535156 -47.757812 -78.773438 -43.78125 -79.328125 L -29.46875 -81.34375 C -22.707031 -78.445312 -17.195312 -74.351562 -12.9375 -69.0625 C -8.675781 -63.78125 -6.046875 -57.59375 -5.046875 -50.5 C -4.179688 -44.332031 -4.644531 -38.382812 -6.4375 -32.65625 C -8.238281 -26.925781 -11.195312 -21.710938 -15.3125 -17.015625 C -19.425781 -12.316406 -24.472656 -8.394531 -30.453125 -5.25 C -36.441406 -2.113281 -43.148438 -0.0234375 -50.578125 1.015625 Z M -50.578125 1.015625 "/></g></g></g><g fill="#000000" fill-opacity="1"><g transform="translate(104.8968, 417.697258)"><g><path d="M 0.609375 -2.953125 L -0.375 -3.15625 C 0.195312 -5.96875 -0.234375 -8.1875 -1.671875 -9.8125 C -3.109375 -11.445312 -5.726562 -12.820312 -9.53125 -13.9375 C -13.332031 -15.0625 -18.453125 -16.285156 -24.890625 -17.609375 L -68.546875 -26.5625 C -75.046875 -27.894531 -80.25 -28.789062 -84.15625 -29.25 C -88.0625 -29.707031 -91 -29.472656 -92.96875 -28.546875 C -94.9375 -27.617188 -96.207031 -25.75 -96.78125 -22.9375 L -97.765625 -23.125 L -95.34375 -34.921875 C -94.601562 -38.535156 -94.09375 -41.863281 -93.8125 -44.90625 C -93.53125 -47.957031 -93.238281 -51.039062 -92.9375 -54.15625 C -92.644531 -57.28125 -92.109375 -60.742188 -91.328125 -64.546875 C -89.878906 -71.566406 -87.457031 -77.257812 -84.0625 -81.625 C -80.675781 -85.988281 -76.660156 -89.007812 -72.015625 -90.6875 C -67.367188 -92.363281 -62.359375 -92.648438 -56.984375 -91.546875 C -52.523438 -90.640625 -48.566406 -88.613281 -45.109375 -85.46875 C -41.648438 -82.320312 -39.148438 -78.40625 -37.609375 -73.71875 C -36.078125 -69.039062 -35.894531 -63.847656 -37.0625 -58.140625 C -37.53125 -55.847656 -38.28125 -53.78125 -39.3125 -51.9375 C -40.34375 -50.101562 -41.445312 -48.46875 -42.625 -47.03125 C -43.800781 -45.59375 -44.835938 -44.28125 -45.734375 -43.09375 C -46.628906 -41.914062 -47.1875 -40.804688 -47.40625 -39.765625 C -47.519531 -39.171875 -47.5 -38.515625 -47.34375 -37.796875 C -47.1875 -37.078125 -46.546875 -36.601562 -45.421875 -36.375 C -44.179688 -36.125 -42.921875 -36.617188 -41.640625 -37.859375 C -40.359375 -39.109375 -38.992188 -40.773438 -37.546875 -42.859375 C -36.097656 -44.941406 -34.507812 -47.175781 -32.78125 -49.5625 C -31.050781 -51.957031 -29.085938 -54.191406 -26.890625 -56.265625 C -24.691406 -58.335938 -22.1875 -59.90625 -19.375 -60.96875 C -15.945312 -62.3125 -12.296875 -63.679688 -8.421875 -65.078125 C -4.554688 -66.484375 -0.878906 -68.035156 2.609375 -69.734375 C 6.109375 -71.441406 9.070312 -73.378906 11.5 -75.546875 C 13.925781 -77.710938 15.425781 -80.210938 16 -83.046875 L 16.984375 -82.84375 L 13.90625 -67.78125 C 13.675781 -66.664062 12.988281 -65.660156 11.84375 -64.765625 C 10.707031 -63.867188 8.875 -62.859375 6.34375 -61.734375 C 3.820312 -60.617188 0.410156 -59.21875 -3.890625 -57.53125 C -8.191406 -55.84375 -13.660156 -53.664062 -20.296875 -51 C -24.378906 -49.394531 -27.710938 -47.625 -30.296875 -45.6875 C -32.878906 -43.75 -35.007812 -41.945312 -36.6875 -40.28125 C -38.363281 -38.613281 -39.894531 -37.304688 -41.28125 -36.359375 C -42.675781 -35.410156 -44.191406 -35.101562 -45.828125 -35.4375 C -47.015625 -35.675781 -47.796875 -36.210938 -48.171875 -37.046875 C -48.554688 -37.878906 -48.660156 -38.71875 -48.484375 -39.5625 C -48.179688 -41.007812 -47.609375 -42.363281 -46.765625 -43.625 C -45.921875 -44.894531 -44.972656 -46.1875 -43.921875 -47.5 C -42.867188 -48.820312 -41.878906 -50.3125 -40.953125 -51.96875 C -40.023438 -53.625 -39.328125 -55.597656 -38.859375 -57.890625 C -38.222656 -60.972656 -38.335938 -63.898438 -39.203125 -66.671875 C -40.078125 -69.441406 -41.460938 -71.945312 -43.359375 -74.1875 C -45.265625 -76.4375 -47.546875 -78.328125 -50.203125 -79.859375 C -52.859375 -81.390625 -55.660156 -82.457031 -58.609375 -83.0625 C -64.054688 -84.175781 -69 -83.921875 -73.4375 -82.296875 C -77.875 -80.679688 -81.613281 -77.863281 -84.65625 -73.84375 C -87.695312 -69.820312 -89.84375 -64.765625 -91.09375 -58.671875 C -91.832031 -55.054688 -92.226562 -51.851562 -92.28125 -49.0625 C -92.34375 -46.28125 -92.128906 -43.265625 -91.640625 -40.015625 L -23.1875 -25.96875 C -16.75 -24.644531 -11.5625 -23.753906 -7.625 -23.296875 C -3.6875 -22.835938 -0.734375 -23.066406 1.234375 -23.984375 C 3.203125 -24.910156 4.472656 -26.789062 5.046875 -29.625 L 6.03125 -29.421875 Z M 0.609375 -2.953125 "/></g></g></g><g fill="#000000" fill-opacity="1"><g transform="translate(127.802233, 320.088553)"><g><path d="M -84.671875 -52.203125 L -85.53125 -52.703125 L -49.65625 -115.03125 L -37.90625 -108.265625 L -38.421875 -107.390625 L -38.78125 -107.59375 C -41.675781 -109.257812 -45.726562 -107.941406 -50.9375 -103.640625 C -56.15625 -99.347656 -61.65625 -92.1875 -67.4375 -82.15625 L -75.75 -67.703125 L -38.3125 -46.15625 C -38.820312 -48.226562 -38.929688 -50.320312 -38.640625 -52.4375 C -38.359375 -54.550781 -37.65625 -56.585938 -36.53125 -58.546875 C -35.289062 -60.703125 -33.882812 -62.503906 -32.3125 -63.953125 C -30.738281 -65.410156 -29.144531 -66.734375 -27.53125 -67.921875 C -25.914062 -69.117188 -24.363281 -70.367188 -22.875 -71.671875 C -21.382812 -72.984375 -20.085938 -74.597656 -18.984375 -76.515625 C -18.023438 -78.191406 -17.617188 -79.941406 -17.765625 -81.765625 C -17.910156 -83.597656 -18.738281 -84.945312 -20.25 -85.8125 L -19.75 -86.6875 C -17.195312 -85.21875 -15.539062 -82.925781 -14.78125 -79.8125 C -14.019531 -76.707031 -14.625 -73.445312 -16.59375 -70.03125 C -18.125 -67.351562 -19.832031 -65.242188 -21.71875 -63.703125 C -23.613281 -62.171875 -25.503906 -60.90625 -27.390625 -59.90625 C -29.273438 -58.90625 -31.019531 -57.921875 -32.625 -56.953125 C -34.226562 -55.984375 -35.507812 -54.734375 -36.46875 -53.203125 C -37.257812 -51.960938 -37.664062 -50.648438 -37.6875 -49.265625 C -37.707031 -47.890625 -37.453125 -46.585938 -36.921875 -45.359375 L 9.5625 -18.609375 L 15.96875 -29.734375 C 16.769531 -31.140625 17.765625 -32.984375 18.953125 -35.265625 C 20.148438 -37.554688 21.351562 -40.085938 22.5625 -42.859375 C 23.78125 -45.640625 24.828125 -48.492188 25.703125 -51.421875 C 26.585938 -54.347656 27.160156 -57.179688 27.421875 -59.921875 C 27.691406 -62.671875 27.457031 -65.125 26.71875 -67.28125 C 25.988281 -69.445312 24.582031 -71.128906 22.5 -72.328125 L 23.015625 -73.203125 L 37.375 -64.9375 L 1.5 -2.609375 L 0.640625 -3.109375 C 2.078125 -5.597656 2.363281 -7.84375 1.5 -9.84375 C 0.644531 -11.851562 -1.410156 -13.988281 -4.671875 -16.25 C -7.929688 -18.507812 -12.40625 -21.273438 -18.09375 -24.546875 L -56.734375 -46.78125 C -62.484375 -50.09375 -67.132812 -52.578125 -70.6875 -54.234375 C -74.25 -55.898438 -77.109375 -56.597656 -79.265625 -56.328125 C -81.429688 -56.066406 -83.234375 -54.691406 -84.671875 -52.203125 Z M -84.671875 -52.203125 "/></g></g></g><g fill="#000000" fill-opacity="1"><g transform="translate(175.016079, 242.115767)"><g><path d="M -65.046875 -75.25 L -65.734375 -75.984375 L -12.78125 -124.625 L -3.59375 -114.640625 L -4.34375 -113.953125 L -4.625 -114.25 C -6.882812 -116.71875 -11.144531 -116.6875 -17.40625 -114.15625 C -23.675781 -111.632812 -31.078125 -106.457031 -39.609375 -98.625 L -51.890625 -87.34375 L -22.671875 -55.546875 C -22.535156 -57.671875 -22.007812 -59.695312 -21.09375 -61.625 C -20.1875 -63.550781 -18.894531 -65.285156 -17.21875 -66.828125 C -15.394531 -68.503906 -13.515625 -69.796875 -11.578125 -70.703125 C -9.648438 -71.617188 -7.734375 -72.40625 -5.828125 -73.0625 C -3.929688 -73.71875 -2.078125 -74.441406 -0.265625 -75.234375 C 1.546875 -76.035156 3.265625 -77.1875 4.890625 -78.6875 C 6.316406 -79.988281 7.226562 -81.53125 7.625 -83.3125 C 8.03125 -85.101562 7.644531 -86.640625 6.46875 -87.921875 L 7.21875 -88.609375 C 9.21875 -86.441406 10.113281 -83.765625 9.90625 -80.578125 C 9.695312 -77.390625 8.140625 -74.457031 5.234375 -71.78125 C 2.960938 -69.695312 0.695312 -68.203125 -1.5625 -67.296875 C -3.820312 -66.398438 -6.003906 -65.753906 -8.109375 -65.359375 C -10.210938 -64.972656 -12.175781 -64.554688 -14 -64.109375 C -15.820312 -63.671875 -17.414062 -62.867188 -18.78125 -61.703125 C -19.914062 -60.753906 -20.695312 -59.625 -21.125 -58.3125 C -21.5625 -57.007812 -21.71875 -55.691406 -21.59375 -54.359375 L 14.703125 -14.875 L 24.171875 -23.5625 C 25.359375 -24.65625 26.863281 -26.113281 28.6875 -27.9375 C 30.507812 -29.757812 32.414062 -31.8125 34.40625 -34.09375 C 36.40625 -36.375 38.265625 -38.78125 39.984375 -41.3125 C 41.703125 -43.84375 43.097656 -46.375 44.171875 -48.90625 C 45.253906 -51.445312 45.769531 -53.851562 45.71875 -56.125 C 45.675781 -58.394531 44.84375 -60.414062 43.21875 -62.1875 L 43.96875 -62.875 L 55.171875 -50.6875 L 2.21875 -2.046875 L 1.546875 -2.78125 C 3.660156 -4.71875 4.609375 -6.769531 4.390625 -8.9375 C 4.179688 -11.101562 2.859375 -13.753906 0.421875 -16.890625 C -2.003906 -20.023438 -5.4375 -24.007812 -9.875 -28.84375 L -40.046875 -61.65625 C -44.535156 -66.539062 -48.222656 -70.3125 -51.109375 -72.96875 C -54.003906 -75.632812 -56.519531 -77.164062 -58.65625 -77.5625 C -60.800781 -77.957031 -62.929688 -77.1875 -65.046875 -75.25 Z M -65.046875 -75.25 "/></g></g></g><g fill="#000000" fill-opacity="1"><g transform="translate(242.586766, 181.512897)"><g><path d="M -38.15625 -92.953125 L -22.09375 -100.109375 L 64.203125 -44.6875 L 46.359375 -84.6875 C 42.378906 -93.601562 38.429688 -100.46875 34.515625 -105.28125 C 30.609375 -110.09375 26.910156 -113.242188 23.421875 -114.734375 C 19.929688 -116.222656 16.875 -116.382812 14.25 -115.21875 L 13.84375 -116.140625 L 38.609375 -127.1875 L 39.015625 -126.265625 C 36.390625 -125.085938 34.832031 -123.4375 34.34375 -121.3125 C 33.851562 -119.195312 34.253906 -116.28125 35.546875 -112.5625 C 36.847656 -108.851562 38.847656 -103.972656 41.546875 -97.921875 L 71.90625 -29.859375 L 71 -29.453125 L -26.515625 -91.96875 L -5 -43.71875 C -1.050781 -34.863281 2.882812 -28.007812 6.8125 -23.15625 C 10.738281 -18.3125 14.445312 -15.144531 17.9375 -13.65625 C 21.425781 -12.164062 24.484375 -12.003906 27.109375 -13.171875 L 27.515625 -12.265625 L 2.75 -1.234375 L 2.34375 -2.140625 C 4.96875 -3.304688 6.523438 -4.945312 7.015625 -7.0625 C 7.503906 -9.1875 7.09375 -12.125 5.78125 -15.875 C 4.476562 -19.625 2.488281 -24.492188 -0.1875 -30.484375 L -18.34375 -71.203125 C -21.039062 -77.253906 -23.335938 -82 -25.234375 -85.4375 C -27.140625 -88.882812 -29.046875 -91.132812 -30.953125 -92.1875 C -32.859375 -93.25 -35.125 -93.195312 -37.75 -92.03125 Z M -38.15625 -92.953125 "/></g></g></g><g fill="#000000" fill-opacity="1"><g transform="translate(339.980444, 144.010969)"><g/></g></g><g fill="#000000" fill-opacity="1"><g transform="translate(387.473591, 130.363734)"><g><path d="M 16.421875 -98.0625 L 16.59375 -99.046875 L 49.078125 -93.609375 L 48.90625 -92.625 C 45.40625 -93.207031 42.671875 -93.1875 40.703125 -92.5625 C 38.742188 -91.9375 37.359375 -90.835938 36.546875 -89.265625 C 35.734375 -87.703125 35.34375 -85.800781 35.375 -83.5625 C 35.40625 -81.320312 35.675781 -78.875 36.1875 -76.21875 L 51.125 -1.21875 C 54.90625 -8.050781 58.773438 -14.878906 62.734375 -21.703125 C 66.703125 -28.535156 70.625 -35.398438 74.5 -42.296875 L 68.453125 -72.53125 C 67.191406 -78.382812 65.828125 -82.820312 64.359375 -85.84375 C 62.898438 -88.875 60.65625 -90.644531 57.625 -91.15625 L 57.796875 -92.140625 L 108.109375 -83.71875 L 107.9375 -82.734375 C 104.894531 -83.242188 102.175781 -82.304688 99.78125 -79.921875 C 97.382812 -77.535156 94.664062 -73.773438 91.625 -68.640625 L 81.0625 -50.5625 L 92.3125 5.6875 C 98.375 -5.3125 104.59375 -16.285156 110.96875 -27.234375 C 117.351562 -38.179688 123.445312 -49.210938 129.25 -60.328125 C 130.238281 -62.191406 131.007812 -64.175781 131.5625 -66.28125 C 132.113281 -68.394531 132.210938 -70.414062 131.859375 -72.34375 C 131.503906 -74.28125 130.5 -75.976562 128.84375 -77.4375 C 127.1875 -78.90625 124.609375 -79.9375 121.109375 -80.53125 L 121.28125 -81.515625 L 149.3125 -76.8125 L 149.140625 -75.828125 C 146.109375 -76.335938 143.390625 -75.398438 140.984375 -73.015625 C 138.578125 -70.640625 135.863281 -66.882812 132.84375 -61.75 L 87.125 16.640625 L 86.140625 16.46875 L 74.921875 -39.984375 L 45.921875 9.734375 L 44.9375 9.5625 L 27.25 -79.4375 C 25.988281 -85.289062 24.628906 -89.726562 23.171875 -92.75 C 21.710938 -95.78125 19.460938 -97.550781 16.421875 -98.0625 Z M 84.75 -86.5 C 82.363281 -86.90625 80.535156 -86.671875 79.265625 -85.796875 C 78.003906 -84.921875 77.175781 -83.613281 76.78125 -81.875 C 76.394531 -80.144531 76.289062 -78.179688 76.46875 -75.984375 C 76.644531 -73.785156 76.953125 -71.5625 77.390625 -69.3125 L 80.625 -53.28125 C 81.882812 -55.59375 83.117188 -57.914062 84.328125 -60.25 C 85.535156 -62.59375 86.769531 -64.914062 88.03125 -67.21875 C 88.914062 -68.84375 89.757812 -70.65625 90.5625 -72.65625 C 91.375 -74.65625 91.859375 -76.625 92.015625 -78.5625 C 92.179688 -80.507812 91.734375 -82.195312 90.671875 -83.625 C 89.617188 -85.0625 87.644531 -86.019531 84.75 -86.5 Z M 84.75 -86.5 "/></g></g></g><g fill="#000000" fill-opacity="1"><g transform="translate(529.732032, 164.456896)"><g><path d="M 49.375 -86.34375 L 49.84375 -87.21875 L 73.78125 -74.484375 L 73.3125 -73.609375 C 70.769531 -74.960938 68.515625 -75.175781 66.546875 -74.25 C 64.578125 -73.332031 62.523438 -71.222656 60.390625 -67.921875 C 58.253906 -64.617188 55.625 -60.039062 52.5 -54.1875 L 31.5625 -14.828125 C 28.476562 -9.035156 26.15625 -4.316406 24.59375 -0.671875 C 23.03125 2.972656 22.414062 5.867188 22.75 8.015625 C 23.082031 10.171875 24.519531 11.925781 27.0625 13.28125 L 26.59375 14.15625 L 2.65625 1.421875 L 3.125 0.546875 C 5.664062 1.890625 7.921875 2.097656 9.890625 1.171875 C 11.867188 0.253906 13.929688 -1.867188 16.078125 -5.203125 C 18.234375 -8.535156 20.851562 -13.097656 23.9375 -18.890625 L 44.875 -58.25 C 48 -64.101562 50.332031 -68.835938 51.875 -72.453125 C 53.425781 -76.066406 54.03125 -78.945312 53.6875 -81.09375 C 53.351562 -83.25 51.914062 -85 49.375 -86.34375 Z M 49.375 -86.34375 "/></g></g></g><g fill="#000000" fill-opacity="1"><g transform="translate(573.181622, 185.59402)"><g><path d="M 2.21875 2.046875 L 2.890625 1.3125 C 4.992188 3.257812 7.117188 4.039062 9.265625 3.65625 C 11.410156 3.269531 13.945312 1.738281 16.875 -0.9375 C 19.8125 -3.613281 23.503906 -7.363281 27.953125 -12.1875 L 58.21875 -44.90625 C 62.726562 -49.78125 66.191406 -53.765625 68.609375 -56.859375 C 71.023438 -59.960938 72.335938 -62.597656 72.546875 -64.765625 C 72.765625 -66.929688 71.820312 -68.988281 69.71875 -70.9375 L 70.40625 -71.671875 L 76.296875 -66.21875 C 80.179688 -62.625 83.992188 -59.550781 87.734375 -57 C 91.484375 -54.445312 94.976562 -51.675781 98.21875 -48.6875 C 103.925781 -43.40625 107.914062 -37.800781 110.1875 -31.875 C 112.457031 -25.957031 113.316406 -19.914062 112.765625 -13.75 C 112.222656 -7.59375 110.503906 -1.59375 107.609375 4.25 C 104.710938 10.101562 100.925781 15.554688 96.25 20.609375 C 91.570312 25.671875 86.429688 29.875 80.828125 33.21875 C 75.222656 36.5625 69.367188 38.742188 63.265625 39.765625 C 57.171875 40.785156 51.078125 40.398438 44.984375 38.609375 C 38.898438 36.816406 33.003906 33.28125 27.296875 28 C 24.054688 25.007812 21.019531 21.742188 18.1875 18.203125 C 15.351562 14.660156 11.992188 11.09375 8.109375 7.5 Z M 81.9375 -58 L 16.75 12.484375 C 18.320312 15.117188 20.019531 17.625 21.84375 20 C 23.675781 22.375 25.796875 24.675781 28.203125 26.90625 C 32.765625 31.132812 37.648438 33.832031 42.859375 35 C 48.066406 36.164062 53.40625 36.0625 58.875 34.6875 C 64.34375 33.3125 69.722656 30.894531 75.015625 27.4375 C 80.304688 23.988281 85.269531 19.753906 89.90625 14.734375 C 94.539062 9.734375 98.367188 4.460938 101.390625 -1.078125 C 104.421875 -6.617188 106.40625 -12.164062 107.34375 -17.71875 C 108.289062 -23.28125 107.976562 -28.613281 106.40625 -33.71875 C 104.832031 -38.820312 101.765625 -43.488281 97.203125 -47.71875 C 94.796875 -49.945312 92.347656 -51.890625 89.859375 -53.546875 C 87.378906 -55.203125 84.738281 -56.6875 81.9375 -58 Z M 81.9375 -58 "/></g></g></g><g fill="#000000" fill-opacity="1"><g transform="translate(646.827002, 257.898229)"><g><path d="M 88.71875 -45.015625 L 89.59375 -45.484375 L 124.046875 17.625 L 112.140625 24.125 L 111.65625 23.234375 L 112.015625 23.03125 C 114.941406 21.425781 115.9375 17.28125 115 10.59375 C 114.0625 3.90625 110.816406 -4.519531 105.265625 -14.6875 L 97.28125 -29.328125 L 59.375 -8.625 C 61.40625 -7.976562 63.242188 -6.976562 64.890625 -5.625 C 66.535156 -4.28125 67.90625 -2.613281 69 -0.625 C 70.1875 1.550781 70.988281 3.6875 71.40625 5.78125 C 71.832031 7.882812 72.128906 9.9375 72.296875 11.9375 C 72.472656 13.945312 72.734375 15.925781 73.078125 17.875 C 73.421875 19.820312 74.125 21.765625 75.1875 23.703125 C 76.113281 25.398438 77.394531 26.660156 79.03125 27.484375 C 80.664062 28.316406 82.242188 28.316406 83.765625 27.484375 L 84.25 28.375 C 81.664062 29.78125 78.851562 29.992188 75.8125 29.015625 C 72.769531 28.046875 70.300781 25.832031 68.40625 22.375 C 66.925781 19.664062 66.019531 17.101562 65.6875 14.6875 C 65.363281 12.269531 65.265625 10 65.390625 7.875 C 65.523438 5.75 65.59375 3.742188 65.59375 1.859375 C 65.601562 -0.015625 65.207031 -1.753906 64.40625 -3.359375 C 63.757812 -4.691406 62.851562 -5.722656 61.6875 -6.453125 C 60.53125 -7.191406 59.285156 -7.660156 57.953125 -7.859375 L 10.890625 17.84375 L 17.046875 29.125 C 17.816406 30.539062 18.863281 32.351562 20.1875 34.5625 C 21.519531 36.78125 23.050781 39.128906 24.78125 41.609375 C 26.519531 44.097656 28.410156 46.476562 30.453125 48.75 C 32.492188 51.03125 34.613281 53 36.8125 54.65625 C 39.019531 56.320312 41.234375 57.40625 43.453125 57.90625 C 45.679688 58.40625 47.847656 58.078125 49.953125 56.921875 L 50.4375 57.8125 L 35.90625 65.75 L 1.453125 2.640625 L 2.328125 2.15625 C 3.703125 4.6875 5.460938 6.109375 7.609375 6.421875 C 9.765625 6.734375 12.65625 6.085938 16.28125 4.484375 C 19.914062 2.878906 24.613281 0.507812 30.375 -2.625 L 69.5 -24 C 75.320312 -27.175781 79.867188 -29.847656 83.140625 -32.015625 C 86.421875 -34.191406 88.515625 -36.269531 89.421875 -38.25 C 90.328125 -40.226562 90.09375 -42.484375 88.71875 -45.015625 Z M 88.71875 -45.015625 "/></g></g></g><g fill="#000000" fill-opacity="1"><g transform="translate(689.361731, 338.081277)"><g><path d="M 99.390625 -14.625 L 102.46875 2.6875 L 27.890625 73.078125 L 71.015625 65.390625 C 80.640625 63.679688 88.257812 61.507812 93.875 58.875 C 99.488281 56.238281 103.4375 53.40625 105.71875 50.375 C 108 47.351562 108.882812 44.429688 108.375 41.609375 L 109.359375 41.4375 L 114.109375 68.125 L 113.125 68.296875 C 112.625 65.460938 111.40625 63.550781 109.46875 62.5625 C 107.53125 61.582031 104.601562 61.269531 100.6875 61.625 C 96.769531 61.988281 91.546875 62.753906 85.015625 63.921875 L 11.65625 76.984375 L 11.484375 76 L 95.65625 -3.5625 L 43.640625 5.6875 C 34.097656 7.382812 26.5 9.550781 20.84375 12.1875 C 15.195312 14.832031 11.226562 17.664062 8.9375 20.6875 C 6.65625 23.71875 5.765625 26.648438 6.265625 29.484375 L 5.28125 29.65625 L 0.53125 2.96875 L 1.515625 2.796875 C 2.015625 5.628906 3.234375 7.535156 5.171875 8.515625 C 7.117188 9.492188 10.066406 9.800781 14.015625 9.4375 C 17.960938 9.070312 23.164062 8.316406 29.625 7.171875 L 73.515625 -0.640625 C 80.046875 -1.804688 85.210938 -2.894531 89.015625 -3.90625 C 92.816406 -4.925781 95.457031 -6.226562 96.9375 -7.8125 C 98.414062 -9.40625 98.90625 -11.617188 98.40625 -14.453125 Z M 99.390625 -14.625 "/></g></g></g><g fill="#000000" fill-opacity="1"><g transform="translate(704.661455, 439.427628)"><g><path d="M 74.5 17.703125 C 79.113281 18.421875 83.160156 20.453125 86.640625 23.796875 C 90.117188 27.148438 92.632812 31.660156 94.1875 37.328125 C 95.75 42.992188 95.941406 49.628906 94.765625 57.234375 C 93.816406 63.328125 92.5625 68.535156 91 72.859375 C 89.4375 77.191406 87.695312 81.171875 85.78125 84.796875 L 72.5 82.734375 L 72.65625 81.75 C 72.65625 81.75 73.253906 81.566406 74.453125 81.203125 C 75.660156 80.847656 77.1875 80.171875 79.03125 79.171875 C 80.882812 78.179688 82.796875 76.769531 84.765625 74.9375 C 86.742188 73.113281 88.535156 70.734375 90.140625 67.796875 C 91.753906 64.867188 92.894531 61.285156 93.5625 57.046875 C 94.519531 50.898438 94.238281 45.519531 92.71875 40.90625 C 91.195312 36.300781 88.921875 32.644531 85.890625 29.9375 C 82.859375 27.238281 79.488281 25.597656 75.78125 25.015625 C 72.40625 24.492188 69.390625 24.921875 66.734375 26.296875 C 64.078125 27.679688 61.65625 29.742188 59.46875 32.484375 C 57.28125 35.222656 55.234375 38.34375 53.328125 41.84375 C 51.429688 45.34375 49.515625 48.972656 47.578125 52.734375 C 45.640625 56.492188 43.601562 60.109375 41.46875 63.578125 C 39.34375 67.046875 36.953125 70.113281 34.296875 72.78125 C 31.648438 75.445312 28.648438 77.414062 25.296875 78.6875 C 21.953125 79.957031 18.097656 80.253906 13.734375 79.578125 C 10.296875 79.046875 7.070312 77.664062 4.0625 75.4375 C 1.050781 73.207031 -1.503906 70.265625 -3.609375 66.609375 C -5.710938 62.960938 -7.1875 58.734375 -8.03125 53.921875 C -8.882812 49.117188 -8.863281 43.835938 -7.96875 38.078125 C -7.28125 33.710938 -6 29.644531 -4.125 25.875 C -2.25 22.113281 -0.113281 18.722656 2.28125 15.703125 C 4.675781 12.679688 6.960938 10.085938 9.140625 7.921875 L 22.4375 9.984375 L 22.28125 10.984375 C 22.28125 10.984375 21.40625 11.375 19.65625 12.15625 C 17.90625 12.9375 15.695312 14.148438 13.03125 15.796875 C 10.375 17.453125 7.640625 19.566406 4.828125 22.140625 C 2.023438 24.722656 -0.46875 27.828125 -2.65625 31.453125 C -4.851562 35.078125 -6.316406 39.234375 -7.046875 43.921875 C -7.609375 47.566406 -7.535156 51.050781 -6.828125 54.375 C -6.128906 57.707031 -4.9375 60.707031 -3.25 63.375 C -1.570312 66.039062 0.453125 68.234375 2.828125 69.953125 C 5.203125 71.679688 7.773438 72.765625 10.546875 73.203125 C 14.253906 73.773438 17.585938 73.375 20.546875 72 C 23.503906 70.632812 26.175781 68.578125 28.5625 65.828125 C 30.957031 63.078125 33.210938 59.921875 35.328125 56.359375 C 37.441406 52.796875 39.507812 49.101562 41.53125 45.28125 C 43.550781 41.457031 45.648438 37.769531 47.828125 34.21875 C 50.003906 30.664062 52.367188 27.53125 54.921875 24.8125 C 57.472656 22.09375 60.359375 20.066406 63.578125 18.734375 C 66.804688 17.410156 70.445312 17.066406 74.5 17.703125 Z M 74.5 17.703125 "/></g></g></g><path fill="#000000" d="M 438.507812 438.734375 C 438.359375 440.585938 438.210938 442.4375 438.019531 444.757812 C 442.144531 444.757812 445.316406 442.882812 448.65625 441.523438 C 453.523438 439.574219 458.488281 437.921875 463.550781 436.566406 C 464.324219 436.46875 465.085938 436.542969 465.828125 436.78125 C 466.570312 437.015625 467.230469 437.398438 467.808594 437.925781 C 468.359375 438.457031 467.808594 440.757812 467.148438 441.757812 C 465.648438 444.257812 463.730469 446.386719 461.402344 448.140625 C 456.914062 450.792969 452.246094 453.085938 447.402344 455.011719 C 445.570312 455.757812 443.144531 455.375 439.804688 455.585938 C 443.871094 450.460938 449.230469 452.585938 452.570312 449.734375 C 455.914062 446.886719 460.871094 446.695312 462.253906 441.011719 C 460.738281 440.90625 459.226562 440.949219 457.722656 441.140625 C 455.105469 441.835938 452.527344 442.667969 449.996094 443.628906 C 442.464844 446.5 436.402344 450.800781 434.761719 459.460938 C 433.824219 464.375 432.484375 469.226562 431.613281 474.183594 C 431.445312 475.023438 431.375 475.871094 431.402344 476.730469 C 431.429688 477.585938 431.558594 478.425781 431.78125 479.253906 C 432.003906 480.082031 432.320312 480.871094 432.726562 481.625 C 433.132812 482.378906 433.621094 483.074219 434.1875 483.71875 C 440.210938 480.523438 444.445312 475.675781 448.679688 470.949219 C 449.359375 470.164062 449.699219 468.972656 450.507812 468.441406 C 451.871094 467.710938 453.289062 467.117188 454.761719 466.652344 C 455.253906 467.929688 456.316406 469.3125 456.105469 470.460938 C 455.273438 475.164062 454.847656 480.207031 452.761719 484.355469 C 449.011719 491.109375 444.921875 497.648438 440.484375 503.972656 C 440.335938 504.277344 440.160156 504.5625 439.957031 504.832031 C 439.75 505.101562 439.519531 505.347656 439.269531 505.574219 C 439.015625 505.796875 438.742188 505.996094 438.449219 506.167969 C 438.15625 506.335938 437.851562 506.476562 437.53125 506.589844 C 437.210938 506.699219 436.882812 506.777344 436.546875 506.824219 C 436.210938 506.871094 435.875 506.882812 435.539062 506.863281 C 435.199219 506.84375 434.867188 506.789062 434.539062 506.707031 C 434.210938 506.621094 433.898438 506.503906 433.59375 506.355469 C 437.835938 501.734375 441.835938 496.914062 445.59375 491.886719 C 447.484375 489.367188 448.984375 486.632812 450.09375 483.683594 C 451.199219 480.734375 451.871094 477.6875 452.105469 474.546875 C 450.527344 475.015625 449.144531 474.992188 448.421875 475.675781 C 440.59375 483.183594 432.015625 490.378906 428.933594 501.207031 C 427.039062 508.910156 425.757812 516.710938 425.082031 524.613281 C 424.738281 529.0625 424.65625 533.515625 424.824219 537.976562 L 426.316406 538.335938 C 427.335938 536.636719 428.292969 534.890625 429.359375 533.210938 C 430.683594 530.714844 432.339844 528.460938 434.328125 526.453125 C 436.316406 524.445312 438.554688 522.769531 441.039062 521.421875 C 445.484375 519.292969 448.210938 521.082031 447.613281 525.933594 C 447.226562 530.136719 446.183594 534.171875 444.484375 538.039062 C 440.890625 545.550781 436.613281 552.765625 432.507812 560.019531 C 431.617188 561.371094 430.429688 562.378906 428.953125 563.042969 C 434.933594 551.679688 442.65625 541.167969 444.019531 527.910156 C 440.550781 525.550781 438.039062 527.570312 436.527344 529.421875 C 428.890625 538.613281 423.421875 548.828125 423.378906 561.210938 C 423.378906 563.339844 423.507812 563.339844 427.632812 566.167969 C 422.546875 569.636719 422.824219 574.871094 422.78125 580.148438 C 422.480469 593.574219 423.480469 606.902344 425.78125 620.128906 C 427.039062 626.621094 428.167969 633.40625 434.144531 637.75 C 434.316406 637.875 434.550781 638.046875 434.550781 638.214844 C 434.550781 639.726562 435.1875 641.75 434.550781 642.640625 C 433.144531 644.324219 431.632812 643.132812 430.570312 641.558594 C 428.488281 638.402344 426.78125 635.050781 425.457031 631.511719 C 424.132812 627.96875 423.21875 624.324219 422.71875 620.578125 C 420.71875 606.457031 419.945312 592.273438 420.398438 578.019531 C 420.457031 577.195312 420.453125 576.367188 420.394531 575.542969 C 420.335938 574.714844 420.21875 573.898438 420.042969 573.085938 C 419.867188 572.277344 419.636719 571.484375 419.351562 570.707031 C 419.066406 569.929688 418.726562 569.175781 418.332031 568.445312 C 417.941406 567.71875 417.5 567.019531 417.007812 566.351562 C 416.519531 565.683594 415.984375 565.054688 415.402344 564.460938 C 414.824219 563.871094 414.207031 563.320312 413.550781 562.816406 C 412.894531 562.308594 412.203125 561.855469 411.484375 561.445312 C 408.738281 559.714844 406.179688 557.742188 403.808594 555.527344 C 401.4375 553.3125 399.292969 550.890625 397.382812 548.265625 C 395.472656 545.644531 393.824219 542.863281 392.441406 539.925781 C 391.0625 536.992188 389.96875 533.949219 389.164062 530.804688 C 389.078125 529.453125 389.246094 528.132812 389.675781 526.847656 C 391.03125 527.003906 392.332031 527.371094 393.566406 527.953125 C 402.082031 534.15625 409.441406 541.511719 415.65625 550.019531 C 416.527344 551.070312 417.457031 552.070312 418.441406 553.019531 C 420.867188 551.59375 420.570312 549.847656 420.1875 547.890625 C 418.929688 541.335938 417.589844 534.761719 416.71875 528.144531 C 416.5625 526.746094 416.222656 525.390625 415.699219 524.078125 C 415.175781 522.769531 414.484375 521.554688 413.632812 520.429688 C 412.78125 519.304688 411.796875 518.316406 410.675781 517.457031 C 409.558594 516.601562 408.34375 515.910156 407.035156 515.378906 C 401.417969 512.632812 396.035156 509.441406 390.609375 506.335938 C 384.226562 502.71875 377.949219 498.996094 371.628906 495.292969 C 368.628906 493.527344 368.652344 493.527344 370.054688 489.035156 C 383.355469 494.484375 395.484375 502.101562 408.738281 509.25 C 412.164062 497.355469 407.503906 487.632812 404.652344 477.207031 C 397.972656 478.355469 394.398438 473.480469 389.929688 470.824219 C 382.632812 466.332031 375.695312 461.289062 368.652344 456.332031 C 366.597656 454.867188 364.777344 453.160156 363.183594 451.203125 C 362.824219 450.703125 362.605469 450.148438 362.53125 449.535156 C 362.453125 448.921875 362.53125 448.332031 362.757812 447.757812 C 363.789062 446.789062 364.996094 446.152344 366.375 445.84375 C 367.023438 445.707031 367.617188 445.824219 368.164062 446.203125 C 374.105469 450.078125 380.007812 453.992188 385.867188 457.949219 C 386.292969 458.246094 386.355469 459.078125 386.589844 459.652344 C 380.652344 456.800781 375.949219 451.503906 368.289062 450.671875 C 371.820312 457.820312 385.714844 467.078125 395.953125 469.355469 C 393.824219 464.738281 389.566406 462.820312 386.484375 459.566406 C 388.417969 460.117188 390.308594 460.785156 392.164062 461.566406 C 393.753906 462.457031 395.269531 463.457031 396.71875 464.566406 C 399.484375 462.269531 398.84375 459.609375 398.121094 457.355469 C 395.3125 448.394531 392.207031 439.523438 389.226562 430.691406 C 376.589844 430.203125 366.394531 424.628906 356.585938 418.179688 C 352.734375 415.648438 348.96875 412.96875 345.394531 410.074219 C 344.332031 409.222656 344.054688 407.371094 343.414062 405.988281 C 344.863281 405.457031 346.585938 404.160156 347.671875 404.5625 C 354.523438 407.03125 361.332031 409.710938 368.011719 412.648438 C 373.398438 415.03125 378.78125 417.925781 385.738281 421.414062 C 384.867188 417.820312 384.3125 415.753906 383.886719 413.671875 C 383.035156 409.414062 382.25 405.160156 381.441406 401.03125 C 383.25 405.394531 385.035156 409.753906 387.035156 414.628906 C 390.738281 410.371094 388.886719 403.839844 394.292969 401.371094 C 393.398438 404.796875 392.335938 408.203125 391.609375 411.667969 C 390.886719 415.136719 389.992188 418.925781 392.183594 422.988281 C 393.589844 422.074219 395.101562 421.585938 395.824219 420.542969 C 402.589844 410.839844 408.058594 400.605469 408.824219 388.457031 C 408.953125 386.328125 409.015625 384.199219 405.867188 382.921875 C 404.339844 384.722656 402.921875 386.601562 401.609375 388.5625 C 399.035156 392.816406 396.675781 397.265625 394.226562 401.625 C 394.234375 399.613281 394.546875 397.648438 395.164062 395.734375 C 397.589844 390.882812 400.503906 386.285156 403.121094 381.519531 C 404.101562 379.753906 405.25 377.859375 407.378906 378.921875 C 408.34375 379.398438 409.199219 380.023438 409.941406 380.804688 C 410.683594 381.582031 411.269531 382.46875 411.695312 383.457031 C 412.167969 385.96875 412.019531 388.441406 411.25 390.882812 C 409.902344 396.808594 407.953125 402.535156 405.410156 408.054688 C 402.863281 413.574219 399.773438 418.773438 396.144531 423.648438 C 392.675781 428.246094 391.417969 432.542969 394.015625 437.992188 C 396.144531 442.4375 397.503906 447.226562 399.183594 451.777344 C 400.355469 451.460938 400.992188 451.480469 401.101562 451.246094 C 403.71875 444.863281 407.058594 438.714844 408.570312 432.097656 C 409.421875 428.4375 407.269531 424.054688 406.441406 420.011719 C 406.042969 419.039062 405.597656 418.085938 405.101562 417.160156 C 405.003906 416.96875 404.929688 416.769531 404.875 416.5625 C 404.820312 416.355469 404.785156 416.144531 404.773438 415.929688 C 404.765625 415.71875 404.773438 415.503906 404.808594 415.292969 C 404.839844 415.082031 404.894531 414.875 404.972656 414.675781 C 405.046875 414.476562 405.144531 414.285156 405.257812 414.105469 C 405.375 413.925781 405.507812 413.757812 405.660156 413.605469 C 405.808594 413.453125 405.972656 413.316406 406.152344 413.199219 C 406.332031 413.082031 406.519531 412.984375 406.71875 412.902344 C 408.632812 411.925781 409.71875 412.902344 410.972656 414.371094 C 417.683594 422.882812 424.429688 431.394531 431.207031 439.90625 C 431.867188 440.714844 432.570312 441.460938 433.335938 442.351562 L 438.742188 438.777344 Z M 428.71875 472.929688 C 430.066406 469.269531 430.933594 465.5 431.320312 461.617188 C 431.707031 457.734375 431.597656 453.867188 430.996094 450.011719 L 417.527344 441.925781 C 415.890625 445.609375 414.398438 448.757812 413.039062 451.96875 C 410.910156 456.929688 411.078125 457.628906 415.164062 461.183594 C 419.25 464.738281 423.546875 468.480469 428.71875 472.929688 Z M 385.226562 426.414062 C 379.972656 419.289062 356.671875 408.09375 348.691406 409.074219 C 354.949219 416.457031 363.140625 420.054688 371.035156 423.96875 C 375.140625 425.949219 379.546875 428.394531 385.226562 426.414062 Z M 416.867188 559.210938 C 415.832031 556.53125 414.578125 553.957031 413.101562 551.496094 C 411.621094 549.03125 409.945312 546.710938 408.070312 544.535156 C 406.191406 542.359375 404.144531 540.359375 401.925781 538.539062 C 399.703125 536.714844 397.34375 535.09375 394.84375 533.675781 C 396.800781 546.082031 406.460938 557.59375 416.867188 559.210938 Z M 416.867188 486.035156 C 415.863281 487.800781 415.097656 489.664062 414.578125 491.628906 C 414.058594 493.59375 413.800781 495.589844 413.796875 497.621094 C 413.800781 499.652344 414.058594 501.652344 414.578125 503.613281 C 415.097656 505.578125 415.863281 507.441406 416.867188 509.207031 C 420.335938 505.421875 421.125 500.695312 422.101562 496.078125 C 423.082031 491.460938 420.972656 488.164062 416.804688 486.035156 Z M 424.355469 504.65625 C 416.25 515.699219 415.847656 523.570312 422.421875 532.445312 C 423.039062 522.613281 423.65625 513.632812 424.292969 504.65625 Z M 408.804688 454.503906 C 410.039062 452.097656 411.484375 449.566406 412.65625 446.949219 C 413.398438 445.210938 413.957031 443.417969 414.335938 441.566406 C 415.015625 438.523438 414.738281 435.839844 410.378906 434.308594 C 408.527344 440.117188 406.589844 445.566406 405.078125 451.140625 C 404.484375 453.332031 405.972656 454.609375 408.804688 454.503906 Z M 415.1875 475.78125 C 420.015625 468.503906 418.273438 464.738281 409.207031 462.863281 C 408.441406 468.035156 410.269531 471.949219 415.207031 475.714844 Z M 429.316406 443.863281 C 427.1875 437.757812 422.933594 433.394531 417.78125 429.246094 C 417.78125 436.585938 421.207031 441.054688 429.335938 443.777344 Z M 407.25 473.121094 C 407.269531 475.691406 407.6875 478.199219 408.511719 480.632812 C 409.332031 483.070312 410.515625 485.320312 412.058594 487.375 C 415.121094 481.101562 411.230469 477.078125 407.25 473.121094 Z M 425.953125 477.375 C 425.421875 478.824219 425.199219 480.3125 425.285156 481.851562 C 425.371094 483.390625 425.753906 484.847656 426.441406 486.226562 C 427.316406 483.121094 429.144531 480.015625 425.953125 477.332031 Z M 421.164062 483.121094 C 421.890625 478.867188 421.890625 478.867188 419.675781 476.398438 C 417.589844 478.867188 417.570312 480.992188 421.164062 483.121094 Z M 421.164062 483.121094 " fill-opacity="1" fill-rule="nonzero"/><g clip-path="url(#3c05ef8042)"><path fill="#000000" d="M 438.699219 438.800781 C 438.144531 437.105469 437.828125 435.367188 437.742188 433.585938 C 437.953125 430.859375 438.546875 428.222656 439.527344 425.671875 C 441.421875 420.882812 439.890625 416.246094 439.378906 411.585938 C 439.273438 410.5625 437.996094 409.628906 437.25 408.734375 C 434.242188 405.511719 431.671875 401.96875 429.539062 398.109375 C 427.410156 394.25 425.78125 390.1875 424.65625 385.921875 C 424.570312 385.566406 424.585938 385.214844 424.703125 384.867188 C 424.816406 384.515625 425.015625 384.226562 425.292969 383.988281 C 429.378906 391.199219 431.675781 399.390625 439.742188 404.988281 C 439.167969 392.222656 433.359375 382.433594 428.632812 372.410156 L 427.207031 372.5625 L 424.464844 380.773438 C 422.164062 375.625 423.378906 370.921875 425.101562 366.304688 C 425.398438 365.5625 427.015625 364.539062 427.464844 364.753906 C 428.761719 365.328125 429.726562 366.25 430.359375 367.519531 C 434.273438 378.539062 438.019531 389.625 441.847656 400.667969 C 442.359375 402.265625 443.300781 403.542969 444.679688 404.5 L 453.679688 376.988281 C 451.421875 374.710938 449.421875 372.136719 451.871094 368.476562 C 452.421875 367.625 451.679688 365.753906 451.210938 364.453125 C 448.890625 358.070312 446.1875 352.050781 444.167969 345.6875 C 442.917969 341.546875 442.28125 337.316406 442.257812 332.996094 C 442.230469 328.671875 442.820312 324.433594 444.019531 320.28125 C 444.9375 317.824219 446.03125 315.449219 447.296875 313.152344 C 448.789062 314.589844 450.152344 316.144531 451.378906 317.8125 C 454.097656 322.433594 456.199219 327.320312 457.679688 332.472656 C 459.160156 337.625 459.976562 342.882812 460.125 348.242188 C 460.125 350.730469 460.445312 353.199219 460.679688 356.75 C 462.230469 355.347656 463.296875 354.792969 463.785156 353.898438 C 467.765625 346.558594 471.660156 339.15625 475.53125 331.75 C 475.734375 331.296875 475.898438 330.832031 476.019531 330.351562 C 476.144531 329.871094 476.226562 329.382812 476.269531 328.886719 C 476.308594 328.394531 476.308594 327.898438 476.265625 327.40625 C 476.226562 326.910156 476.140625 326.425781 476.015625 325.945312 C 475.890625 325.464844 475.726562 325 475.523438 324.546875 C 475.320312 324.09375 475.078125 323.660156 474.804688 323.25 C 474.527344 322.839844 474.214844 322.453125 473.875 322.09375 C 473.53125 321.734375 473.164062 321.40625 472.765625 321.109375 C 465.53125 315.386719 460.785156 307.8125 456.167969 300.066406 C 454.933594 297.9375 454.230469 296.214844 456.167969 294.492188 C 456.363281 294.308594 456.574219 294.152344 456.800781 294.011719 C 457.027344 293.875 457.269531 293.765625 457.519531 293.675781 C 457.769531 293.589844 458.027344 293.53125 458.292969 293.496094 C 458.554688 293.464844 458.820312 293.460938 459.085938 293.484375 C 459.351562 293.507812 459.609375 293.558594 459.863281 293.632812 C 460.121094 293.710938 460.363281 293.816406 460.59375 293.945312 C 460.828125 294.074219 461.042969 294.226562 461.246094 294.402344 C 461.445312 294.574219 461.625 294.769531 461.785156 294.980469 C 464.058594 297.105469 466.1875 299.367188 468.167969 301.769531 C 471.125 305.515625 473.828125 309.472656 476.914062 313.75 C 478.019531 312.683594 478.933594 312.132812 479.359375 311.324219 C 483.488281 303.472656 490 298.003906 497.128906 293.066406 C 499.253906 291.535156 501.640625 290.023438 503.808594 288.386719 C 505.425781 287.152344 507.277344 286.003906 508.722656 287.875 C 509.035156 288.59375 509.171875 289.34375 509.128906 290.125 C 509.089844 290.90625 508.875 291.640625 508.492188 292.320312 C 503.746094 300.40625 498.765625 308.386719 493.871094 316.386719 C 493.019531 317.75 492.171875 319.109375 491.042969 320.960938 C 492.625 321.796875 494.25 322.542969 495.914062 323.195312 C 498.703125 324.15625 501.304688 325.484375 503.71875 327.183594 C 506.128906 328.878906 508.261719 330.875 510.109375 333.175781 C 511.417969 334.554688 512.339844 336.160156 512.875 337.984375 C 513.277344 339.878906 513.449219 342.621094 512.382812 343.75 C 511.320312 344.878906 508.617188 344.070312 506.765625 343.558594 C 499.675781 341.601562 493.015625 338.664062 486.785156 334.75 C 483.511719 332.730469 479.234375 333.003906 477.339844 336.027344 C 471.386719 344.875 466.527344 354.285156 462.765625 364.261719 C 464.53125 364.769531 466.324219 365.128906 468.148438 365.347656 C 474.402344 365.496094 480.679688 365.347656 486.957031 365.539062 C 490.09375 365.585938 493.214844 365.832031 496.320312 366.285156 C 497.054688 366.363281 497.765625 366.550781 498.445312 366.847656 C 499.125 367.148438 499.742188 367.539062 500.300781 368.027344 C 500.863281 368.511719 501.335938 369.070312 501.722656 369.703125 C 502.109375 370.335938 502.394531 371.011719 502.574219 371.730469 C 503.574219 375.113281 502.574219 377.902344 498.980469 378.414062 C 495.453125 378.824219 491.949219 378.6875 488.46875 378.007812 C 480.234375 376.644531 472.0625 374.988281 463.871094 373.304688 C 460.699219 372.667969 458.378906 373.605469 457.316406 376.605469 C 454.53125 384.496094 451.890625 392.433594 449.253906 400.371094 C 449.199219 401.089844 449.257812 401.796875 449.421875 402.5 C 453.0625 403.457031 456.253906 401.691406 459.59375 400.988281 C 463.421875 400.160156 467.296875 399.519531 471.191406 399.03125 C 473.082031 398.796875 475.445312 399.222656 475.445312 401.585938 C 475.390625 402.355469 475.183594 403.085938 474.828125 403.769531 C 474.472656 404.457031 474 405.046875 473.402344 405.542969 C 469.945312 408.421875 466.199219 410.855469 462.164062 412.84375 C 458.128906 414.832031 453.917969 416.320312 449.527344 417.308594 C 444.933594 418.179688 443.378906 420.925781 442.402344 424.820312 C 441.230469 429.480469 439.867188 434.097656 438.613281 438.734375 Z M 447.871094 322.34375 C 442.292969 333.347656 447.378906 356.558594 456.378906 362.433594 C 461.148438 350.175781 456.890625 329.238281 447.871094 322.34375 Z M 501.871094 296.578125 L 500.46875 295.703125 C 497.324219 297.222656 494.484375 299.179688 491.941406 301.570312 C 489.402344 303.964844 487.277344 306.683594 485.574219 309.726562 C 483.703125 313.046875 481.914062 316.410156 479.785156 320.21875 C 480.058594 320.742188 480.441406 321.167969 480.933594 321.492188 C 484.148438 323.109375 486.703125 321.644531 488.574219 319.152344 C 492.363281 314.195312 496.128906 309.152344 499.488281 303.898438 C 500.601562 301.5625 501.394531 299.121094 501.871094 296.578125 Z M 508.257812 339.558594 C 506.449219 331.324219 496 324.898438 488.871094 326.792969 C 488 327.027344 486.746094 327.792969 486.59375 328.453125 C 486.53125 329.035156 486.59375 329.601562 486.785156 330.160156 C 486.972656 330.714844 487.273438 331.199219 487.679688 331.621094 C 490.664062 333.898438 493.910156 335.710938 497.414062 337.0625 C 500.914062 338.410156 504.535156 339.242188 508.277344 339.558594 Z M 463.742188 368.921875 C 464.382812 369.945312 464.550781 370.496094 464.785156 370.539062 C 474.019531 372.328125 483.234375 374.179688 492.445312 375.730469 C 494.414062 375.691406 496.316406 375.316406 498.148438 374.605469 C 497.296875 370.347656 494.40625 369.730469 491.871094 369.285156 C 488.160156 368.679688 484.421875 368.375 480.660156 368.371094 C 475.148438 368.371094 469.636719 368.710938 463.742188 368.921875 Z M 447.082031 412.265625 C 454.421875 413.285156 462.53125 409.691406 465.082031 404.265625 C 455.59375 403.988281 448.699219 407.050781 447.082031 412.265625 Z M 473.125 315.640625 C 470.65625 309.640625 467.808594 303.941406 461.507812 301.003906 C 463.679688 307.171875 466.871094 312.601562 473.125 315.640625 Z M 473.125 315.640625 " fill-opacity="1" fill-rule="nonzero"/></g><g clip-path="url(#8268dc2907)"><path fill="#000000" d="M 381.441406 400.988281 L 375.671875 390.859375 C 365.886719 391.117188 356.523438 388.371094 347.332031 384.773438 C 341.863281 382.652344 336.542969 380.203125 331.371094 377.433594 C 328.457031 375.835938 324.988281 374.136719 325.09375 368.921875 C 328.921875 368.691406 332.714844 368.953125 336.472656 369.710938 C 340.230469 370.46875 343.828125 371.695312 347.265625 373.390625 C 354.269531 376.519531 361.269531 379.605469 368.417969 382.753906 C 368.949219 381.855469 369.378906 380.910156 369.703125 379.917969 C 370.023438 378.921875 370.234375 377.90625 370.328125 376.867188 C 370.425781 375.828125 370.402344 374.789062 370.269531 373.753906 C 370.132812 372.71875 369.882812 371.710938 369.523438 370.730469 C 368.546875 367.773438 367.246094 364.902344 366.035156 362.007812 C 365.351562 360.542969 364.410156 359.269531 363.214844 358.1875 C 362.019531 357.101562 360.664062 356.289062 359.140625 355.75 C 350.558594 351.429688 342.367188 346.464844 334.5625 340.855469 C 329.878906 337.363281 325.488281 333.535156 321.394531 329.367188 C 320.519531 328.558594 320.476562 326.898438 320.054688 325.621094 C 321.351562 325.324219 322.820312 324.472656 323.945312 324.8125 C 333.796875 327.792969 343.222656 331.6875 351.140625 338.582031 C 352.585938 339.855469 354.140625 341.027344 355.652344 342.238281 C 356.203125 341.496094 356.460938 341.261719 356.417969 341.199219 C 351.183594 331.6875 345.96875 322.195312 340.671875 312.726562 C 339.308594 310.324219 336.90625 310.367188 334.5625 310.707031 C 325.480469 312.046875 316.414062 313.449219 307.328125 314.75 C 304.863281 315.1875 302.382812 315.351562 299.882812 315.238281 C 299.21875 315.054688 298.621094 314.75 298.085938 314.320312 C 297.546875 313.894531 297.117188 313.375 296.796875 312.769531 C 296.582031 312.410156 297.882812 310.492188 298.796875 310.175781 C 303.675781 308.378906 308.640625 306.867188 313.691406 305.640625 C 317.519531 304.769531 321.5625 304.832031 325.5 304.34375 C 327.097656 304.015625 328.664062 303.582031 330.203125 303.046875 C 323.660156 291.664062 318.851562 279.59375 315.777344 266.832031 C 318.777344 265.023438 320.371094 266.832031 321.710938 268.640625 C 326.246094 274.597656 330.628906 280.746094 335.097656 286.8125 C 336.03125 288.085938 336.882812 289.429688 337.925781 290.9375 C 341.203125 286.511719 343.800781 282.425781 347.054688 278.769531 C 347.90625 277.933594 348.835938 277.191406 349.835938 276.542969 C 350.839844 275.898438 351.898438 275.355469 353.007812 274.921875 C 354.121094 274.484375 355.261719 274.164062 356.4375 273.960938 C 357.613281 273.753906 358.796875 273.671875 359.992188 273.703125 C 360.316406 274.523438 360.542969 275.371094 360.667969 276.242188 C 360.796875 277.117188 360.820312 277.992188 360.746094 278.871094 C 360.671875 279.75 360.496094 280.609375 360.21875 281.445312 C 359.945312 282.285156 359.578125 283.078125 359.117188 283.832031 C 355.628906 291.40625 352.035156 298.9375 347.992188 306.195312 C 347.378906 307.105469 346.910156 308.085938 346.589844 309.132812 C 346.269531 310.183594 346.109375 311.257812 346.109375 312.355469 C 346.109375 313.453125 346.269531 314.527344 346.589844 315.574219 C 346.910156 316.625 347.378906 317.605469 347.992188 318.515625 C 350.523438 322.558594 352.734375 326.792969 355.160156 331.046875 C 358.460938 329.515625 358.542969 326.792969 358.886719 324.492188 C 359.863281 317.835938 363.523438 312.492188 367.035156 307.066406 C 368.183594 305.324219 369.78125 303.132812 372.011719 304.472656 C 373.585938 305.824219 374.5625 307.519531 374.949219 309.558594 C 375.203125 311.238281 375.058594 312.882812 374.523438 314.492188 C 372.488281 324.777344 369.535156 334.792969 365.671875 344.539062 C 364.773438 346.425781 364.511719 348.398438 364.886719 350.453125 C 366.480469 356.21875 368.609375 361.835938 370.757812 368.09375 C 375.246094 365.261719 375.652344 360.941406 377.90625 357.921875 C 380.164062 354.898438 382.332031 352.089844 384.589844 349.070312 L 384.441406 349.070312 C 383.78125 350.816406 383.226562 352.601562 382.441406 354.304688 C 380.3125 359.007812 377.652344 363.582031 375.757812 368.410156 C 374.269531 372.199219 373.140625 376.304688 376.824219 380.921875 C 378.015625 378.496094 378.757812 376.667969 379.800781 374.964844 C 380.84375 373.261719 382.226562 371.6875 383.441406 370.070312 L 383.226562 370.070312 C 382.339844 373.832031 381.257812 377.535156 379.972656 381.179688 C 379.214844 382.878906 378.78125 384.65625 378.667969 386.511719 C 378.554688 388.371094 378.769531 390.1875 379.3125 391.964844 C 380.183594 394.902344 380.652344 397.96875 381.332031 400.988281 Z M 362.757812 342.898438 C 368.929688 335.367188 373.398438 315.621094 370.375 308.640625 C 361.226562 314.195312 356.585938 334.8125 362.757812 342.898438 Z M 358.140625 276.9375 C 350.734375 276.40625 347.714844 280.894531 345.03125 285.234375 C 341.140625 291.621094 341.160156 298.003906 345.839844 305.089844 C 350.90625 295.875 356.757812 287.894531 358.035156 276.894531 Z M 357.886719 350.367188 C 356.117188 342.003906 340.074219 331.003906 327.4375 329.472656 C 330.5 337.429688 349.117188 350.21875 357.777344 350.324219 Z M 365.992188 386.222656 C 359.460938 378.5625 336.203125 370.261719 329.351562 372.773438 C 334.332031 379.242188 355.308594 387.113281 365.886719 386.179688 Z M 322.734375 273.746094 C 320.5625 284.003906 328.945312 299.023438 337.222656 302.257812 C 338.222656 296.855469 338.222656 294.621094 336.074219 291.621094 C 331.777344 285.597656 327.203125 279.703125 322.734375 273.746094 Z M 305.710938 311.664062 C 313.542969 311.875 321.265625 311.917969 328.160156 307.640625 C 324.289062 307.039062 320.425781 307.085938 316.566406 307.773438 C 312.710938 308.460938 309.070312 309.757812 305.648438 311.664062 Z M 305.710938 311.664062 " fill-opacity="1" fill-rule="nonzero"/></g><path fill="#000000" d="M 384.589844 349.070312 C 384.644531 348.246094 384.824219 347.449219 385.136719 346.679688 C 385.445312 345.914062 385.867188 345.214844 386.402344 344.582031 C 386.9375 343.953125 387.554688 343.417969 388.261719 342.984375 C 388.964844 342.550781 389.71875 342.238281 390.523438 342.046875 C 391.0625 342.304688 391.535156 342.648438 391.945312 343.082031 C 392.351562 343.515625 392.671875 344.003906 392.898438 344.554688 C 393.128906 345.105469 393.25 345.675781 393.265625 346.273438 C 393.28125 346.867188 393.191406 347.445312 392.992188 348.007812 C 391.207031 355.941406 388.738281 363.625 383.226562 369.921875 L 383.441406 369.921875 C 385.121094 364.835938 386.84375 359.773438 388.441406 354.667969 C 389.183594 352.242188 390.84375 349.792969 388.972656 346.773438 L 384.441406 348.898438 Z M 384.589844 349.070312 " fill-opacity="1" fill-rule="nonzero"/><g fill="#000000" fill-opacity="1"><g transform="translate(134.256552, 758.290253)"><g><path d="M 40.203125 -27.0625 L 12.015625 -27.0625 L 12.015625 -17.96875 L 36.90625 -17.96875 L 36.90625 -13.140625 L 12.015625 -13.140625 L 12.015625 -4.84375 L 40.203125 -4.84375 L 40.203125 0 L 6.59375 0 L 6.59375 -31.90625 L 40.203125 -31.90625 Z M 40.203125 -27.0625 "/></g></g></g><g fill="#000000" fill-opacity="1"><g transform="translate(201.886184, 758.290253)"><g><path d="M 37.28125 -21.59375 C 37.28125 -22.96875 36.703125 -24.050781 35.546875 -24.84375 C 34.390625 -25.644531 32.8125 -26.210938 30.8125 -26.546875 C 28.8125 -26.890625 26.550781 -27.0625 24.03125 -27.0625 C 21.519531 -27.0625 19.191406 -26.945312 17.046875 -26.71875 C 14.898438 -26.488281 13.171875 -26.109375 11.859375 -25.578125 C 10.546875 -25.046875 9.890625 -24.351562 9.890625 -23.5 L 9.890625 -23.015625 C 9.890625 -22.703125 9.96875 -22.367188 10.125 -22.015625 C 10.289062 -21.660156 10.769531 -21.296875 11.5625 -20.921875 C 12.363281 -20.546875 13.675781 -20.191406 15.5 -19.859375 C 17.320312 -19.523438 19.882812 -19.195312 23.1875 -18.875 C 27.226562 -18.519531 30.675781 -18.078125 33.53125 -17.546875 C 36.382812 -17.015625 38.570312 -16.144531 40.09375 -14.9375 C 41.613281 -13.738281 42.375 -11.929688 42.375 -9.515625 L 42.375 -8.984375 C 42.375 -5.472656 40.796875 -3.007812 37.640625 -1.59375 C 34.484375 -0.175781 29.578125 0.53125 22.921875 0.53125 C 16.679688 0.53125 12.007812 -0.503906 8.90625 -2.578125 C 5.800781 -4.648438 4.25 -7.457031 4.25 -11 L 9.671875 -11 C 9.671875 -9.09375 10.753906 -7.578125 12.921875 -6.453125 C 15.085938 -5.335938 18.421875 -4.78125 22.921875 -4.78125 C 24.410156 -4.78125 25.957031 -4.816406 27.5625 -4.890625 C 29.175781 -4.960938 30.679688 -5.128906 32.078125 -5.390625 C 33.484375 -5.660156 34.617188 -6.066406 35.484375 -6.609375 C 36.359375 -7.160156 36.796875 -7.898438 36.796875 -8.828125 L 36.796875 -9.46875 C 36.796875 -9.675781 36.707031 -9.9375 36.53125 -10.25 C 36.351562 -10.570312 35.851562 -10.925781 35.03125 -11.3125 C 34.21875 -11.707031 32.851562 -12.09375 30.9375 -12.46875 C 29.03125 -12.84375 26.335938 -13.1875 22.859375 -13.5 C 18.609375 -13.96875 15.117188 -14.46875 12.390625 -15 C 9.660156 -15.53125 7.628906 -16.394531 6.296875 -17.59375 C 4.972656 -18.800781 4.3125 -20.59375 4.3125 -22.96875 L 4.3125 -23.390625 C 4.3125 -26.335938 5.90625 -28.570312 9.09375 -30.09375 C 12.28125 -31.613281 17.257812 -32.375 24.03125 -32.375 C 27.863281 -32.375 31.171875 -32.03125 33.953125 -31.34375 C 36.734375 -30.65625 38.882812 -29.519531 40.40625 -27.9375 C 41.9375 -26.363281 42.703125 -24.25 42.703125 -21.59375 Z M 37.28125 -21.59375 "/></g></g></g><g fill="#000000" fill-opacity="1"><g transform="translate(273.024878, 758.290253)"><g><path d="M 36.3125 -31.90625 L 36.3125 -26.6875 L 20.796875 -26.6875 L 20.796875 0 L 15.359375 0 L 15.359375 -26.6875 L -0.15625 -26.6875 L -0.15625 -31.90625 Z M 36.3125 -31.90625 "/></g></g></g><g fill="#000000" fill-opacity="1"><g transform="translate(333.317415, 758.290253)"><g><path d="M 7.609375 0 C 6.648438 0 5.921875 -0.203125 5.421875 -0.609375 C 4.921875 -1.015625 4.671875 -1.554688 4.671875 -2.234375 L 4.671875 -2.609375 C 4.671875 -4.097656 5.648438 -4.84375 7.609375 -4.84375 C 9.585938 -4.84375 10.578125 -4.097656 10.578125 -2.609375 L 10.578125 -2.28125 C 10.578125 -1.613281 10.320312 -1.066406 9.8125 -0.640625 C 9.300781 -0.210938 8.566406 0 7.609375 0 Z M 7.609375 0 "/></g></g></g><g fill="#000000" fill-opacity="1"><g transform="translate(372.927769, 758.290253)"><g/></g></g><g fill="#000000" fill-opacity="1"><g transform="translate(418.386565, 758.290253)"><g><path d="M 21.953125 -9.140625 C 18.128906 -7.828125 15.332031 -6.84375 13.5625 -6.1875 C 11.789062 -5.53125 10.90625 -4.796875 10.90625 -3.984375 L 40.40625 -3.984375 L 40.40625 1.328125 L 3.453125 1.328125 L 3.453125 -2.234375 C 3.453125 -3.617188 4 -4.867188 5.09375 -5.984375 C 6.195312 -7.097656 7.625 -8.113281 9.375 -9.03125 C 11.132812 -9.957031 13.023438 -10.8125 15.046875 -11.59375 C 17.066406 -12.375 19 -13.082031 20.84375 -13.71875 C 24.53125 -15.03125 27.398438 -16.101562 29.453125 -16.9375 C 31.515625 -17.769531 32.953125 -18.519531 33.765625 -19.1875 C 34.578125 -19.863281 34.984375 -20.609375 34.984375 -21.421875 L 34.984375 -22.4375 C 34.984375 -23.78125 33.875 -24.894531 31.65625 -25.78125 C 29.445312 -26.675781 26.445312 -27.125 22.65625 -27.125 C 19.457031 -27.125 16.925781 -26.890625 15.0625 -26.421875 C 13.207031 -25.960938 11.828125 -25.332031 10.921875 -24.53125 C 10.023438 -23.738281 9.441406 -22.835938 9.171875 -21.828125 C 8.898438 -20.816406 8.765625 -19.78125 8.765625 -18.71875 L 3.25 -18.71875 C 3.25 -19.988281 3.378906 -21.269531 3.640625 -22.5625 C 3.910156 -23.863281 4.425781 -25.109375 5.1875 -26.296875 C 5.945312 -27.484375 7.046875 -28.535156 8.484375 -29.453125 C 9.921875 -30.378906 11.789062 -31.109375 14.09375 -31.640625 C 16.394531 -32.171875 19.25 -32.4375 22.65625 -32.4375 C 26.695312 -32.4375 30.035156 -31.960938 32.671875 -31.015625 C 35.316406 -30.078125 37.285156 -28.851562 38.578125 -27.34375 C 39.867188 -25.84375 40.515625 -24.207031 40.515625 -22.4375 L 40.515625 -21.421875 C 40.515625 -19.929688 40.113281 -18.628906 39.3125 -17.515625 C 38.519531 -16.398438 37.46875 -15.4375 36.15625 -14.625 C 34.84375 -13.8125 33.367188 -13.082031 31.734375 -12.4375 C 30.109375 -11.800781 28.453125 -11.222656 26.765625 -10.703125 C 25.085938 -10.191406 23.484375 -9.671875 21.953125 -9.140625 Z M 21.953125 -9.140625 "/></g></g></g><g fill="#000000" fill-opacity="1"><g transform="translate(488.674573, 758.290253)"><g><path d="M 23.234375 0.53125 C 16.960938 0.53125 12.148438 -0.820312 8.796875 -3.53125 C 5.453125 -6.25 3.78125 -10 3.78125 -14.78125 L 3.78125 -17.125 C 3.78125 -21.90625 5.453125 -25.648438 8.796875 -28.359375 C 12.148438 -31.078125 16.960938 -32.4375 23.234375 -32.4375 C 29.398438 -32.4375 34.1875 -31.132812 37.59375 -28.53125 C 41 -25.925781 42.703125 -22.191406 42.703125 -17.328125 L 42.703125 -15 C 42.703125 -11.875 41.960938 -9.140625 40.484375 -6.796875 C 39.015625 -4.460938 36.832031 -2.65625 33.9375 -1.375 C 31.050781 -0.101562 27.484375 0.53125 23.234375 0.53125 Z M 23.234375 -4.78125 C 25.960938 -4.78125 28.375 -5.082031 30.46875 -5.6875 C 32.5625 -6.289062 34.203125 -7.328125 35.390625 -8.796875 C 36.578125 -10.265625 37.171875 -12.257812 37.171875 -14.78125 L 37.171875 -17.125 C 37.171875 -19.675781 36.578125 -21.675781 35.390625 -23.125 C 34.203125 -24.582031 32.5625 -25.613281 30.46875 -26.21875 C 28.375 -26.820312 25.960938 -27.125 23.234375 -27.125 C 20.535156 -27.125 18.140625 -26.820312 16.046875 -26.21875 C 13.960938 -25.613281 12.316406 -24.582031 11.109375 -23.125 C 9.910156 -21.675781 9.3125 -19.675781 9.3125 -17.125 L 9.3125 -14.78125 C 9.3125 -12.257812 9.910156 -10.265625 11.109375 -8.796875 C 12.316406 -7.328125 13.960938 -6.289062 16.046875 -5.6875 C 18.140625 -5.082031 20.535156 -4.78125 23.234375 -4.78125 Z M 23.234375 -4.78125 "/></g></g></g><g fill="#000000" fill-opacity="1"><g transform="translate(559.334751, 758.290253)"><g><path d="M 21.953125 -9.140625 C 18.128906 -7.828125 15.332031 -6.84375 13.5625 -6.1875 C 11.789062 -5.53125 10.90625 -4.796875 10.90625 -3.984375 L 40.40625 -3.984375 L 40.40625 1.328125 L 3.453125 1.328125 L 3.453125 -2.234375 C 3.453125 -3.617188 4 -4.867188 5.09375 -5.984375 C 6.195312 -7.097656 7.625 -8.113281 9.375 -9.03125 C 11.132812 -9.957031 13.023438 -10.8125 15.046875 -11.59375 C 17.066406 -12.375 19 -13.082031 20.84375 -13.71875 C 24.53125 -15.03125 27.398438 -16.101562 29.453125 -16.9375 C 31.515625 -17.769531 32.953125 -18.519531 33.765625 -19.1875 C 34.578125 -19.863281 34.984375 -20.609375 34.984375 -21.421875 L 34.984375 -22.4375 C 34.984375 -23.78125 33.875 -24.894531 31.65625 -25.78125 C 29.445312 -26.675781 26.445312 -27.125 22.65625 -27.125 C 19.457031 -27.125 16.925781 -26.890625 15.0625 -26.421875 C 13.207031 -25.960938 11.828125 -25.332031 10.921875 -24.53125 C 10.023438 -23.738281 9.441406 -22.835938 9.171875 -21.828125 C 8.898438 -20.816406 8.765625 -19.78125 8.765625 -18.71875 L 3.25 -18.71875 C 3.25 -19.988281 3.378906 -21.269531 3.640625 -22.5625 C 3.910156 -23.863281 4.425781 -25.109375 5.1875 -26.296875 C 5.945312 -27.484375 7.046875 -28.535156 8.484375 -29.453125 C 9.921875 -30.378906 11.789062 -31.109375 14.09375 -31.640625 C 16.394531 -32.171875 19.25 -32.4375 22.65625 -32.4375 C 26.695312 -32.4375 30.035156 -31.960938 32.671875 -31.015625 C 35.316406 -30.078125 37.285156 -28.851562 38.578125 -27.34375 C 39.867188 -25.84375 40.515625 -24.207031 40.515625 -22.4375 L 40.515625 -21.421875 C 40.515625 -19.929688 40.113281 -18.628906 39.3125 -17.515625 C 38.519531 -16.398438 37.46875 -15.4375 36.15625 -14.625 C 34.84375 -13.8125 33.367188 -13.082031 31.734375 -12.4375 C 30.109375 -11.800781 28.453125 -11.222656 26.765625 -10.703125 C 25.085938 -10.191406 23.484375 -9.671875 21.953125 -9.140625 Z M 21.953125 -9.140625 "/></g></g></g><g fill="#000000" fill-opacity="1"><g transform="translate(629.622759, 758.290253)"><g><path d="M 21.953125 -9.140625 C 18.128906 -7.828125 15.332031 -6.84375 13.5625 -6.1875 C 11.789062 -5.53125 10.90625 -4.796875 10.90625 -3.984375 L 40.40625 -3.984375 L 40.40625 1.328125 L 3.453125 1.328125 L 3.453125 -2.234375 C 3.453125 -3.617188 4 -4.867188 5.09375 -5.984375 C 6.195312 -7.097656 7.625 -8.113281 9.375 -9.03125 C 11.132812 -9.957031 13.023438 -10.8125 15.046875 -11.59375 C 17.066406 -12.375 19 -13.082031 20.84375 -13.71875 C 24.53125 -15.03125 27.398438 -16.101562 29.453125 -16.9375 C 31.515625 -17.769531 32.953125 -18.519531 33.765625 -19.1875 C 34.578125 -19.863281 34.984375 -20.609375 34.984375 -21.421875 L 34.984375 -22.4375 C 34.984375 -23.78125 33.875 -24.894531 31.65625 -25.78125 C 29.445312 -26.675781 26.445312 -27.125 22.65625 -27.125 C 19.457031 -27.125 16.925781 -26.890625 15.0625 -26.421875 C 13.207031 -25.960938 11.828125 -25.332031 10.921875 -24.53125 C 10.023438 -23.738281 9.441406 -22.835938 9.171875 -21.828125 C 8.898438 -20.816406 8.765625 -19.78125 8.765625 -18.71875 L 3.25 -18.71875 C 3.25 -19.988281 3.378906 -21.269531 3.640625 -22.5625 C 3.910156 -23.863281 4.425781 -25.109375 5.1875 -26.296875 C 5.945312 -27.484375 7.046875 -28.535156 8.484375 -29.453125 C 9.921875 -30.378906 11.789062 -31.109375 14.09375 -31.640625 C 16.394531 -32.171875 19.25 -32.4375 22.65625 -32.4375 C 26.695312 -32.4375 30.035156 -31.960938 32.671875 -31.015625 C 35.316406 -30.078125 37.285156 -28.851562 38.578125 -27.34375 C 39.867188 -25.84375 40.515625 -24.207031 40.515625 -22.4375 L 40.515625 -21.421875 C 40.515625 -19.929688 40.113281 -18.628906 39.3125 -17.515625 C 38.519531 -16.398438 37.46875 -15.4375 36.15625 -14.625 C 34.84375 -13.8125 33.367188 -13.082031 31.734375 -12.4375 C 30.109375 -11.800781 28.453125 -11.222656 26.765625 -10.703125 C 25.085938 -10.191406 23.484375 -9.671875 21.953125 -9.140625 Z M 21.953125 -9.140625 "/></g></g></g></svg>