<svg xmlns="http://www.w3.org/2000/svg" xmlns:xlink="http://www.w3.org/1999/xlink" width="1080" zoomAndPan="magnify" viewBox="0 0 810 809.999993" height="1080" preserveAspectRatio="xMidYMid meet" version="1.0"><defs><g/><clipPath id="0358fab352"><path d="M 66.503906 88.683594 L 743.328125 88.683594 L 743.328125 374.796875 L 66.503906 374.796875 Z M 66.503906 88.683594 " clip-rule="nonzero"/></clipPath></defs><g clip-path="url(#0358fab352)"><path fill="#040404" d="M 743.320312 199.226562 C 743.457031 198.976562 743.488281 198.699219 743.347656 198.453125 L 736.90625 159.824219 C 736.90625 159.710938 736.851562 159.601562 736.796875 159.519531 L 717.523438 129.65625 C 717.46875 129.574219 717.382812 129.488281 717.300781 129.433594 L 710.195312 124.625 C 710.113281 124.566406 710.027344 124.484375 709.917969 124.457031 L 709.808594 124.429688 L 709.53125 124.292969 L 688.765625 113.730469 L 688.101562 113.367188 C 688.074219 113.339844 688.046875 113.3125 688.019531 113.3125 L 681.023438 110.605469 C 680.96875 110.605469 680.941406 110.578125 680.882812 110.578125 L 662.632812 106.925781 C 662.605469 106.925781 662.578125 106.925781 662.550781 106.925781 L 633.296875 104.660156 C 633.242188 104.660156 633.214844 104.660156 633.1875 104.660156 L 599.480469 106.234375 L 575.367188 104.464844 C 575.339844 104.464844 575.3125 104.464844 575.285156 104.464844 L 531.457031 101.367188 C 531.375 101.339844 531.265625 101.339844 531.152344 101.339844 L 483.316406 97.582031 C 483.316406 97.582031 483.289062 97.582031 483.289062 97.582031 L 483.207031 97.582031 C 483.207031 97.582031 483.179688 97.582031 483.179688 97.582031 L 432.992188 93.433594 C 432.910156 93.433594 432.851562 93.40625 432.769531 93.40625 L 381.558594 89.921875 L 331.179688 88.730469 C 331.097656 88.703125 331.015625 88.703125 330.929688 88.703125 L 282.542969 91.71875 C 282.484375 91.71875 282.457031 91.71875 282.429688 91.71875 L 264.597656 95.230469 L 221.792969 102.585938 C 221.707031 102.613281 221.625 102.640625 221.542969 102.667969 L 178.601562 118.898438 L 178.546875 118.898438 C 178.40625 118.925781 178.324219 118.980469 178.214844 119.039062 L 142.265625 143.175781 C 142.210938 143.230469 142.183594 143.261719 142.128906 143.316406 L 142.101562 143.34375 L 126.699219 159.90625 L 97.75 191.402344 C 97.722656 191.457031 97.664062 191.511719 97.636719 191.566406 L 79.554688 225.882812 C 79.472656 225.992188 79.386719 226.101562 79.359375 226.242188 L 73.082031 250.1875 L 66.53125 281.597656 C 66.503906 281.765625 66.53125 281.957031 66.585938 282.097656 L 73 307.398438 C 73 307.425781 73.027344 307.453125 73.027344 307.480469 L 80.191406 327.222656 C 80.191406 327.222656 80.191406 327.25 80.191406 327.25 C 80.21875 327.363281 80.273438 327.445312 80.328125 327.5 C 80.355469 327.527344 80.410156 327.582031 80.4375 327.609375 L 80.523438 327.664062 L 100.320312 344.53125 L 118.984375 357.859375 C 118.984375 357.859375 118.984375 357.886719 119.011719 357.886719 C 119.039062 357.886719 119.039062 357.886719 119.039062 357.886719 C 119.066406 357.917969 119.066406 357.917969 119.09375 357.917969 L 146.914062 367.730469 C 146.941406 367.730469 146.996094 367.761719 147.023438 367.761719 L 175.171875 373.402344 C 175.226562 373.429688 175.28125 373.429688 175.335938 373.429688 L 175.78125 373.429688 L 204.566406 374.617188 L 237.46875 374.535156 L 238.160156 374.589844 C 238.1875 374.589844 238.1875 374.589844 238.214844 374.589844 C 238.328125 374.589844 238.4375 374.5625 238.546875 374.507812 L 279.140625 369.53125 L 279.195312 369.53125 C 279.277344 369.558594 279.390625 369.558594 279.5 369.53125 L 326.0625 360.15625 C 326.121094 360.15625 326.175781 360.183594 326.230469 360.183594 C 326.394531 360.183594 326.535156 360.128906 326.671875 360.046875 L 376.722656 347.796875 C 376.777344 347.796875 376.804688 347.796875 376.859375 347.796875 C 376.941406 347.796875 377.054688 347.796875 377.136719 347.710938 C 377.164062 347.683594 377.21875 347.683594 377.246094 347.65625 L 428.707031 334.164062 C 428.734375 334.164062 428.789062 334.191406 428.816406 334.191406 C 429.007812 334.191406 429.175781 334.136719 429.285156 334.027344 L 437.773438 331.925781 C 437.832031 331.925781 437.859375 331.925781 437.914062 331.925781 C 437.96875 331.925781 438.050781 331.894531 438.078125 331.867188 L 439.820312 331.425781 L 468.660156 324.789062 C 468.6875 324.789062 468.71875 324.789062 468.746094 324.789062 C 468.828125 324.789062 468.910156 324.789062 468.992188 324.816406 L 470.015625 324.511719 L 509.144531 316.855469 C 509.199219 316.855469 509.253906 316.882812 509.28125 316.882812 C 509.363281 316.882812 509.417969 316.882812 509.476562 316.882812 L 509.972656 316.742188 L 545.007812 311.875 C 545.035156 311.875 545.089844 311.875 545.117188 311.875 C 545.171875 311.875 545.226562 311.875 545.28125 311.960938 L 545.972656 311.792969 L 564.113281 310.6875 C 564.113281 310.6875 564.140625 310.6875 564.140625 310.6875 L 588.003906 314.808594 L 589.304688 314.972656 L 605.976562 317.433594 L 613.359375 318.347656 L 613.582031 318.375 L 616.234375 318.957031 L 636.585938 321.472656 C 636.640625 321.472656 636.671875 321.472656 636.699219 321.472656 L 648.78125 321.03125 C 648.917969 321.03125 649.03125 321 649.140625 320.917969 L 682.351562 309.691406 C 682.351562 309.691406 682.351562 309.691406 682.378906 309.691406 C 682.488281 309.664062 682.597656 309.609375 682.683594 309.5 L 711.078125 283.421875 C 711.105469 283.421875 711.105469 283.394531 711.132812 283.367188 L 716.054688 277.78125 C 716.054688 277.753906 716.085938 277.753906 716.085938 277.726562 C 716.113281 277.699219 716.113281 277.671875 716.140625 277.644531 C 716.195312 277.5625 716.222656 277.480469 716.222656 277.367188 L 735.800781 240.703125 C 736.046875 240.507812 736.160156 240.175781 736.074219 239.875 Z M 636.945312 319.980469 C 636.917969 319.980469 636.890625 319.949219 636.863281 319.949219 L 623.316406 318.125 L 638.773438 319.894531 Z M 588.5 313.316406 L 584.519531 310.4375 L 595.941406 310.855469 L 602.300781 315.113281 L 589.746094 313.507812 Z M 429.921875 332.367188 L 433.019531 318.871094 L 489.125 303.167969 L 479.167969 320.089844 L 437.773438 330.402344 C 437.71875 330.429688 437.664062 330.429688 437.609375 330.457031 Z M 377.355469 346.109375 L 373.625 336.542969 L 431.277344 319.371094 L 428.207031 332.78125 Z M 326.453125 358.605469 L 316.441406 352.632812 L 372.105469 337.011719 L 375.808594 346.523438 Z M 279.609375 367.953125 C 279.527344 367.925781 279.445312 367.925781 279.332031 367.953125 L 279.195312 367.980469 L 264.292969 364.828125 L 314.3125 353.214844 L 324.128906 359.105469 Z M 175.558594 371.824219 L 154.019531 363.5 L 192.121094 361.34375 L 210.539062 371.160156 L 175.972656 371.824219 Z M 101.066406 341.132812 L 94.816406 323.960938 L 126.285156 327.777344 L 131.980469 346.027344 Z M 74.742188 259.78125 L 92.769531 240.648438 L 98.714844 264.179688 L 80.742188 284.445312 Z M 80.882812 226.90625 L 97.582031 209.59375 L 92.441406 238.628906 L 75.183594 256.960938 Z M 178.933594 120.53125 L 195.355469 118.070312 L 165.855469 137.949219 L 146.609375 142.238281 Z M 282.347656 93.378906 L 294.734375 102.75 L 257.351562 111.074219 L 240.261719 101.671875 Z M 380.953125 91.496094 L 383.054688 97.496094 L 339.695312 98.132812 L 332.785156 90.363281 Z M 479.972656 98.90625 L 474.191406 101.367188 L 431 99.019531 L 433.269531 95.0625 Z M 565.328125 105.378906 L 555.679688 106.289062 L 523.355469 104.328125 L 531.207031 102.917969 Z M 593.839844 108.117188 L 610.347656 112.125 L 561.402344 118.925781 L 549.402344 115.582031 Z M 735.46875 160.402344 L 741.386719 195.964844 L 736.105469 189.300781 L 730.101562 155.066406 Z M 481.324219 319.621094 L 491.335938 302.585938 L 543.042969 291.027344 L 526.671875 310.300781 Z M 314.808594 351.417969 L 305.242188 334.082031 L 368.148438 313.425781 L 371.6875 335.40625 Z M 192.703125 359.714844 L 179.210938 342.488281 L 232.796875 328.6875 L 243.195312 349.84375 Z M 133.667969 346.136719 L 127.886719 327.695312 L 171.9375 319.980469 L 176.886719 341.351562 Z M 94.097656 239.429688 L 121.777344 223.640625 L 127.585938 244.078125 L 100.070312 263.046875 Z M 125.925781 195.992188 L 121.554688 221.957031 L 94.238281 237.496094 L 99.464844 207.769531 Z M 198.757812 117.65625 L 220.90625 125.976562 L 194.058594 143.703125 L 168.175781 138.253906 Z M 256.964844 112.816406 L 275.40625 133.222656 L 247.09375 144.558594 L 224.167969 126.035156 Z M 570.804688 138.144531 L 507.648438 154.816406 L 501.621094 136.597656 L 561.042969 120.667969 Z M 689.566406 119.09375 L 706.433594 141.628906 L 675.050781 133.664062 L 659.839844 113.921875 Z M 728.195312 153.296875 L 734.277344 188.164062 L 715.253906 177.355469 L 709.363281 144.253906 Z M 679.03125 296.003906 L 662.46875 288.898438 L 689.042969 258.59375 L 707.070312 268.1875 Z M 645.242188 311.460938 L 631.085938 307.285156 L 661.253906 290.085938 L 677.261719 296.945312 Z M 544.675781 289.007812 L 491.945312 300.761719 L 501.097656 269.957031 L 559.578125 255.800781 Z M 304.636719 332.644531 L 297.886719 306.566406 L 365.410156 280.933594 L 367.929688 311.847656 Z M 178.433594 341.078125 L 173.429688 319.589844 L 228.457031 301.644531 L 232.328125 327.167969 Z M 123.214844 223.007812 L 156.148438 213.9375 L 161.566406 230.058594 L 128.996094 243.328125 Z M 159.382812 191.539062 L 155.925781 212.386719 L 123.214844 221.375 L 127.613281 195.382812 Z M 194.335938 145.554688 L 221.265625 160.984375 L 204.371094 177.65625 L 174.453125 166.625 Z M 245.570312 145.390625 L 222.511719 159.878906 L 195.6875 144.503906 L 222.539062 126.753906 Z M 502.644531 123.074219 L 513.015625 123.65625 L 500.984375 126.972656 Z M 499.078125 127.5 L 490.808594 129.792969 C 490.753906 129.792969 490.726562 129.792969 490.671875 129.820312 L 460.863281 140.6875 L 465.894531 121.277344 L 500.984375 122.964844 Z M 506.15625 155.261719 L 437.996094 180.339844 L 436.0625 160.625 L 500.128906 137.039062 Z M 571.300781 139.609375 L 574.757812 170.441406 L 510.136719 187.335938 L 507.980469 156.339844 Z M 632.496094 165.269531 L 627.488281 204.8125 L 572.601562 211.335938 L 576.335938 171.714844 Z M 679.363281 168.503906 L 673.417969 207.605469 L 629.066406 204.785156 L 634.042969 165.214844 Z M 707.707031 143.535156 L 713.625 176.773438 L 680.96875 167.152344 L 675.601562 135.40625 Z M 560.324219 254.003906 L 501.429688 268.269531 L 507.734375 229.421875 L 570.613281 213.355469 Z M 297.640625 305.019531 L 295.09375 274.992188 L 364.332031 245.429688 L 365.300781 279.304688 Z M 230.03125 299.460938 L 233.433594 273.664062 L 295.675781 245.652344 L 293.546875 274.023438 Z M 193.007812 197.511719 L 190.433594 213.191406 L 157.558594 212.25 L 160.988281 191.566406 Z M 204.839844 179.703125 L 230.503906 199.917969 L 222.316406 212.773438 L 195.027344 196.65625 Z M 222.566406 161.925781 L 245.765625 185.816406 L 231.496094 198.671875 L 205.808594 178.433594 Z M 506.433594 156.808594 L 508.589844 187.777344 L 438.824219 212.941406 L 438.078125 181.972656 Z M 574.703125 172.074219 L 570.941406 211.640625 L 507.871094 227.761719 L 510.136719 188.941406 Z M 295.152344 273.332031 L 297.308594 244.851562 L 365.050781 213.605469 L 364.332031 243.773438 Z M 221.679688 214.242188 L 219.773438 225.742188 L 191.984375 213.523438 L 194.5 198.175781 Z M 231.523438 201.1875 L 248.75 228.011719 L 247.371094 230 L 238.214844 233.320312 L 223.507812 213.851562 Z M 344.011719 191.566406 C 344.175781 191.539062 344.34375 191.457031 344.453125 191.34375 L 370.664062 179.207031 L 367.625 188.882812 L 305.574219 218.332031 L 314.117188 205.417969 L 315.640625 204.699219 L 315.972656 204.5625 C 316 204.5625 316 204.535156 316.027344 204.535156 L 332.175781 197.042969 C 332.230469 197.015625 332.257812 197.015625 332.3125 196.984375 Z M 365.136719 211.863281 L 297.777344 242.914062 L 304.027344 220.820312 L 367.375 190.738281 Z M 237.414062 235.253906 L 247.976562 231.441406 C 248.089844 231.410156 248.199219 231.382812 248.308594 231.328125 L 250.160156 230.664062 C 250.191406 230.664062 250.246094 230.664062 250.273438 230.664062 C 250.382812 230.636719 250.492188 230.582031 250.605469 230.5 L 269.40625 223.699219 L 264.789062 226.269531 L 259.175781 229.089844 C 259.175781 229.089844 259.148438 229.089844 259.148438 229.117188 L 222.511719 243.855469 Z M 260.035156 230.417969 L 265.535156 227.652344 L 265.648438 227.597656 L 284.171875 219.273438 L 311.355469 206.746094 L 302.863281 219.578125 L 246.539062 246.148438 Z M 332.617188 195.160156 L 332.453125 193.085938 L 338.949219 192.230469 Z M 330.875 193.390625 L 331.097656 195.878906 L 315.613281 203.070312 C 315.53125 203.070312 315.417969 203.097656 315.335938 203.125 L 313.316406 204.039062 C 313.234375 204.066406 313.179688 204.121094 313.097656 204.175781 L 306.847656 206.773438 L 305.933594 199.085938 Z M 304.414062 199.558594 L 305.355469 207.382812 L 284.257812 216.285156 L 282.875 207.273438 Z M 281.433594 207.964844 L 282.816406 216.894531 L 278.089844 218.886719 C 278.0625 218.886719 278.007812 218.914062 277.980469 218.941406 L 265.371094 223.503906 L 264.207031 217.253906 Z M 262.769531 218.304688 L 263.820312 224.058594 L 250.660156 228.8125 L 250.550781 228.34375 Z M 236.640625 233.84375 L 228.980469 235.558594 L 221.265625 226.546875 L 223.0625 215.816406 Z M 225.46875 235.503906 L 223.753906 232.019531 L 226.824219 235.585938 Z M 219.800781 227.457031 L 223.671875 235.394531 L 222.675781 235.339844 C 222.675781 235.339844 222.648438 235.339844 222.648438 235.339844 L 197.15625 226.738281 L 192.566406 215.511719 Z M 216.457031 234.921875 L 210.59375 234.535156 L 203.902344 230.664062 Z M 210.484375 236.113281 C 210.511719 236.113281 210.511719 236.113281 210.539062 236.113281 L 222.207031 236.886719 C 222.261719 236.914062 222.316406 236.914062 222.371094 236.914062 C 222.398438 236.914062 222.398438 236.914062 222.429688 236.914062 L 222.871094 236.941406 L 203.183594 241.3125 L 185.511719 240.371094 Z M 203.679688 242.777344 L 228.371094 237.273438 C 228.371094 237.273438 228.371094 237.273438 228.402344 237.273438 C 228.511719 237.273438 228.621094 237.246094 228.703125 237.21875 C 228.730469 237.21875 228.789062 237.191406 228.816406 237.191406 L 232.214844 236.445312 L 212.113281 248.03125 L 179.734375 256.269531 Z M 212.886719 249.386719 L 256.855469 231.6875 L 243.027344 247.808594 L 194.75 267.71875 Z M 244.105469 249.054688 L 302.144531 221.652344 L 295.898438 243.828125 L 234.234375 271.5625 Z M 366.65625 212.886719 L 436.558594 182.609375 L 437.304688 213.523438 L 365.9375 243.082031 Z M 366.792969 211.117188 L 369.0625 189.933594 L 434.539062 161.261719 L 436.503906 180.921875 Z M 369.585938 188.027344 L 372.628906 178.320312 L 390.269531 170.773438 C 390.269531 170.773438 390.269531 170.773438 390.269531 170.800781 C 390.492188 170.800781 390.683594 170.691406 390.796875 170.550781 L 423.535156 156.503906 C 423.671875 156.476562 423.785156 156.421875 423.867188 156.367188 L 431.636719 153.046875 L 434.152344 159.769531 Z M 431.773438 151.304688 L 424.253906 154.515625 L 424.449219 150.476562 L 433.433594 150.671875 Z M 422.675781 155.207031 L 390.960938 168.78125 L 390.132812 150.78125 L 422.898438 150.476562 Z M 388.554688 150.863281 L 389.414062 169.472656 L 371.9375 176.96875 C 371.746094 176.96875 371.550781 177.050781 371.414062 177.1875 L 360.433594 182.277344 L 356.289062 152.828125 Z M 354.765625 152.992188 L 358.96875 182.96875 L 343.789062 189.992188 L 332.203125 191.511719 L 324.15625 157.167969 Z M 322.550781 157.472656 L 330.625 191.816406 L 305.574219 197.539062 L 294.597656 164.21875 Z M 293.105469 164.691406 L 304.082031 197.980469 L 282.429688 205.722656 L 268.882812 174.007812 Z M 267.472656 174.671875 L 281.019531 206.332031 L 263.628906 215.707031 L 247.921875 186.121094 Z M 262.328125 216.589844 L 249.886719 226.820312 L 232.546875 199.835938 L 246.648438 187.113281 Z M 190.574219 214.765625 L 195.441406 226.683594 L 163.089844 229.699219 L 157.722656 213.796875 Z M 196.4375 228.175781 L 208.132812 234.894531 L 178.378906 239.902344 L 164.886719 231.082031 Z M 178.40625 241.558594 L 200.554688 242.722656 L 173.925781 257.707031 L 148.902344 256.464844 Z M 174.535156 259.203125 L 209.929688 250.160156 L 191.070312 269.210938 L 152.25 279.304688 Z M 191.984375 270.539062 L 241.976562 249.9375 L 232.105469 272.5 L 179.070312 292.851562 Z M 366.90625 278.695312 L 365.9375 244.738281 L 437.304688 215.179688 L 436.640625 252.039062 Z M 438.882812 214.574219 L 508.589844 189.4375 L 506.292969 228.203125 L 438.21875 251.515625 Z M 435.644531 159.132812 L 433.128906 152.414062 L 459.8125 142.679688 C 459.953125 142.652344 460.089844 142.625 460.199219 142.542969 L 490.867188 131.34375 L 498.773438 135.847656 Z M 459.066406 141.351562 L 437.5 149.203125 C 437.472656 149.203125 437.472656 149.203125 437.445312 149.203125 L 424.558594 148.929688 L 427.15625 119.976562 L 464.265625 121.222656 Z M 423.035156 148.902344 L 390.050781 149.234375 L 387.78125 119.730469 L 425.636719 119.921875 Z M 386.179688 119.785156 L 388.472656 149.316406 L 356.039062 151.335938 L 348.933594 121.5 Z M 347.355469 121.609375 L 354.460938 151.472656 L 323.6875 155.675781 L 311.960938 126.035156 Z M 310.332031 126.308594 L 322.082031 156.007812 L 293.988281 162.753906 L 277.921875 134.023438 Z M 276.375 134.523438 L 292.441406 163.28125 L 268.109375 172.625 L 248.171875 145.804688 Z M 266.699219 173.34375 L 246.980469 184.902344 L 223.78125 160.957031 L 246.734375 146.523438 Z M 173.457031 167.925781 L 203.429688 178.957031 L 193.503906 196.046875 L 161.539062 190.128906 Z M 162.453125 231.410156 L 176.636719 240.675781 L 145.945312 256.1875 L 130.101562 244.601562 Z M 146.164062 257.902344 L 172.214844 259.203125 L 148.957031 280.160156 L 120.449219 278.445312 Z M 149.707031 281.570312 L 189.855469 271.117188 L 176.804688 293.65625 L 134.304688 303.441406 Z M 177.992188 294.953125 L 231.773438 274.300781 L 228.402344 300.070312 L 173.566406 317.933594 Z M 233.820312 326.753906 L 229.921875 301.148438 L 293.574219 275.625 L 296.117188 305.574219 Z M 369.476562 311.351562 L 366.988281 280.355469 L 436.558594 253.808594 L 434.621094 289.175781 Z M 438.164062 253.199219 L 506.074219 229.945312 L 499.796875 268.6875 L 436.253906 288.621094 Z M 572.351562 212.96875 L 627.046875 206.46875 L 613.332031 247.339844 L 562.039062 253.699219 Z M 628.761719 206.359375 L 672.949219 209.179688 L 656.605469 248.914062 L 615.046875 247.3125 Z M 657.464844 250.65625 L 687.4375 258.039062 L 660.921875 288.261719 L 633.574219 283.285156 Z M 688.488281 256.65625 L 658.210938 249.191406 L 674.550781 209.429688 L 706.601562 218.71875 Z M 707.097656 217.171875 L 674.96875 207.851562 L 680.941406 168.78125 L 713.734375 178.433594 Z M 673.972656 135.101562 L 679.335938 166.902344 L 634.070312 163.609375 L 629.507812 132.613281 Z M 627.960938 132.667969 L 632.523438 163.667969 L 576.308594 170.136719 L 572.851562 139.304688 Z M 500.710938 135.214844 L 492.996094 130.789062 L 545.78125 116.191406 L 558.390625 119.703125 Z M 545.753906 114.585938 C 545.585938 114.585938 545.449219 114.640625 545.3125 114.722656 L 517.796875 122.328125 C 517.796875 122.328125 517.769531 122.328125 517.769531 122.328125 L 503.777344 121.554688 L 517.160156 105.542969 L 553.714844 107.757812 Z M 501.816406 121.441406 L 466.53125 119.757812 L 474.800781 103 L 515.199219 105.433594 Z M 464.816406 119.671875 L 427.378906 118.429688 L 430.308594 100.566406 L 473.113281 102.863281 Z M 425.800781 118.402344 L 387.589844 118.207031 L 385.070312 99.101562 L 428.761719 100.511719 Z M 383.496094 99.074219 L 386.011719 118.234375 L 348.460938 119.949219 L 340.5 99.738281 Z M 346.859375 120.089844 L 311.214844 124.511719 L 297.914062 103.773438 L 338.839844 99.792969 Z M 296.171875 104.023438 L 309.527344 124.871094 L 276.984375 132.667969 L 258.625 112.375 Z M 166.460938 139.527344 L 192.675781 145.03125 L 172.765625 166.15625 L 143.566406 164.882812 Z M 142.351562 166.402344 L 171.828125 167.703125 L 159.851562 189.960938 L 128.332031 193.804688 Z M 128.46875 245.347656 L 144.589844 257.101562 L 118.347656 278.085938 L 100.902344 264.34375 Z M 118.707031 279.914062 L 147.742188 281.652344 L 132.148438 303.859375 L 101.507812 301.257812 Z M 133.167969 305.324219 L 176.304688 295.398438 L 171.855469 318.402344 L 127.886719 326.0625 Z M 244.742188 349.484375 L 234.289062 328.21875 L 296.421875 307.09375 L 303.140625 333.085938 Z M 373.183594 334.992188 L 369.644531 312.925781 L 434.457031 290.835938 L 431.609375 317.574219 Z M 436.117188 290.308594 L 499.300781 270.511719 L 490.203125 301.203125 L 433.296875 317.128906 Z M 561.542969 255.386719 L 612.449219 249.082031 L 592.566406 282.871094 L 546.582031 288.707031 Z M 614.410156 248.914062 L 655.609375 250.492188 L 631.777344 283.121094 L 594.417969 282.84375 Z M 632.328125 284.722656 L 658.957031 289.5625 L 628.898438 306.679688 L 605.425781 304.105469 Z M 629.09375 308.335938 L 639.988281 311.546875 L 611.699219 311.628906 L 608.105469 311.046875 C 608.050781 311.046875 607.996094 311.046875 607.941406 311.046875 L 604.015625 310.410156 Z M 612.308594 313.5625 L 616.097656 315.113281 L 615.515625 315.527344 Z M 607.636719 312.566406 C 607.664062 312.566406 607.691406 312.597656 607.71875 312.597656 L 612.640625 315.609375 L 605.726562 315.472656 L 599.394531 311.242188 Z M 617.839844 314.144531 L 615.488281 313.175781 L 645.046875 313.066406 L 649.25 316.164062 Z M 651.988281 316.246094 L 646.816406 312.457031 L 679.058594 297.832031 L 684.78125 303.914062 Z M 686.222656 303.195312 L 680.332031 296.917969 L 708.3125 269.15625 L 714.507812 277.230469 Z M 708.066406 266.886719 L 689.925781 257.210938 L 708.066406 219.300781 L 727.117188 230.472656 Z M 727.558594 228.894531 L 708.5625 217.753906 L 715.144531 179.097656 L 734.472656 190.101562 Z M 708.894531 142.320312 L 692.164062 119.949219 L 709.199219 125.867188 L 726.589844 150.808594 Z M 680.523438 112.125 L 696.453125 119.757812 L 696.617188 119.839844 L 690.257812 117.628906 C 690.230469 117.628906 690.203125 117.601562 690.148438 117.601562 L 690.066406 117.570312 L 671.234375 110.246094 Z M 662.359375 108.503906 L 682.238281 116.21875 L 658.210938 112.042969 C 658.15625 112.042969 658.128906 112.042969 658.070312 112.042969 L 658.015625 112.042969 L 640.429688 106.789062 Z M 657.628906 113.617188 L 672.949219 133.5 L 628.984375 131.066406 L 616.125 113.121094 Z M 627.214844 131.203125 L 572.4375 137.8125 L 562.675781 120.363281 L 614.273438 113.175781 Z M 548.683594 114.144531 L 555.957031 107.894531 L 577.46875 109.304688 Z M 516.71875 103.941406 L 477.648438 101.589844 L 483.34375 99.15625 L 525.042969 102.445312 Z M 429.230469 98.90625 L 384.738281 97.46875 L 382.667969 91.550781 L 431.5 94.898438 Z M 330.570312 90.335938 L 337.707031 98.328125 L 296.808594 102.308594 L 284.726562 93.183594 Z M 237.855469 102.199219 L 255.359375 111.792969 L 222.59375 124.984375 L 200.804688 116.742188 Z M 143.125 144.644531 L 163.945312 139.96875 L 141.4375 164.910156 L 118.128906 172.542969 L 142.765625 145.03125 Z M 116.191406 174.808594 L 140.332031 166.929688 L 126.394531 194.109375 L 100.484375 205.667969 Z M 99.65625 265.421875 L 117.242188 279.25 L 99.851562 300.816406 L 81.460938 285.96875 Z M 100.515625 302.753906 L 131.566406 305.378906 L 126.285156 326.171875 L 94.679688 322.328125 Z M 177.496094 342.847656 L 190.824219 359.878906 L 150.589844 362.148438 L 134.941406 347.546875 Z M 213.746094 371.078125 L 194.695312 360.902344 L 244.160156 351.222656 L 258.871094 364.304688 Z M 245.957031 350.753906 L 303.695312 334.550781 L 313.234375 351.804688 L 260.890625 363.972656 Z M 545.613281 290.476562 L 590.601562 284.75 L 568.539062 304.796875 L 529.023438 309.96875 Z M 593.3125 284.472656 L 629.617188 284.722656 L 603.019531 303.886719 L 571.054688 304.714844 Z M 603.324219 305.460938 L 620.882812 307.371094 L 597.210938 309.304688 C 597.183594 309.304688 597.15625 309.304688 597.101562 309.332031 L 596.492188 309.304688 C 596.328125 309.25 596.160156 309.25 595.996094 309.277344 L 582.695312 308.808594 Z M 617.671875 315.941406 L 617.949219 315.75 L 650.109375 317.820312 L 648.53125 319.480469 Z M 652.292969 317.820312 L 683.703125 306.042969 L 681.769531 308.335938 L 651.601562 318.570312 Z M 715.449219 275.875 L 709.335938 267.855469 L 728.277344 231.605469 L 734.5 240.203125 Z M 728.96875 229.917969 L 735.828125 191.539062 L 741.828125 199.058594 L 734.96875 238.1875 Z M 731.734375 154.488281 L 729.523438 152.300781 L 712.710938 128.191406 L 716.359375 130.652344 Z M 599.535156 107.8125 L 633.128906 106.234375 L 652.347656 111.957031 L 614.660156 111.488281 C 614.605469 111.488281 614.578125 111.488281 614.550781 111.488281 L 614.523438 111.488281 L 599.3125 107.785156 Z M 584.1875 108.171875 C 584.160156 108.171875 584.132812 108.171875 584.105469 108.144531 L 565.691406 106.925781 L 574.953125 106.070312 L 575.230469 106.097656 L 590.078125 107.175781 Z M 222.125 104.160156 L 231.582031 102.945312 L 198.480469 115.941406 L 186.066406 117.792969 Z M 99.019531 192.453125 L 99.546875 191.871094 L 112.597656 178.40625 L 98.21875 206.71875 C 98.21875 206.71875 98.191406 206.71875 98.191406 206.746094 L 83.507812 221.871094 Z M 74.660156 250.601562 L 75.15625 248.667969 L 73.167969 259.144531 C 73.140625 259.171875 73.140625 259.230469 73.113281 259.257812 L 72.117188 262.628906 Z M 68.160156 281.820312 L 73.832031 262.546875 L 79.554688 285.996094 L 73.886719 304.328125 Z M 80.742188 287.378906 L 99.074219 302.199219 L 93.269531 321.75 L 74.660156 306.984375 Z M 93.019531 323.519531 L 98.882812 339.609375 L 81.628906 326.53125 L 75.488281 309.582031 Z M 103.222656 343.039062 L 132.808594 347.710938 L 147.824219 361.730469 L 119.703125 356.476562 Z M 129.242188 359.851562 L 150.066406 363.722656 C 150.09375 363.722656 150.121094 363.722656 150.148438 363.722656 L 166.574219 370.054688 L 147.4375 366.238281 Z M 204.648438 373.011719 L 202.519531 372.929688 L 213.605469 372.710938 L 217.257812 372.984375 Z M 238.246094 372.957031 L 236.945312 372.957031 L 220.628906 371.6875 L 260.640625 365.6875 L 274.355469 368.5625 Z M 527.28125 311.820312 C 527.335938 311.792969 527.363281 311.792969 527.421875 311.765625 L 553.714844 308.335938 L 545.007812 310.382812 C 544.980469 310.382812 544.980469 310.382812 544.949219 310.382812 L 520.257812 313.8125 Z M 569.035156 306.429688 C 569.117188 306.402344 569.171875 306.375 569.257812 306.347656 L 591.738281 305.765625 L 574.8125 308.53125 C 574.757812 308.53125 574.730469 308.558594 574.675781 308.558594 L 554.824219 309.777344 Z M 574.730469 310.078125 C 574.785156 310.078125 574.84375 310.105469 574.898438 310.105469 C 574.925781 310.105469 574.980469 310.105469 574.980469 310.105469 L 575.089844 310.078125 L 581.671875 310.328125 L 585.019531 312.761719 L 570.859375 310.328125 Z M 574.730469 310.078125 " fill-opacity="1" fill-rule="nonzero"/></g><g fill="#040404" fill-opacity="1"><g transform="translate(202.034963, 693.956319)"><g><path d="M 16.171875 0 L 9.515625 0 L 9.515625 -61.84375 L 16.171875 -61.84375 L 16.171875 -34.25 L 34.921875 -34.25 L 34.921875 -61.84375 L 41.578125 -61.84375 L 41.578125 0 L 34.921875 0 L 34.921875 -28.546875 L 16.171875 -28.546875 Z M 16.171875 0 "/></g></g></g><g fill="#040404" fill-opacity="1"><g transform="translate(329.264583, 693.956319)"><g><path d="M 40.4375 -49.953125 L 40.4375 -11.890625 C 40.4375 -7.640625 39.085938 -4.359375 36.390625 -2.046875 C 33.703125 0.265625 29.675781 1.421875 24.3125 1.421875 C 18.945312 1.421875 14.898438 0.265625 12.171875 -2.046875 C 9.453125 -4.359375 8.09375 -7.640625 8.09375 -11.890625 L 8.09375 -49.953125 C 8.09375 -54.203125 9.4375 -57.484375 12.125 -59.796875 C 14.820312 -62.117188 18.851562 -63.28125 24.21875 -63.28125 C 29.582031 -63.28125 33.625 -62.117188 36.34375 -59.796875 C 39.070312 -57.484375 40.4375 -54.203125 40.4375 -49.953125 Z M 33.78125 -11.890625 L 33.78125 -49.953125 C 33.78125 -55.023438 30.609375 -57.5625 24.265625 -57.5625 C 17.921875 -57.5625 14.75 -55.023438 14.75 -49.953125 L 14.75 -11.890625 C 14.75 -6.816406 17.921875 -4.28125 24.265625 -4.28125 C 30.609375 -4.28125 33.78125 -6.816406 33.78125 -11.890625 Z M 33.78125 -11.890625 "/></g></g></g><g fill="#040404" fill-opacity="1"><g transform="translate(453.924862, 693.956319)"><g><path d="M 9.515625 0 L 9.515625 -61.84375 L 16.171875 -61.84375 L 16.171875 -5.703125 L 33.59375 -5.703125 L 33.59375 0 Z M 9.515625 0 "/></g></g></g><g fill="#040404" fill-opacity="1"><g transform="translate(565.548156, 693.956319)"><g><path d="M 32.828125 -11.890625 L 32.828125 -17.125 L 39.484375 -17.125 L 39.484375 -11.890625 C 39.484375 -7.640625 38.179688 -4.359375 35.578125 -2.046875 C 32.984375 0.265625 29.082031 1.421875 23.875 1.421875 C 18.675781 1.421875 14.742188 0.265625 12.078125 -2.046875 C 9.421875 -4.359375 8.09375 -7.640625 8.09375 -11.890625 L 8.09375 -49.953125 C 8.09375 -54.203125 9.390625 -57.484375 11.984375 -59.796875 C 14.585938 -62.117188 18.488281 -63.28125 23.6875 -63.28125 C 28.894531 -63.28125 32.828125 -62.117188 35.484375 -59.796875 C 38.148438 -57.484375 39.484375 -54.203125 39.484375 -49.953125 L 39.484375 -29.015625 L 14.75 -29.015625 L 14.75 -11.890625 C 14.75 -6.816406 17.757812 -4.28125 23.78125 -4.28125 C 29.8125 -4.28125 32.828125 -6.816406 32.828125 -11.890625 Z M 14.75 -49.953125 L 14.75 -34.734375 L 32.828125 -34.734375 L 32.828125 -49.953125 C 32.828125 -55.023438 29.8125 -57.5625 23.78125 -57.5625 C 17.757812 -57.5625 14.75 -55.023438 14.75 -49.953125 Z M 14.75 -49.953125 "/></g></g></g><g fill="#040404" fill-opacity="1"><g transform="translate(27.778869, 578.670172)"><g><path d="M 106.40625 -83.578125 C 111.84375 -82.078125 116.722656 -79.539062 121.046875 -75.96875 C 125.378906 -72.394531 128.804688 -68.066406 131.328125 -62.984375 C 133.847656 -57.898438 135.109375 -52.34375 135.109375 -46.3125 C 135.109375 -39.820312 133.78125 -33.773438 131.125 -28.171875 C 128.46875 -22.566406 124.78125 -17.648438 120.0625 -13.421875 C 115.34375 -9.191406 109.851562 -5.894531 103.59375 -3.53125 C 97.332031 -1.175781 90.566406 0 83.296875 0 L 21.140625 0 C 18.910156 0 17.796875 -1.113281 17.796875 -3.34375 L 17.796875 -146.125 C 17.796875 -148.289062 18.910156 -149.375 21.140625 -149.375 L 78.96875 -149.375 C 85.320312 -149.375 91.25 -148.40625 96.75 -146.46875 C 102.257812 -144.53125 107.097656 -141.84375 111.265625 -138.40625 C 115.429688 -134.96875 118.675781 -130.953125 121 -126.359375 C 123.332031 -121.773438 124.5 -116.828125 124.5 -111.515625 C 124.5 -107.453125 123.726562 -103.582031 122.1875 -99.90625 C 120.644531 -96.238281 118.507812 -92.992188 115.78125 -90.171875 C 113.0625 -87.347656 109.9375 -85.148438 106.40625 -83.578125 Z M 98.140625 -107.484375 C 98.140625 -110.691406 97.285156 -113.554688 95.578125 -116.078125 C 93.878906 -118.609375 91.585938 -120.625 88.703125 -122.125 C 85.816406 -123.632812 82.570312 -124.390625 78.96875 -124.390625 L 45.53125 -124.390625 L 45.53125 -91.65625 L 78.96875 -91.65625 C 82.570312 -91.65625 85.816406 -92.289062 88.703125 -93.5625 C 91.585938 -94.84375 93.878906 -96.660156 95.578125 -99.015625 C 97.285156 -101.378906 98.140625 -104.203125 98.140625 -107.484375 Z M 82.703125 -25.078125 C 87.285156 -25.078125 91.445312 -26.09375 95.1875 -28.125 C 98.925781 -30.15625 101.890625 -32.90625 104.078125 -36.375 C 106.273438 -39.851562 107.375 -43.757812 107.375 -48.09375 C 107.375 -52.613281 106.273438 -56.410156 104.078125 -59.484375 C 101.890625 -62.566406 98.925781 -64.910156 95.1875 -66.515625 C 91.445312 -68.128906 87.285156 -68.9375 82.703125 -68.9375 L 45.53125 -68.9375 L 45.53125 -25.078125 Z M 82.703125 -25.078125 "/></g></g></g><g fill="#040404" fill-opacity="1"><g transform="translate(182.501105, 578.670172)"><g><path d="M 113.078125 -24.390625 C 115.242188 -24.390625 116.328125 -23.273438 116.328125 -21.046875 L 116.328125 -3.34375 C 116.328125 -1.113281 115.242188 0 113.078125 0 L 21.140625 0 C 18.910156 0 17.796875 -1.113281 17.796875 -3.34375 L 17.796875 -146.21875 C 17.796875 -148.445312 18.910156 -149.5625 21.140625 -149.5625 L 42.375 -149.5625 C 44.539062 -149.5625 45.625 -148.445312 45.625 -146.21875 L 45.625 -24.390625 Z M 113.078125 -24.390625 "/></g></g></g><g fill="#040404" fill-opacity="1"><g transform="translate(313.330125, 578.670172)"><g><path d="M 144.65625 -4.8125 C 145.3125 -3.375 145.34375 -2.175781 144.75 -1.21875 C 144.15625 -0.269531 143.039062 0.203125 141.40625 0.203125 L 120.265625 0.203125 C 119.148438 0.203125 118.148438 -0.171875 117.265625 -0.921875 C 116.378906 -1.679688 115.707031 -2.585938 115.25 -3.640625 L 109.25 -18.1875 L 40.609375 -18.1875 L 34.609375 -3.734375 C 34.148438 -2.679688 33.492188 -1.78125 32.640625 -1.03125 C 31.796875 -0.28125 30.75 0.09375 29.5 0.09375 L 8.453125 0.09375 C 6.816406 0.09375 5.6875 -0.363281 5.0625 -1.28125 C 4.4375 -2.195312 4.453125 -3.410156 5.109375 -4.921875 L 68.734375 -147.5 C 69.253906 -148.675781 70.023438 -149.609375 71.046875 -150.296875 C 72.066406 -150.992188 73.097656 -151.34375 74.140625 -151.34375 L 75.421875 -151.34375 C 76.597656 -151.34375 77.660156 -150.976562 78.609375 -150.25 C 79.566406 -149.53125 80.304688 -148.582031 80.828125 -147.40625 Z M 50.34375 -41.984375 L 99.421875 -41.984375 L 74.9375 -101.484375 Z M 50.34375 -41.984375 "/></g></g></g><g fill="#040404" fill-opacity="1"><g transform="translate(473.75528, 578.670172)"><g><path d="M 116.53125 -35.890625 C 117.769531 -36.804688 119.03125 -37.234375 120.3125 -37.171875 C 121.59375 -37.109375 122.5625 -36.617188 123.21875 -35.703125 L 134.421875 -18.578125 C 134.953125 -17.859375 135.019531 -16.941406 134.625 -15.828125 C 134.226562 -14.710938 133.472656 -13.765625 132.359375 -12.984375 C 128.421875 -9.898438 123.910156 -7.207031 118.828125 -4.90625 C 113.753906 -2.613281 108.476562 -0.832031 103 0.4375 C 97.53125 1.71875 92.238281 2.359375 87.125 2.359375 C 78.40625 2.359375 70.113281 1.097656 62.25 -1.421875 C 54.382812 -3.953125 47.203125 -7.539062 40.703125 -12.1875 C 34.210938 -16.84375 28.59375 -22.363281 23.84375 -28.75 C 19.09375 -35.144531 15.40625 -42.210938 12.78125 -49.953125 C 10.15625 -57.691406 8.84375 -65.882812 8.84375 -74.53125 C 8.84375 -83.1875 10.15625 -91.378906 12.78125 -99.109375 C 15.40625 -106.847656 19.09375 -113.929688 23.84375 -120.359375 C 28.59375 -126.785156 34.210938 -132.328125 40.703125 -136.984375 C 47.203125 -141.640625 54.382812 -145.242188 62.25 -147.796875 C 70.113281 -150.359375 78.40625 -151.640625 87.125 -151.640625 C 92.101562 -151.640625 97.347656 -151.015625 102.859375 -149.765625 C 108.367188 -148.515625 113.742188 -146.726562 118.984375 -144.40625 C 124.234375 -142.082031 128.890625 -139.28125 132.953125 -136 C 134.191406 -135.082031 134.878906 -134.097656 135.015625 -133.046875 C 135.148438 -131.992188 134.953125 -131.078125 134.421875 -130.296875 L 123.21875 -113.375 C 122.6875 -112.53125 121.8125 -112.023438 120.59375 -111.859375 C 119.382812 -111.691406 118.128906 -112.132812 116.828125 -113.1875 C 112.691406 -116.726562 107.96875 -119.414062 102.65625 -121.25 C 97.351562 -123.082031 92.175781 -124 87.125 -124 C 80.113281 -124 73.539062 -122.734375 67.40625 -120.203125 C 61.28125 -117.679688 55.90625 -114.160156 51.28125 -109.640625 C 46.65625 -105.117188 43.046875 -99.859375 40.453125 -93.859375 C 37.867188 -87.859375 36.578125 -81.414062 36.578125 -74.53125 C 36.578125 -67.65625 37.890625 -61.234375 40.515625 -55.265625 C 43.140625 -49.296875 46.757812 -44.066406 51.375 -39.578125 C 56 -35.085938 61.359375 -31.597656 67.453125 -29.109375 C 73.554688 -26.617188 80.113281 -25.375 87.125 -25.375 C 91.976562 -25.375 97.054688 -26.289062 102.359375 -28.125 C 107.671875 -29.957031 112.394531 -32.546875 116.53125 -35.890625 Z M 116.53125 -35.890625 "/></g></g></g><g fill="#040404" fill-opacity="1"><g transform="translate(629.264116, 578.670172)"><g><path d="M 148.984375 -5.21875 C 149.828125 -3.769531 150.035156 -2.503906 149.609375 -1.421875 C 149.191406 -0.335938 148.226562 0.203125 146.71875 0.203125 L 122.921875 0.203125 C 121.210938 0.203125 119.769531 -0.550781 118.59375 -2.0625 L 71.6875 -82.890625 L 45.625 -57.328125 L 45.625 -3.140625 C 45.625 -0.984375 44.539062 0.09375 42.375 0.09375 L 21.140625 0.09375 C 18.910156 0.09375 17.796875 -0.984375 17.796875 -3.140625 L 17.796875 -146.21875 C 17.796875 -148.445312 18.910156 -149.5625 21.140625 -149.5625 L 42.375 -149.5625 C 44.539062 -149.5625 45.625 -148.445312 45.625 -146.21875 L 45.625 -92.625 L 101.28125 -146.421875 C 102.394531 -147.597656 103.410156 -148.382812 104.328125 -148.78125 C 105.242188 -149.175781 106.359375 -149.375 107.671875 -149.375 L 131.96875 -149.375 C 133.601562 -149.375 134.617188 -148.71875 135.015625 -147.40625 C 135.410156 -146.09375 135.015625 -144.878906 133.828125 -143.765625 L 91.75 -102.46875 Z M 148.984375 -5.21875 "/></g></g></g></svg>