<svg xmlns="http://www.w3.org/2000/svg" xmlns:xlink="http://www.w3.org/1999/xlink" width="1080" zoomAndPan="magnify" viewBox="0 0 810 809.999993" height="1080" preserveAspectRatio="xMidYMid meet" version="1.0"><defs><g/></defs><g fill="#000000" fill-opacity="1"><g transform="translate(130.179088, 452.293192)"><g><path d="M 176.59375 -207.546875 C 199.007812 -206.117188 218.84375 -202.113281 236.09375 -195.53125 C 253.34375 -188.957031 266.859375 -178.46875 276.640625 -164.0625 C 286.421875 -149.65625 291.3125 -129.828125 291.3125 -104.578125 C 291.3125 -76.117188 284.816406 -54.332031 271.828125 -39.21875 C 258.847656 -24.101562 241.332031 -13.875 219.28125 -8.53125 C 197.226562 -3.195312 172.507812 -0.351562 145.125 0 L 18.671875 0 L 18.671875 -376.671875 L 110.96875 -376.671875 C 137.644531 -376.671875 161.921875 -373.820312 183.796875 -368.125 C 205.671875 -362.4375 223.007812 -353.367188 235.8125 -340.921875 C 248.625 -328.472656 255.03125 -311.9375 255.03125 -291.3125 C 255.03125 -267.476562 247.378906 -248.710938 232.078125 -235.015625 C 216.785156 -221.328125 198.289062 -212.171875 176.59375 -207.546875 Z M 249.6875 -104.578125 C 249.6875 -128.398438 246.484375 -147.066406 240.078125 -160.578125 C 233.679688 -174.097656 225.234375 -184.0625 214.734375 -190.46875 C 204.242188 -196.875 192.953125 -200.875 180.859375 -202.46875 C 168.773438 -204.070312 156.863281 -204.875 145.125 -204.875 C 132.675781 -204.875 120.847656 -208.34375 109.640625 -215.28125 C 98.429688 -222.21875 88.914062 -231.734375 81.09375 -243.828125 C 76.46875 -250.941406 72.46875 -259.03125 69.09375 -268.09375 C 65.71875 -277.164062 62.960938 -286.859375 60.828125 -297.171875 L 60.828125 -4.265625 L 140.859375 -4.265625 C 152.953125 -4.265625 165.3125 -5.0625 177.9375 -6.65625 C 190.5625 -8.257812 202.296875 -12.175781 213.140625 -18.40625 C 223.992188 -24.632812 232.796875 -34.59375 239.546875 -48.28125 C 246.304688 -61.976562 249.6875 -80.742188 249.6875 -104.578125 Z M 213.40625 -291.3125 C 213.40625 -311.582031 208.425781 -327.675781 198.46875 -339.59375 C 188.507812 -351.507812 175.703125 -360.046875 160.046875 -365.203125 C 144.398438 -370.359375 128.039062 -372.9375 110.96875 -372.9375 L 60.828125 -372.9375 L 60.828125 -337.71875 C 60.828125 -319.226562 62.957031 -302.242188 67.21875 -286.765625 C 71.488281 -271.296875 77.535156 -257.867188 85.359375 -246.484375 C 101.015625 -221.585938 120.9375 -209.140625 145.125 -209.140625 C 157.21875 -209.140625 168.421875 -211.984375 178.734375 -217.671875 C 189.046875 -223.367188 197.398438 -232.265625 203.796875 -244.359375 C 210.203125 -256.453125 213.40625 -272.101562 213.40625 -291.3125 Z M 213.40625 -291.3125 "/></g></g></g><g fill="#000000" fill-opacity="1"><g transform="translate(358.433329, 622.752797)"><g><path d="M 45.890625 -285.96875 C 45.890625 -305.882812 50.6875 -322.421875 60.28125 -335.578125 C 69.882812 -348.742188 82.421875 -358.972656 97.890625 -366.265625 C 113.367188 -373.554688 130.351562 -378.003906 148.84375 -379.609375 C 167.34375 -381.210938 185.660156 -380.234375 203.796875 -376.671875 C 221.941406 -373.117188 238.394531 -367.25 253.15625 -359.0625 C 267.914062 -350.882812 279.03125 -340.570312 286.5 -328.125 L 286.5 -272.09375 C 272.988281 -299.488281 257.335938 -320.832031 239.546875 -336.125 C 221.765625 -351.414062 203.445312 -361.816406 184.59375 -367.328125 C 165.75 -372.847656 147.789062 -374.363281 130.71875 -371.875 C 113.644531 -369.382812 98.882812 -363.867188 86.4375 -355.328125 C 76.113281 -348.566406 69.082031 -340.03125 65.34375 -329.71875 C 61.613281 -319.40625 62.679688 -307.753906 68.546875 -294.765625 C 74.421875 -281.785156 86.25 -268.003906 104.03125 -253.421875 C 121.820312 -238.835938 146.898438 -223.898438 179.265625 -208.609375 C 198.828125 -200.429688 217.234375 -191.179688 234.484375 -180.859375 C 251.734375 -170.546875 265.78125 -158.097656 276.625 -143.515625 C 287.476562 -128.929688 292.90625 -111.148438 292.90625 -90.171875 C 292.90625 -75.941406 290.148438 -63.222656 284.640625 -52.015625 C 279.128906 -40.816406 271.570312 -31.300781 261.96875 -23.46875 C 246.664062 -11.738281 228.34375 -4.269531 207 -1.0625 C 185.664062 2.132812 163.347656 1.421875 140.046875 -3.203125 C 116.753906 -7.828125 94.4375 -16.273438 73.09375 -28.546875 C 51.75 -40.816406 33.609375 -56.554688 18.671875 -75.765625 L 18.671875 -149.921875 C 31.835938 -116.835938 48.378906 -89.269531 68.296875 -67.21875 C 88.210938 -45.164062 109.640625 -28.804688 132.578125 -18.140625 C 155.523438 -7.472656 177.9375 -2.847656 199.8125 -4.265625 C 221.6875 -5.691406 240.984375 -13.519531 257.703125 -27.75 C 266.585938 -35.21875 272.1875 -44.019531 274.5 -54.15625 C 276.8125 -64.289062 274.675781 -75.582031 268.09375 -88.03125 C 261.519531 -100.476562 249.425781 -113.546875 231.8125 -127.234375 C 214.207031 -140.929688 189.9375 -154.894531 159 -169.125 C 139.789062 -177.664062 121.554688 -187.09375 104.296875 -197.40625 C 87.046875 -207.71875 73 -219.988281 62.15625 -234.21875 C 51.3125 -248.445312 45.890625 -265.695312 45.890625 -285.96875 Z M 45.890625 -285.96875 "/></g></g></g><g fill="#000000" fill-opacity="1"><g transform="translate(18.063576, 784.850733)"><g><path d="M 4.828125 0 C 5.878906 -1.050781 6.578125 -2.632812 6.921875 -4.75 C 7.265625 -6.863281 7.421875 -9.238281 7.390625 -11.875 C 7.367188 -14.507812 7.359375 -17.144531 7.359375 -19.78125 L 7.359375 -71 C 7.359375 -71.101562 7.410156 -71.234375 7.515625 -71.390625 C 7.617188 -71.554688 7.804688 -71.640625 8.078125 -71.640625 C 8.285156 -71.640625 8.46875 -71.570312 8.625 -71.4375 C 8.78125 -71.300781 8.882812 -71.179688 8.9375 -71.078125 C 9.363281 -70.503906 9.707031 -70.019531 9.96875 -69.625 C 10.238281 -69.226562 10.554688 -68.765625 10.921875 -68.234375 C 12.929688 -65.328125 15.210938 -62.488281 17.765625 -59.71875 C 20.328125 -56.945312 23.253906 -54.054688 26.546875 -51.046875 C 29.847656 -48.046875 33.597656 -44.765625 37.796875 -41.203125 C 41.992188 -37.640625 46.726562 -33.613281 52 -29.125 C 55.4375 -26.226562 57.878906 -23.429688 59.328125 -20.734375 C 60.773438 -18.046875 61.5 -15.488281 61.5 -13.0625 C 61.5 -10.476562 60.835938 -8.207031 59.515625 -6.25 C 58.203125 -4.300781 56.410156 -2.769531 54.140625 -1.65625 C 51.867188 -0.550781 49.3125 0 46.46875 0 Z M 12.90625 -2.0625 L 44.25 -2.0625 C 47.414062 -2.0625 50.09375 -2.992188 52.28125 -4.859375 C 54.46875 -6.734375 55.5625 -9.519531 55.5625 -13.21875 C 55.5625 -16.332031 54.691406 -19.351562 52.953125 -22.28125 C 51.210938 -25.207031 48.851562 -28.132812 45.875 -31.0625 C 42.894531 -34 39.554688 -37.035156 35.859375 -40.171875 C 32.160156 -43.304688 28.332031 -46.65625 24.375 -50.21875 C 20.414062 -53.78125 16.59375 -57.675781 12.90625 -61.90625 Z M 44.015625 -79.15625 C 49.179688 -79.15625 52.976562 -78.148438 55.40625 -76.140625 C 57.832031 -74.140625 59.046875 -71.476562 59.046875 -68.15625 C 59.046875 -65.300781 58.53125 -62.582031 57.5 -60 C 56.476562 -57.414062 55.082031 -55 53.3125 -52.75 C 51.539062 -50.507812 49.570312 -48.503906 47.40625 -46.734375 C 45.25 -44.972656 43.0625 -43.507812 40.84375 -42.34375 L 40.375 -42.90625 C 44.164062 -45.695312 46.957031 -48.570312 48.75 -51.53125 C 50.550781 -54.488281 51.710938 -57.378906 52.234375 -60.203125 C 52.765625 -63.023438 53.03125 -65.570312 53.03125 -67.84375 C 53.03125 -70.582031 52.171875 -72.820312 50.453125 -74.5625 C 48.742188 -76.300781 46.253906 -77.171875 42.984375 -77.171875 L 26.28125 -77.171875 C 18.625 -77.171875 12.738281 -76.722656 8.625 -75.828125 C 4.507812 -74.929688 1.632812 -73.984375 0 -72.984375 L 0 -79.15625 Z M 44.015625 -79.15625 "/></g></g></g><g fill="#000000" fill-opacity="1"><g transform="translate(91.124345, 784.850733)"><g><path d="M 3.953125 -27 C 3.953125 -30.320312 4.476562 -33.550781 5.53125 -36.6875 C 6.59375 -39.832031 8.191406 -42.671875 10.328125 -45.203125 C 12.460938 -47.734375 15.191406 -49.738281 18.515625 -51.21875 C 21.847656 -52.695312 25.753906 -53.4375 30.234375 -53.4375 C 34.515625 -53.4375 38.351562 -52.523438 41.75 -50.703125 C 45.15625 -48.878906 47.847656 -46.421875 49.828125 -43.328125 C 51.804688 -40.242188 52.796875 -36.75 52.796875 -32.84375 C 52.796875 -32 52.742188 -31.085938 52.640625 -30.109375 C 52.535156 -29.140625 52.347656 -28.3125 52.078125 -27.625 C 51.816406 -26.9375 51.476562 -26.59375 51.0625 -26.59375 L 9.96875 -26.59375 C 10.019531 -22 10.640625 -18.132812 11.828125 -15 C 13.015625 -11.863281 14.609375 -9.34375 16.609375 -7.4375 C 18.617188 -5.539062 20.851562 -4.171875 23.3125 -3.328125 C 25.769531 -2.484375 28.265625 -2.0625 30.796875 -2.0625 C 33.585938 -2.0625 36.273438 -2.484375 38.859375 -3.328125 C 41.453125 -4.171875 43.679688 -5.300781 45.546875 -6.71875 C 47.421875 -8.144531 48.675781 -9.707031 49.3125 -11.40625 L 51.453125 -10.609375 C 49.285156 -7.234375 46.40625 -4.488281 42.8125 -2.375 C 39.226562 -0.257812 34.984375 0.796875 30.078125 0.796875 C 25.910156 0.796875 22.203125 0.0195312 18.953125 -1.53125 C 15.710938 -3.09375 12.96875 -5.207031 10.71875 -7.875 C 8.476562 -10.539062 6.789062 -13.519531 5.65625 -16.8125 C 4.519531 -20.113281 3.953125 -23.507812 3.953125 -27 Z M 10.046875 -28.578125 L 47.09375 -28.578125 C 47.09375 -28.578125 47.160156 -29.128906 47.296875 -30.234375 C 47.429688 -31.347656 47.484375 -32.773438 47.453125 -34.515625 C 47.429688 -36.253906 47.164062 -38.085938 46.65625 -40.015625 C 46.15625 -41.941406 45.296875 -43.773438 44.078125 -45.515625 C 42.867188 -47.253906 41.15625 -48.675781 38.9375 -49.78125 C 36.726562 -50.894531 33.851562 -51.453125 30.3125 -51.453125 C 27.195312 -51.453125 24.410156 -50.816406 21.953125 -49.546875 C 19.503906 -48.285156 17.421875 -46.570312 15.703125 -44.40625 C 13.992188 -42.238281 12.664062 -39.796875 11.71875 -37.078125 C 10.769531 -34.367188 10.210938 -31.535156 10.046875 -28.578125 Z M 10.046875 -28.578125 "/></g></g></g><g fill="#000000" fill-opacity="1"><g transform="translate(156.269782, 784.850733)"><g><path d="M 5.296875 -32.84375 C 5.296875 -35.488281 5.304688 -38.128906 5.328125 -40.765625 C 5.359375 -43.398438 5.203125 -45.773438 4.859375 -47.890625 C 4.523438 -50.003906 3.828125 -51.585938 2.765625 -52.640625 L 10.84375 -52.640625 L 10.84375 -9.65625 C 11.6875 -11.1875 12.703125 -13.296875 13.890625 -15.984375 C 15.078125 -18.679688 16.410156 -21.675781 17.890625 -24.96875 C 19.367188 -28.269531 20.988281 -31.582031 22.75 -34.90625 C 24.519531 -38.226562 26.378906 -41.285156 28.328125 -44.078125 C 30.285156 -46.878906 32.34375 -49.140625 34.5 -50.859375 C 36.664062 -52.578125 38.882812 -53.4375 41.15625 -53.4375 C 43.164062 -53.4375 44.644531 -52.851562 45.59375 -51.6875 C 46.539062 -50.53125 47.171875 -48.921875 47.484375 -46.859375 C 47.804688 -44.796875 47.96875 -42.367188 47.96875 -39.578125 L 47.96875 -19.78125 C 47.96875 -17.144531 47.953125 -14.507812 47.921875 -11.875 C 47.898438 -9.238281 48.0625 -6.863281 48.40625 -4.75 C 48.75 -2.632812 49.445312 -1.050781 50.5 0 L 39.890625 0 C 40.953125 -1.050781 41.648438 -2.632812 41.984375 -4.75 C 42.328125 -6.863281 42.484375 -9.238281 42.453125 -11.875 C 42.429688 -14.507812 42.421875 -17.144531 42.421875 -19.78125 L 42.421875 -43.859375 C 42.421875 -43.859375 42.421875 -44.144531 42.421875 -44.71875 C 42.421875 -45.300781 42.316406 -45.960938 42.109375 -46.703125 C 41.898438 -47.441406 41.503906 -48.097656 40.921875 -48.671875 C 40.335938 -49.253906 39.492188 -49.546875 38.390625 -49.546875 C 36.648438 -49.546875 34.878906 -48.632812 33.078125 -46.8125 C 31.285156 -45 29.476562 -42.597656 27.65625 -39.609375 C 25.84375 -36.628906 24.078125 -33.34375 22.359375 -29.75 C 20.640625 -26.164062 18.988281 -22.578125 17.40625 -18.984375 C 15.832031 -15.398438 14.367188 -12.117188 13.015625 -9.140625 C 11.671875 -6.160156 10.5 -3.757812 9.5 -1.9375 C 8.5 -0.113281 7.679688 0.796875 7.046875 0.796875 C 6.359375 0.796875 5.894531 0.492188 5.65625 -0.109375 C 5.414062 -0.722656 5.296875 -1.347656 5.296875 -1.984375 Z M 5.296875 -32.84375 "/></g></g></g><g fill="#000000" fill-opacity="1"><g transform="translate(217.932467, 784.850733)"><g><path d="M 2.765625 31.03125 L 3.09375 29.921875 C 3.09375 29.921875 3.394531 30.007812 4 30.1875 C 4.601562 30.375 5.171875 30.46875 5.703125 30.46875 C 8.441406 30.46875 10.75 29.460938 12.625 27.453125 C 14.5 25.453125 15.9375 22.828125 16.9375 19.578125 C 17.9375 16.335938 18.4375 12.875 18.4375 9.1875 L 18.4375 -32.84375 C 18.4375 -35.488281 18.445312 -38.128906 18.46875 -40.765625 C 18.5 -43.398438 18.34375 -45.773438 18 -47.890625 C 17.664062 -50.003906 16.96875 -51.585938 15.90625 -52.640625 L 23.984375 -52.640625 L 23.984375 9.421875 C 23.984375 10.898438 23.8125 12.601562 23.46875 14.53125 C 23.125 16.457031 22.554688 18.421875 21.765625 20.421875 C 20.972656 22.429688 19.914062 24.289062 18.59375 26 C 17.28125 27.71875 15.6875 29.101562 13.8125 30.15625 C 11.9375 31.207031 9.707031 31.734375 7.125 31.734375 C 6.175781 31.734375 5.332031 31.679688 4.59375 31.578125 C 3.851562 31.472656 3.242188 31.289062 2.765625 31.03125 Z M 20.34375 -69.421875 C 21.613281 -69.421875 22.695312 -68.972656 23.59375 -68.078125 C 24.488281 -67.179688 24.9375 -66.097656 24.9375 -64.828125 C 24.9375 -63.503906 24.488281 -62.394531 23.59375 -61.5 C 22.695312 -60.601562 21.613281 -60.15625 20.34375 -60.15625 C 19.019531 -60.15625 17.910156 -60.601562 17.015625 -61.5 C 16.117188 -62.394531 15.671875 -63.503906 15.671875 -64.828125 C 15.671875 -66.097656 16.117188 -67.179688 17.015625 -68.078125 C 17.910156 -68.972656 19.019531 -69.421875 20.34375 -69.421875 Z M 20.34375 -69.421875 "/></g></g></g><g fill="#000000" fill-opacity="1"><g transform="translate(254.028626, 784.850733)"><g><path d="M 3.953125 -7.515625 C 3.953125 -10.472656 4.613281 -13.21875 5.9375 -15.75 C 7.257812 -18.28125 9.023438 -20.570312 11.234375 -22.625 C 13.453125 -24.6875 15.929688 -26.507812 18.671875 -28.09375 C 21.421875 -29.675781 24.242188 -31.046875 27.140625 -32.203125 C 30.046875 -33.367188 32.832031 -34.296875 35.5 -34.984375 C 38.164062 -35.671875 40.5 -36.117188 42.5 -36.328125 C 42.289062 -38.972656 41.722656 -41.441406 40.796875 -43.734375 C 39.878906 -46.023438 38.40625 -47.882812 36.375 -49.3125 C 34.34375 -50.738281 31.53125 -51.453125 27.9375 -51.453125 C 24.769531 -51.453125 21.773438 -50.859375 18.953125 -49.671875 C 16.128906 -48.484375 13.625 -47.070312 11.4375 -45.4375 C 9.25 -43.800781 7.46875 -42.296875 6.09375 -40.921875 L 6.09375 -47.734375 C 9.84375 -49.578125 13.300781 -51 16.46875 -52 C 19.632812 -53.007812 23.0625 -53.515625 26.75 -53.515625 C 31.65625 -53.515625 35.691406 -52.628906 38.859375 -50.859375 C 42.023438 -49.085938 44.375 -46.6875 45.90625 -43.65625 C 47.4375 -40.625 48.203125 -37.15625 48.203125 -33.25 L 48.203125 -19.875 C 48.203125 -17.226562 48.1875 -14.585938 48.15625 -11.953125 C 48.132812 -9.316406 48.296875 -6.941406 48.640625 -4.828125 C 48.984375 -2.710938 49.679688 -1.128906 50.734375 -0.078125 L 19 -0.078125 C 16.78125 -0.078125 14.757812 -0.0625 12.9375 -0.03125 C 11.125 -0.0078125 9.539062 -0.171875 8.1875 -0.515625 C 6.84375 -0.859375 5.800781 -1.554688 5.0625 -2.609375 C 4.320312 -3.660156 3.953125 -5.296875 3.953125 -7.515625 Z M 42.671875 -34.28125 C 40.296875 -34.007812 37.65625 -33.4375 34.75 -32.5625 C 31.84375 -31.695312 28.9375 -30.550781 26.03125 -29.125 C 23.132812 -27.707031 20.457031 -26.046875 18 -24.140625 C 15.550781 -22.242188 13.585938 -20.160156 12.109375 -17.890625 C 10.628906 -15.617188 9.890625 -13.164062 9.890625 -10.53125 C 9.890625 -5.519531 12.210938 -3.015625 16.859375 -3.015625 L 42.671875 -3.015625 L 42.671875 -31.734375 C 42.671875 -32.160156 42.671875 -32.582031 42.671875 -33 C 42.671875 -33.425781 42.671875 -33.851562 42.671875 -34.28125 Z M 42.671875 -34.28125 "/></g></g></g><g fill="#000000" fill-opacity="1"><g transform="translate(315.928767, 784.850733)"><g><path d="M 5.296875 -32.84375 C 5.296875 -35.488281 5.304688 -38.128906 5.328125 -40.765625 C 5.359375 -43.398438 5.203125 -45.773438 4.859375 -47.890625 C 4.523438 -50.003906 3.828125 -51.585938 2.765625 -52.640625 L 10.84375 -52.640625 L 10.84375 -10.296875 C 12.476562 -13.984375 14.085938 -17.816406 15.671875 -21.796875 C 17.253906 -25.785156 18.835938 -29.65625 20.421875 -33.40625 C 22.003906 -37.15625 23.648438 -40.53125 25.359375 -43.53125 C 27.078125 -46.539062 28.925781 -48.941406 30.90625 -50.734375 C 32.882812 -52.535156 35.007812 -53.4375 37.28125 -53.4375 C 39.019531 -53.4375 40.3125 -52.957031 41.15625 -52 C 42 -51.050781 42.566406 -49.8125 42.859375 -48.28125 C 43.148438 -46.75 43.296875 -45.085938 43.296875 -43.296875 L 43.296875 -10.296875 C 44.929688 -13.984375 46.539062 -17.816406 48.125 -21.796875 C 49.707031 -25.785156 51.289062 -29.65625 52.875 -33.40625 C 54.457031 -37.15625 56.101562 -40.53125 57.8125 -43.53125 C 59.53125 -46.539062 61.378906 -48.941406 63.359375 -50.734375 C 65.335938 -52.535156 67.460938 -53.4375 69.734375 -53.4375 C 71.472656 -53.4375 72.765625 -52.957031 73.609375 -52 C 74.453125 -51.050781 75.019531 -49.8125 75.3125 -48.28125 C 75.601562 -46.75 75.75 -45.085938 75.75 -43.296875 L 75.75 -19.78125 C 75.75 -17.144531 75.734375 -14.507812 75.703125 -11.875 C 75.679688 -9.238281 75.84375 -6.863281 76.1875 -4.75 C 76.53125 -2.632812 77.226562 -1.050781 78.28125 0 L 67.671875 0 C 68.734375 -1.050781 69.4375 -2.632812 69.78125 -4.75 C 70.125 -6.863281 70.28125 -9.238281 70.25 -11.875 C 70.226562 -14.507812 70.21875 -17.144531 70.21875 -19.78125 L 70.21875 -45.515625 C 70.21875 -45.515625 70.1875 -45.84375 70.125 -46.5 C 70.070312 -47.164062 69.832031 -47.835938 69.40625 -48.515625 C 68.988281 -49.203125 68.253906 -49.546875 67.203125 -49.546875 C 65.671875 -49.546875 64.125 -48.632812 62.5625 -46.8125 C 61.007812 -45 59.46875 -42.597656 57.9375 -39.609375 C 56.40625 -36.628906 54.898438 -33.34375 53.421875 -29.75 C 51.953125 -26.164062 50.53125 -22.578125 49.15625 -18.984375 C 47.78125 -15.398438 46.484375 -12.117188 45.265625 -9.140625 C 44.054688 -6.160156 42.953125 -3.757812 41.953125 -1.9375 C 40.953125 -0.113281 40.054688 0.796875 39.265625 0.796875 C 38.628906 0.796875 38.21875 0.492188 38.03125 -0.109375 C 37.84375 -0.722656 37.75 -1.347656 37.75 -1.984375 L 37.75 -45.515625 C 37.75 -45.515625 37.722656 -45.84375 37.671875 -46.5 C 37.617188 -47.164062 37.378906 -47.835938 36.953125 -48.515625 C 36.535156 -49.203125 35.800781 -49.546875 34.75 -49.546875 C 33.21875 -49.546875 31.671875 -48.632812 30.109375 -46.8125 C 28.554688 -45 27.015625 -42.597656 25.484375 -39.609375 C 23.953125 -36.628906 22.445312 -33.34375 20.96875 -29.75 C 19.5 -26.164062 18.078125 -22.578125 16.703125 -18.984375 C 15.328125 -15.398438 14.03125 -12.117188 12.8125 -9.140625 C 11.601562 -6.160156 10.5 -3.757812 9.5 -1.9375 C 8.5 -0.113281 7.601562 0.796875 6.8125 0.796875 C 6.175781 0.796875 5.765625 0.492188 5.578125 -0.109375 C 5.390625 -0.722656 5.296875 -1.347656 5.296875 -1.984375 Z M 5.296875 -32.84375 "/></g></g></g><g fill="#000000" fill-opacity="1"><g transform="translate(405.374277, 784.850733)"><g><path d="M 13.6875 0 L 3.09375 0 C 4.144531 -1.050781 4.84375 -2.632812 5.1875 -4.75 C 5.53125 -6.863281 5.6875 -9.238281 5.65625 -11.875 C 5.632812 -14.507812 5.625 -17.144531 5.625 -19.78125 L 5.625 -32.84375 C 5.625 -35.488281 5.632812 -38.128906 5.65625 -40.765625 C 5.6875 -43.398438 5.53125 -45.773438 5.1875 -47.890625 C 4.84375 -50.003906 4.144531 -51.585938 3.09375 -52.640625 L 11.15625 -52.640625 L 11.15625 -19.78125 C 11.15625 -17.144531 11.140625 -14.507812 11.109375 -11.875 C 11.085938 -9.238281 11.25 -6.863281 11.59375 -4.75 C 11.9375 -2.632812 12.632812 -1.050781 13.6875 0 Z M 7.4375 -60.15625 C 6.125 -60.15625 5.015625 -60.601562 4.109375 -61.5 C 3.210938 -62.394531 2.765625 -63.503906 2.765625 -64.828125 C 2.765625 -66.097656 3.210938 -67.179688 4.109375 -68.078125 C 5.015625 -68.972656 6.125 -69.421875 7.4375 -69.421875 C 8.707031 -69.421875 9.789062 -68.972656 10.6875 -68.078125 C 11.582031 -67.179688 12.03125 -66.097656 12.03125 -64.828125 C 12.03125 -63.503906 11.582031 -62.394531 10.6875 -61.5 C 9.789062 -60.601562 8.707031 -60.15625 7.4375 -60.15625 Z M 7.4375 -60.15625 "/></g></g></g><g fill="#000000" fill-opacity="1"><g transform="translate(430.230659, 784.850733)"><g><path d="M 5.296875 -32.84375 C 5.296875 -35.488281 5.304688 -38.128906 5.328125 -40.765625 C 5.359375 -43.398438 5.203125 -45.773438 4.859375 -47.890625 C 4.523438 -50.003906 3.828125 -51.585938 2.765625 -52.640625 L 10.84375 -52.640625 L 10.84375 -9.65625 C 11.6875 -11.1875 12.703125 -13.296875 13.890625 -15.984375 C 15.078125 -18.679688 16.410156 -21.675781 17.890625 -24.96875 C 19.367188 -28.269531 20.988281 -31.582031 22.75 -34.90625 C 24.519531 -38.226562 26.378906 -41.285156 28.328125 -44.078125 C 30.285156 -46.878906 32.34375 -49.140625 34.5 -50.859375 C 36.664062 -52.578125 38.882812 -53.4375 41.15625 -53.4375 C 43.164062 -53.4375 44.644531 -52.851562 45.59375 -51.6875 C 46.539062 -50.53125 47.171875 -48.921875 47.484375 -46.859375 C 47.804688 -44.796875 47.96875 -42.367188 47.96875 -39.578125 L 47.96875 -19.78125 C 47.96875 -17.144531 47.953125 -14.507812 47.921875 -11.875 C 47.898438 -9.238281 48.0625 -6.863281 48.40625 -4.75 C 48.75 -2.632812 49.445312 -1.050781 50.5 0 L 39.890625 0 C 40.953125 -1.050781 41.648438 -2.632812 41.984375 -4.75 C 42.328125 -6.863281 42.484375 -9.238281 42.453125 -11.875 C 42.429688 -14.507812 42.421875 -17.144531 42.421875 -19.78125 L 42.421875 -43.859375 C 42.421875 -43.859375 42.421875 -44.144531 42.421875 -44.71875 C 42.421875 -45.300781 42.316406 -45.960938 42.109375 -46.703125 C 41.898438 -47.441406 41.503906 -48.097656 40.921875 -48.671875 C 40.335938 -49.253906 39.492188 -49.546875 38.390625 -49.546875 C 36.648438 -49.546875 34.878906 -48.632812 33.078125 -46.8125 C 31.285156 -45 29.476562 -42.597656 27.65625 -39.609375 C 25.84375 -36.628906 24.078125 -33.34375 22.359375 -29.75 C 20.640625 -26.164062 18.988281 -22.578125 17.40625 -18.984375 C 15.832031 -15.398438 14.367188 -12.117188 13.015625 -9.140625 C 11.671875 -6.160156 10.5 -3.757812 9.5 -1.9375 C 8.5 -0.113281 7.679688 0.796875 7.046875 0.796875 C 6.359375 0.796875 5.894531 0.492188 5.65625 -0.109375 C 5.414062 -0.722656 5.296875 -1.347656 5.296875 -1.984375 Z M 5.296875 -32.84375 "/></g></g></g><g fill="#000000" fill-opacity="1"><g transform="translate(491.893355, 784.850733)"><g/></g></g><g fill="#000000" fill-opacity="1"><g transform="translate(531.9472, 784.850733)"><g><path d="M 33.71875 0.796875 C 29.757812 0.796875 25.957031 0.203125 22.3125 -0.984375 C 18.675781 -2.171875 15.40625 -3.882812 12.5 -6.125 C 9.601562 -8.375 7.320312 -11.132812 5.65625 -14.40625 C 4 -17.675781 3.171875 -21.394531 3.171875 -25.5625 C 3.171875 -28.570312 3.789062 -31.410156 5.03125 -34.078125 C 6.269531 -36.742188 7.929688 -38.921875 10.015625 -40.609375 C 12.097656 -42.296875 14.378906 -43.140625 16.859375 -43.140625 C 17.492188 -43.140625 18.179688 -43.03125 18.921875 -42.8125 C 19.660156 -42.601562 20.1875 -42.289062 20.5 -41.875 C 18.226562 -41.875 16.351562 -41.367188 14.875 -40.359375 C 13.40625 -39.359375 12.242188 -38.039062 11.390625 -36.40625 C 10.546875 -34.769531 9.953125 -32.960938 9.609375 -30.984375 C 9.273438 -29.003906 9.109375 -27.015625 9.109375 -25.015625 C 9.109375 -21.160156 9.84375 -17.742188 11.3125 -14.765625 C 12.789062 -11.785156 14.742188 -9.265625 17.171875 -7.203125 C 19.597656 -5.140625 22.265625 -3.582031 25.171875 -2.53125 C 28.078125 -1.476562 30.925781 -0.953125 33.71875 -0.953125 C 38.101562 -0.953125 41.984375 -2.03125 45.359375 -4.1875 C 48.734375 -6.351562 51.394531 -9.296875 53.34375 -13.015625 C 55.300781 -16.742188 56.28125 -20.976562 56.28125 -25.71875 C 56.28125 -30.257812 55.59375 -34.140625 54.21875 -37.359375 C 52.84375 -40.578125 51.007812 -43.304688 48.71875 -45.546875 C 46.425781 -47.796875 43.84375 -49.6875 40.96875 -51.21875 C 38.09375 -52.75 35.125 -54.09375 32.0625 -55.25 C 29 -56.414062 26.03125 -57.523438 23.15625 -58.578125 C 20.28125 -59.628906 17.691406 -60.800781 15.390625 -62.09375 C 13.097656 -63.382812 11.265625 -64.925781 9.890625 -66.71875 C 8.523438 -68.519531 7.84375 -70.738281 7.84375 -73.375 C 7.84375 -75.382812 8.515625 -76.847656 9.859375 -77.765625 C 11.203125 -78.691406 12.664062 -79.15625 14.25 -79.15625 L 56.28125 -79.15625 L 56.28125 -72.984375 C 54.644531 -73.984375 51.769531 -74.929688 47.65625 -75.828125 C 43.539062 -76.722656 37.65625 -77.171875 30 -77.171875 L 19 -77.171875 C 16.988281 -77.171875 15.570312 -76.578125 14.75 -75.390625 C 13.9375 -74.203125 13.53125 -72.925781 13.53125 -71.5625 C 13.53125 -69.445312 14.21875 -67.609375 15.59375 -66.046875 C 16.96875 -64.492188 18.816406 -63.109375 21.140625 -61.890625 C 23.460938 -60.679688 26.0625 -59.507812 28.9375 -58.375 C 31.8125 -57.238281 34.789062 -56.035156 37.875 -54.765625 C 40.957031 -53.503906 43.9375 -52.054688 46.8125 -50.421875 C 49.695312 -48.785156 52.296875 -46.832031 54.609375 -44.5625 C 56.929688 -42.289062 58.78125 -39.582031 60.15625 -36.4375 C 61.53125 -33.300781 62.21875 -29.625 62.21875 -25.40625 C 62.21875 -21.550781 61.460938 -18.023438 59.953125 -14.828125 C 58.453125 -11.640625 56.382812 -8.875 53.75 -6.53125 C 51.113281 -4.1875 48.078125 -2.378906 44.640625 -1.109375 C 41.210938 0.160156 37.570312 0.796875 33.71875 0.796875 Z M 33.71875 0.796875 "/></g></g></g><g fill="#000000" fill-opacity="1"><g transform="translate(606.907641, 784.850733)"><g><path d="M 2.765625 -79.15625 L 13.375 -79.15625 C 12.320312 -78.101562 11.625 -76.519531 11.28125 -74.40625 C 10.9375 -72.289062 10.773438 -69.914062 10.796875 -67.28125 C 10.828125 -64.644531 10.84375 -62.003906 10.84375 -59.359375 L 10.84375 -9.65625 C 11.6875 -11.1875 12.703125 -13.296875 13.890625 -15.984375 C 15.078125 -18.679688 16.410156 -21.675781 17.890625 -24.96875 C 19.367188 -28.269531 20.988281 -31.582031 22.75 -34.90625 C 24.519531 -38.226562 26.378906 -41.285156 28.328125 -44.078125 C 30.285156 -46.878906 32.34375 -49.140625 34.5 -50.859375 C 36.664062 -52.578125 38.882812 -53.4375 41.15625 -53.4375 C 43.164062 -53.4375 44.644531 -52.851562 45.59375 -51.6875 C 46.539062 -50.53125 47.171875 -48.921875 47.484375 -46.859375 C 47.804688 -44.796875 47.96875 -42.367188 47.96875 -39.578125 L 47.96875 -19.78125 C 47.96875 -17.144531 47.953125 -14.507812 47.921875 -11.875 C 47.898438 -9.238281 48.0625 -6.863281 48.40625 -4.75 C 48.75 -2.632812 49.445312 -1.050781 50.5 0 L 39.890625 0 C 40.953125 -1.050781 41.648438 -2.632812 41.984375 -4.75 C 42.328125 -6.863281 42.484375 -9.238281 42.453125 -11.875 C 42.429688 -14.507812 42.421875 -17.144531 42.421875 -19.78125 L 42.421875 -43.859375 C 42.421875 -43.859375 42.421875 -44.144531 42.421875 -44.71875 C 42.421875 -45.300781 42.316406 -45.960938 42.109375 -46.703125 C 41.898438 -47.441406 41.503906 -48.097656 40.921875 -48.671875 C 40.335938 -49.253906 39.492188 -49.546875 38.390625 -49.546875 C 36.648438 -49.546875 34.878906 -48.632812 33.078125 -46.8125 C 31.285156 -45 29.476562 -42.597656 27.65625 -39.609375 C 25.84375 -36.628906 24.0625 -33.34375 22.3125 -29.75 C 20.570312 -26.164062 18.910156 -22.578125 17.328125 -18.984375 C 15.742188 -15.398438 14.28125 -12.117188 12.9375 -9.140625 C 11.59375 -6.160156 10.421875 -3.757812 9.421875 -1.9375 C 8.421875 -0.113281 7.601562 0.796875 6.96875 0.796875 C 6.28125 0.796875 5.828125 0.492188 5.609375 -0.109375 C 5.398438 -0.722656 5.296875 -1.347656 5.296875 -1.984375 L 5.296875 -59.359375 C 5.296875 -62.003906 5.304688 -64.644531 5.328125 -67.28125 C 5.359375 -69.914062 5.203125 -72.289062 4.859375 -74.40625 C 4.523438 -76.519531 3.828125 -78.101562 2.765625 -79.15625 Z M 2.765625 -79.15625 "/></g></g></g><g fill="#000000" fill-opacity="1"><g transform="translate(668.570337, 784.850733)"><g><path d="M 3.953125 -7.515625 C 3.953125 -10.472656 4.613281 -13.21875 5.9375 -15.75 C 7.257812 -18.28125 9.023438 -20.570312 11.234375 -22.625 C 13.453125 -24.6875 15.929688 -26.507812 18.671875 -28.09375 C 21.421875 -29.675781 24.242188 -31.046875 27.140625 -32.203125 C 30.046875 -33.367188 32.832031 -34.296875 35.5 -34.984375 C 38.164062 -35.671875 40.5 -36.117188 42.5 -36.328125 C 42.289062 -38.972656 41.722656 -41.441406 40.796875 -43.734375 C 39.878906 -46.023438 38.40625 -47.882812 36.375 -49.3125 C 34.34375 -50.738281 31.53125 -51.453125 27.9375 -51.453125 C 24.769531 -51.453125 21.773438 -50.859375 18.953125 -49.671875 C 16.128906 -48.484375 13.625 -47.070312 11.4375 -45.4375 C 9.25 -43.800781 7.46875 -42.296875 6.09375 -40.921875 L 6.09375 -47.734375 C 9.84375 -49.578125 13.300781 -51 16.46875 -52 C 19.632812 -53.007812 23.0625 -53.515625 26.75 -53.515625 C 31.65625 -53.515625 35.691406 -52.628906 38.859375 -50.859375 C 42.023438 -49.085938 44.375 -46.6875 45.90625 -43.65625 C 47.4375 -40.625 48.203125 -37.15625 48.203125 -33.25 L 48.203125 -19.875 C 48.203125 -17.226562 48.1875 -14.585938 48.15625 -11.953125 C 48.132812 -9.316406 48.296875 -6.941406 48.640625 -4.828125 C 48.984375 -2.710938 49.679688 -1.128906 50.734375 -0.078125 L 19 -0.078125 C 16.78125 -0.078125 14.757812 -0.0625 12.9375 -0.03125 C 11.125 -0.0078125 9.539062 -0.171875 8.1875 -0.515625 C 6.84375 -0.859375 5.800781 -1.554688 5.0625 -2.609375 C 4.320312 -3.660156 3.953125 -5.296875 3.953125 -7.515625 Z M 42.671875 -34.28125 C 40.296875 -34.007812 37.65625 -33.4375 34.75 -32.5625 C 31.84375 -31.695312 28.9375 -30.550781 26.03125 -29.125 C 23.132812 -27.707031 20.457031 -26.046875 18 -24.140625 C 15.550781 -22.242188 13.585938 -20.160156 12.109375 -17.890625 C 10.628906 -15.617188 9.890625 -13.164062 9.890625 -10.53125 C 9.890625 -5.519531 12.210938 -3.015625 16.859375 -3.015625 L 42.671875 -3.015625 L 42.671875 -31.734375 C 42.671875 -32.160156 42.671875 -32.582031 42.671875 -33 C 42.671875 -33.425781 42.671875 -33.851562 42.671875 -34.28125 Z M 42.671875 -34.28125 "/></g></g></g><g fill="#000000" fill-opacity="1"><g transform="translate(730.470497, 784.850733)"><g><path d="M 2.765625 -79.15625 L 13.375 -79.15625 C 12.320312 -78.101562 11.625 -76.519531 11.28125 -74.40625 C 10.9375 -72.289062 10.773438 -69.914062 10.796875 -67.28125 C 10.828125 -64.644531 10.84375 -62.003906 10.84375 -59.359375 L 10.84375 -9.65625 C 11.6875 -11.1875 12.703125 -13.296875 13.890625 -15.984375 C 15.078125 -18.679688 16.410156 -21.675781 17.890625 -24.96875 C 19.367188 -28.269531 20.988281 -31.582031 22.75 -34.90625 C 24.519531 -38.226562 26.378906 -41.285156 28.328125 -44.078125 C 30.285156 -46.878906 32.34375 -49.140625 34.5 -50.859375 C 36.664062 -52.578125 38.882812 -53.4375 41.15625 -53.4375 C 43.164062 -53.4375 44.644531 -52.851562 45.59375 -51.6875 C 46.539062 -50.53125 47.171875 -48.921875 47.484375 -46.859375 C 47.804688 -44.796875 47.96875 -42.367188 47.96875 -39.578125 L 47.96875 -19.78125 C 47.96875 -17.144531 47.953125 -14.507812 47.921875 -11.875 C 47.898438 -9.238281 48.0625 -6.863281 48.40625 -4.75 C 48.75 -2.632812 49.445312 -1.050781 50.5 0 L 39.890625 0 C 40.953125 -1.050781 41.648438 -2.632812 41.984375 -4.75 C 42.328125 -6.863281 42.484375 -9.238281 42.453125 -11.875 C 42.429688 -14.507812 42.421875 -17.144531 42.421875 -19.78125 L 42.421875 -43.859375 C 42.421875 -43.859375 42.421875 -44.144531 42.421875 -44.71875 C 42.421875 -45.300781 42.316406 -45.960938 42.109375 -46.703125 C 41.898438 -47.441406 41.503906 -48.097656 40.921875 -48.671875 C 40.335938 -49.253906 39.492188 -49.546875 38.390625 -49.546875 C 36.648438 -49.546875 34.878906 -48.632812 33.078125 -46.8125 C 31.285156 -45 29.476562 -42.597656 27.65625 -39.609375 C 25.84375 -36.628906 24.0625 -33.34375 22.3125 -29.75 C 20.570312 -26.164062 18.910156 -22.578125 17.328125 -18.984375 C 15.742188 -15.398438 14.28125 -12.117188 12.9375 -9.140625 C 11.59375 -6.160156 10.421875 -3.757812 9.421875 -1.9375 C 8.421875 -0.113281 7.601562 0.796875 6.96875 0.796875 C 6.28125 0.796875 5.828125 0.492188 5.609375 -0.109375 C 5.398438 -0.722656 5.296875 -1.347656 5.296875 -1.984375 L 5.296875 -59.359375 C 5.296875 -62.003906 5.304688 -64.644531 5.328125 -67.28125 C 5.359375 -69.914062 5.203125 -72.289062 4.859375 -74.40625 C 4.523438 -76.519531 3.828125 -78.101562 2.765625 -79.15625 Z M 2.765625 -79.15625 "/></g></g></g></svg>