<svg xmlns="http://www.w3.org/2000/svg" xmlns:xlink="http://www.w3.org/1999/xlink" width="1080" zoomAndPan="magnify" viewBox="0 0 810 809.999993" height="1080" preserveAspectRatio="xMidYMid meet" version="1.0"><defs><g/><clipPath id="4501fde6cb"><path d="M 31 97.648438 L 779 97.648438 L 779 551.820312 L 31 551.820312 Z M 31 97.648438 " clip-rule="nonzero"/></clipPath></defs><g clip-path="url(#4501fde6cb)"><path fill="#212121" d="M 514.082031 97.648438 L 371.570312 280.835938 L 254.628906 431.273438 L 134.996094 279.789062 L 134.996094 552.25 L 31.066406 552.25 L 31.066406 97.648438 L 127.070312 97.648438 L 253.882812 265.730469 L 371.421875 107.667969 L 378.898438 97.648438 Z M 761.71875 230.589844 C 750.355469 202.773438 734.503906 178.550781 714.613281 158.808594 C 694.726562 139.070312 671.996094 123.816406 646.722656 113.351562 C 626.535156 105.125 605.449219 100.039062 583.765625 98.394531 L 505.558594 198.886719 L 565.824219 198.886719 C 588.253906 198.886719 606.796875 204.121094 622.796875 215.035156 C 639.394531 226.253906 651.957031 241.058594 661.078125 260.046875 C 670.351562 279.488281 675.136719 301.320312 675.136719 324.949219 C 675.136719 348.726562 670.5 369.8125 661.078125 389.402344 C 651.808594 408.390625 639.394531 423.195312 622.648438 434.710938 C 606.796875 445.777344 588.253906 451.011719 565.824219 451.011719 L 474.902344 451.011719 L 474.902344 238.363281 L 371.269531 371.605469 L 371.269531 552.25 L 567.46875 552.25 C 594.683594 552.25 621.300781 547.015625 646.574219 536.546875 C 671.695312 526.082031 694.578125 510.828125 714.464844 490.9375 C 734.355469 471.050781 750.054688 446.972656 761.570312 419.160156 C 772.9375 391.34375 778.769531 359.640625 778.769531 324.800781 C 778.917969 290.253906 773.085938 258.554688 761.71875 230.589844 Z M 761.71875 230.589844 " fill-opacity="1" fill-rule="nonzero"/></g><g fill="#212121" fill-opacity="1"><g transform="translate(19.677668, 653.556022)"><g><path d="M 68.796875 -73.03125 L 83.53125 -73.03125 L 83.53125 0 L 67.984375 0 L 67.984375 -48.203125 L 50.578125 -23.796875 L 38.109375 -23.796875 L 20.5 -47.484375 L 20.5 0 L 4.84375 0 L 4.84375 -73.03125 L 19.671875 -73.03125 L 44.390625 -39.34375 Z M 68.796875 -73.03125 "/></g></g></g><g fill="#212121" fill-opacity="1"><g transform="translate(108.049706, 653.556022)"><g><path d="M 49.75 -73.03125 L 80.234375 0 L 63.34375 0 L 56.75 -15.65625 L 25.75 -15.65625 L 19.265625 0 L 2.265625 0 L 32.75 -73.03125 Z M 50.875 -29.875 L 41.296875 -52.84375 L 31.71875 -29.875 Z M 50.875 -29.875 "/></g></g></g><g fill="#212121" fill-opacity="1"><g transform="translate(190.550887, 653.556022)"><g><path d="M 57.375 -51.296875 C 57.375 -48.960938 57.046875 -46.75 56.390625 -44.65625 C 55.734375 -42.5625 54.820312 -40.632812 53.65625 -38.875 C 52.488281 -37.125 51.082031 -35.578125 49.4375 -34.234375 C 47.789062 -32.898438 46.003906 -31.820312 44.078125 -31 L 68.28125 0 L 50.0625 0 L 27.5 -29.453125 L 20.5 -29.453125 L 20.5 0 L 4.84375 0 L 4.84375 -73.03125 L 36.359375 -73.03125 C 39.242188 -73.03125 41.972656 -72.460938 44.546875 -71.328125 C 47.117188 -70.191406 49.347656 -68.644531 51.234375 -66.6875 C 53.128906 -64.726562 54.625 -62.425781 55.71875 -59.78125 C 56.820312 -57.144531 57.375 -54.316406 57.375 -51.296875 Z M 34.40625 -43.671875 C 36.394531 -43.671875 38.109375 -44.40625 39.546875 -45.875 C 40.992188 -47.351562 41.71875 -49.160156 41.71875 -51.296875 C 41.71875 -53.359375 40.992188 -55.125 39.546875 -56.59375 C 38.109375 -58.070312 36.394531 -58.8125 34.40625 -58.8125 L 20.5 -58.8125 L 20.5 -43.671875 Z M 34.40625 -43.671875 "/></g></g></g><g fill="#212121" fill-opacity="1"><g transform="translate(261.310313, 653.556022)"><g><path d="M 31.421875 -73.03125 L 31.421875 -59.84375 L 25.953125 -59.84375 L 25.953125 -13.078125 L 31.421875 -13.078125 L 31.421875 0 L 4.84375 0 L 4.84375 -13.078125 L 10.296875 -13.078125 L 10.296875 -59.84375 L 4.84375 -59.84375 L 4.84375 -73.03125 Z M 31.421875 -73.03125 "/></g></g></g><g fill="#212121" fill-opacity="1"><g transform="translate(297.462506, 653.556022)"><g><path d="M 49.75 -73.03125 L 80.234375 0 L 63.34375 0 L 56.75 -15.65625 L 25.75 -15.65625 L 19.265625 0 L 2.265625 0 L 32.75 -73.03125 Z M 50.875 -29.875 L 41.296875 -52.84375 L 31.71875 -29.875 Z M 50.875 -29.875 "/></g></g></g><g fill="#212121" fill-opacity="1"><g transform="translate(379.963687, 653.556022)"><g/></g></g><g fill="#212121" fill-opacity="1"><g transform="translate(408.288081, 653.556022)"><g><path d="M 34.40625 -73.03125 C 39.6875 -73.03125 44.351562 -72.066406 48.40625 -70.140625 C 52.457031 -68.222656 55.835938 -65.613281 58.546875 -62.3125 C 61.265625 -59.019531 63.328125 -55.140625 64.734375 -50.671875 C 66.140625 -46.210938 66.84375 -41.476562 66.84375 -36.46875 C 66.84375 -31.382812 66.101562 -26.625 64.625 -22.1875 C 63.15625 -17.757812 61.113281 -13.898438 58.5 -10.609375 C 55.894531 -7.316406 52.804688 -4.722656 49.234375 -2.828125 C 45.660156 -0.941406 41.78125 0 37.59375 0 L 4.9375 0 L 4.9375 -73.03125 Z M 34.5 -14.109375 C 37.457031 -14.109375 39.984375 -14.707031 42.078125 -15.90625 C 44.171875 -17.113281 45.90625 -18.742188 47.28125 -20.796875 C 48.65625 -22.859375 49.664062 -25.226562 50.3125 -27.90625 C 50.96875 -30.59375 51.296875 -33.410156 51.296875 -36.359375 C 51.296875 -39.304688 50.984375 -42.132812 50.359375 -44.84375 C 49.742188 -47.5625 48.75 -49.953125 47.375 -52.015625 C 46 -54.078125 44.25 -55.722656 42.125 -56.953125 C 40 -58.191406 37.457031 -58.8125 34.5 -58.8125 L 20.59375 -58.8125 L 20.59375 -14.109375 Z M 34.5 -14.109375 "/></g></g></g><g fill="#212121" fill-opacity="1"><g transform="translate(478.635526, 653.556022)"><g><path d="M 39.34375 -74.0625 C 44.289062 -74.0625 48.960938 -73.0625 53.359375 -71.0625 C 57.753906 -69.070312 61.582031 -66.359375 64.84375 -62.921875 C 68.101562 -59.492188 70.675781 -55.515625 72.5625 -50.984375 C 74.445312 -46.453125 75.390625 -41.613281 75.390625 -36.46875 C 75.390625 -31.382812 74.445312 -26.539062 72.5625 -21.9375 C 70.675781 -17.332031 68.101562 -13.3125 64.84375 -9.875 C 61.582031 -6.445312 57.753906 -3.71875 53.359375 -1.6875 C 48.960938 0.332031 44.289062 1.34375 39.34375 1.34375 C 34.40625 1.34375 29.738281 0.332031 25.34375 -1.6875 C 20.945312 -3.71875 17.132812 -6.445312 13.90625 -9.875 C 10.675781 -13.3125 8.117188 -17.332031 6.234375 -21.9375 C 4.347656 -26.539062 3.40625 -31.382812 3.40625 -36.46875 C 3.40625 -41.613281 4.347656 -46.453125 6.234375 -50.984375 C 8.117188 -55.515625 10.675781 -59.492188 13.90625 -62.921875 C 17.132812 -66.359375 20.945312 -69.070312 25.34375 -71.0625 C 29.738281 -73.0625 34.40625 -74.0625 39.34375 -74.0625 Z M 39.34375 -14.21875 C 42.15625 -14.21875 44.796875 -14.800781 47.265625 -15.96875 C 49.742188 -17.132812 51.910156 -18.726562 53.765625 -20.75 C 55.617188 -22.78125 57.078125 -25.132812 58.140625 -27.8125 C 59.203125 -30.488281 59.734375 -33.375 59.734375 -36.46875 C 59.734375 -39.550781 59.203125 -42.445312 58.140625 -45.15625 C 57.078125 -47.875 55.617188 -50.242188 53.765625 -52.265625 C 51.910156 -54.296875 49.742188 -55.894531 47.265625 -57.0625 C 44.796875 -58.226562 42.15625 -58.8125 39.34375 -58.8125 C 36.53125 -58.8125 33.882812 -58.226562 31.40625 -57.0625 C 28.9375 -55.894531 26.773438 -54.296875 24.921875 -52.265625 C 23.066406 -50.242188 21.609375 -47.875 20.546875 -45.15625 C 19.484375 -42.445312 18.953125 -39.550781 18.953125 -36.46875 C 18.953125 -33.375 19.484375 -30.488281 20.546875 -27.8125 C 21.609375 -25.132812 23.066406 -22.78125 24.921875 -20.75 C 26.773438 -18.726562 28.9375 -17.132812 31.40625 -15.96875 C 33.882812 -14.800781 36.53125 -14.21875 39.34375 -14.21875 Z M 39.34375 -14.21875 "/></g></g></g><g fill="#212121" fill-opacity="1"><g transform="translate(557.42876, 653.556022)"><g><path d="M 54.796875 -73.03125 L 70.34375 -73.03125 L 70.34375 0 L 55.515625 0 L 20.390625 -47.6875 L 20.390625 0 L 4.84375 0 L 4.84375 -73.03125 L 19.46875 -73.03125 L 54.796875 -25.03125 Z M 54.796875 -73.03125 "/></g></g></g><g fill="#212121" fill-opacity="1"><g transform="translate(632.617091, 653.556022)"><g><path d="M 54.796875 -73.03125 L 70.34375 -73.03125 L 70.34375 0 L 55.515625 0 L 20.390625 -47.6875 L 20.390625 0 L 4.84375 0 L 4.84375 -73.03125 L 19.46875 -73.03125 L 54.796875 -25.03125 Z M 54.796875 -73.03125 "/></g></g></g><g fill="#212121" fill-opacity="1"><g transform="translate(707.805422, 653.556022)"><g><path d="M 49.75 -73.03125 L 80.234375 0 L 63.34375 0 L 56.75 -15.65625 L 25.75 -15.65625 L 19.265625 0 L 2.265625 0 L 32.75 -73.03125 Z M 50.875 -29.875 L 41.296875 -52.84375 L 31.71875 -29.875 Z M 50.875 -29.875 "/></g></g></g><g fill="#212121" fill-opacity="1"><g transform="translate(154.187049, 700.945807)"><g><path d="M 19.109375 -7.1875 C 19.109375 -6.101562 18.890625 -5.097656 18.453125 -4.171875 C 18.023438 -3.242188 17.390625 -2.429688 16.546875 -1.734375 C 14.878906 -0.335938 12.75 0.359375 10.15625 0.359375 C 8.125 0.359375 6.289062 -0.0507812 4.65625 -0.875 C 3.019531 -1.707031 1.816406 -2.828125 1.046875 -4.234375 L 4.265625 -5.890625 C 4.742188 -5.023438 5.503906 -4.351562 6.546875 -3.875 C 7.597656 -3.40625 8.800781 -3.171875 10.15625 -3.171875 C 13.644531 -3.171875 15.390625 -4.507812 15.390625 -7.1875 C 15.390625 -7.695312 15.296875 -8.128906 15.109375 -8.484375 C 14.929688 -8.847656 14.664062 -9.1875 14.3125 -9.5 C 13.4375 -10.21875 11.878906 -10.867188 9.640625 -11.453125 C 8.296875 -11.785156 7.148438 -12.15625 6.203125 -12.5625 C 5.265625 -12.976562 4.484375 -13.460938 3.859375 -14.015625 C 2.347656 -15.242188 1.59375 -16.867188 1.59375 -18.890625 C 1.59375 -19.898438 1.789062 -20.84375 2.1875 -21.71875 C 2.582031 -22.601562 3.140625 -23.367188 3.859375 -24.015625 C 4.609375 -24.671875 5.484375 -25.160156 6.484375 -25.484375 C 7.484375 -25.804688 8.585938 -25.96875 9.796875 -25.96875 C 11.546875 -25.96875 13.160156 -25.628906 14.640625 -24.953125 C 16.128906 -24.285156 17.257812 -23.335938 18.03125 -22.109375 L 15.09375 -20.296875 C 14.394531 -21.140625 13.585938 -21.734375 12.671875 -22.078125 C 11.765625 -22.429688 10.804688 -22.609375 9.796875 -22.609375 C 9.066406 -22.609375 8.398438 -22.488281 7.796875 -22.25 C 7.203125 -22.007812 6.695312 -21.722656 6.28125 -21.390625 C 5.945312 -21.097656 5.703125 -20.738281 5.546875 -20.3125 C 5.390625 -19.894531 5.3125 -19.445312 5.3125 -18.96875 C 5.3125 -18.65625 5.359375 -18.332031 5.453125 -18 C 5.546875 -17.675781 5.773438 -17.335938 6.140625 -16.984375 C 6.503906 -16.640625 7.035156 -16.304688 7.734375 -15.984375 C 8.429688 -15.660156 9.378906 -15.34375 10.578125 -15.03125 C 12.023438 -14.664062 13.242188 -14.269531 14.234375 -13.84375 C 15.222656 -13.425781 16.050781 -12.929688 16.71875 -12.359375 C 18.3125 -11.054688 19.109375 -9.332031 19.109375 -7.1875 Z M 19.109375 -7.1875 "/></g></g></g><g fill="#212121" fill-opacity="1"><g transform="translate(194.821221, 700.945807)"><g><path d="M 4.515625 0 L 0.390625 0 L 11.046875 -25.609375 L 15.203125 -25.609375 L 25.859375 0 L 21.78125 0 L 18.421875 -8.015625 L 7.84375 -8.015625 Z M 9.28125 -11.484375 L 16.984375 -11.484375 L 13.15625 -20.734375 Z M 9.28125 -11.484375 "/></g></g></g><g fill="#212121" fill-opacity="1"><g transform="translate(240.945514, 700.945807)"><g><path d="M 2.125 0 L 2.125 -25.609375 L 5.921875 -25.609375 L 5.921875 -3.5 L 17.78125 -3.5 L 17.78125 0 Z M 2.125 0 "/></g></g></g><g fill="#212121" fill-opacity="1"><g transform="translate(279.159653, 700.945807)"><g><path d="M 19.296875 -25.609375 L 19.296875 -22.21875 L 5.78125 -22.21875 L 5.78125 -15.25 L 18.03125 -15.25 L 18.03125 -11.734375 L 5.78125 -11.734375 L 5.78125 0 L 2.015625 0 L 2.015625 -25.609375 Z M 19.296875 -25.609375 "/></g></g></g><g fill="#212121" fill-opacity="1"><g transform="translate(318.349029, 700.945807)"><g><path d="M 13.90625 -25.96875 C 15.644531 -25.96875 17.285156 -25.617188 18.828125 -24.921875 C 20.367188 -24.222656 21.707031 -23.273438 22.84375 -22.078125 C 23.988281 -20.890625 24.898438 -19.492188 25.578125 -17.890625 C 26.253906 -16.296875 26.59375 -14.609375 26.59375 -12.828125 C 26.59375 -11.015625 26.253906 -9.3125 25.578125 -7.71875 C 24.898438 -6.132812 23.984375 -4.742188 22.828125 -3.546875 C 21.671875 -2.359375 20.320312 -1.414062 18.78125 -0.71875 C 17.238281 -0.0195312 15.601562 0.328125 13.875 0.328125 C 12.132812 0.328125 10.492188 -0.0195312 8.953125 -0.71875 C 7.410156 -1.414062 6.066406 -2.359375 4.921875 -3.546875 C 3.785156 -4.742188 2.882812 -6.132812 2.21875 -7.71875 C 1.5625 -9.3125 1.234375 -11.015625 1.234375 -12.828125 C 1.234375 -14.609375 1.5625 -16.296875 2.21875 -17.890625 C 2.882812 -19.492188 3.796875 -20.890625 4.953125 -22.078125 C 6.109375 -23.273438 7.457031 -24.222656 9 -24.921875 C 10.539062 -25.617188 12.175781 -25.96875 13.90625 -25.96875 Z M 13.90625 -3.25 C 15.132812 -3.25 16.285156 -3.492188 17.359375 -3.984375 C 18.429688 -4.484375 19.363281 -5.164062 20.15625 -6.03125 C 20.945312 -6.894531 21.570312 -7.910156 22.03125 -9.078125 C 22.488281 -10.253906 22.71875 -11.503906 22.71875 -12.828125 C 22.71875 -14.148438 22.488281 -15.390625 22.03125 -16.546875 C 21.570312 -17.703125 20.945312 -18.710938 20.15625 -19.578125 C 19.363281 -20.441406 18.429688 -21.117188 17.359375 -21.609375 C 16.285156 -22.109375 15.132812 -22.359375 13.90625 -22.359375 C 12.675781 -22.359375 11.523438 -22.109375 10.453125 -21.609375 C 9.378906 -21.117188 8.445312 -20.441406 7.65625 -19.578125 C 6.863281 -18.710938 6.234375 -17.703125 5.765625 -16.546875 C 5.296875 -15.390625 5.0625 -14.148438 5.0625 -12.828125 C 5.0625 -11.503906 5.296875 -10.253906 5.765625 -9.078125 C 6.234375 -7.910156 6.863281 -6.894531 7.65625 -6.03125 C 8.445312 -5.164062 9.378906 -4.484375 10.453125 -3.984375 C 11.523438 -3.492188 12.675781 -3.25 13.90625 -3.25 Z M 13.90625 -3.25 "/></g></g></g><g fill="#212121" fill-opacity="1"><g transform="translate(365.737524, 700.945807)"><g><path d="M 23.15625 0 L 18.421875 0 L 10.375 -11.046875 L 5.890625 -11.046875 L 5.890625 0 L 2.09375 0 L 2.09375 -25.609375 L 12.5 -25.609375 C 13.507812 -25.609375 14.460938 -25.414062 15.359375 -25.03125 C 16.265625 -24.644531 17.050781 -24.125 17.71875 -23.46875 C 18.382812 -22.820312 18.910156 -22.0625 19.296875 -21.1875 C 19.679688 -20.3125 19.875 -19.363281 19.875 -18.34375 C 19.875 -17.507812 19.738281 -16.71875 19.46875 -15.96875 C 19.207031 -15.21875 18.84375 -14.539062 18.375 -13.9375 C 17.90625 -13.34375 17.34375 -12.820312 16.6875 -12.375 C 16.039062 -11.925781 15.332031 -11.59375 14.5625 -11.375 Z M 12.5 -14.59375 C 13.007812 -14.59375 13.488281 -14.691406 13.9375 -14.890625 C 14.394531 -15.097656 14.785156 -15.367188 15.109375 -15.703125 C 15.441406 -16.046875 15.703125 -16.453125 15.890625 -16.921875 C 16.085938 -17.390625 16.1875 -17.890625 16.1875 -18.421875 C 16.1875 -18.953125 16.085938 -19.445312 15.890625 -19.90625 C 15.703125 -20.363281 15.441406 -20.765625 15.109375 -21.109375 C 14.785156 -21.460938 14.394531 -21.738281 13.9375 -21.9375 C 13.488281 -22.144531 13.007812 -22.25 12.5 -22.25 L 5.890625 -22.25 L 5.890625 -14.5625 Z M 12.5 -14.59375 "/></g></g></g><g fill="#212121" fill-opacity="1"><g transform="translate(409.116759, 700.945807)"><g><path d="M 2.171875 0 L 2.171875 -25.609375 L 11.265625 -25.609375 C 13.117188 -25.609375 14.753906 -25.269531 16.171875 -24.59375 C 17.597656 -23.925781 18.785156 -23.015625 19.734375 -21.859375 C 20.691406 -20.703125 21.414062 -19.335938 21.90625 -17.765625 C 22.40625 -16.203125 22.65625 -14.539062 22.65625 -12.78125 C 22.65625 -11 22.394531 -9.332031 21.875 -7.78125 C 21.351562 -6.226562 20.632812 -4.875 19.71875 -3.71875 C 18.800781 -2.5625 17.71875 -1.648438 16.46875 -0.984375 C 15.21875 -0.328125 13.867188 0 12.421875 0 Z M 11.125 -3.5 C 12.5 -3.5 13.664062 -3.75 14.625 -4.25 C 15.59375 -4.757812 16.390625 -5.4375 17.015625 -6.28125 C 17.640625 -7.125 18.097656 -8.113281 18.390625 -9.25 C 18.679688 -10.382812 18.828125 -11.5625 18.828125 -12.78125 C 18.828125 -14.007812 18.679688 -15.195312 18.390625 -16.34375 C 18.097656 -17.488281 17.644531 -18.492188 17.03125 -19.359375 C 16.414062 -20.222656 15.617188 -20.914062 14.640625 -21.4375 C 13.671875 -21.957031 12.5 -22.21875 11.125 -22.21875 L 5.953125 -22.21875 L 5.953125 -3.5 Z M 11.125 -3.5 "/></g></g></g><g fill="#212121" fill-opacity="1"><g transform="translate(453.290638, 700.945807)"><g/></g></g><g fill="#212121" fill-opacity="1"><g transform="translate(482.402711, 700.945807)"><g><path d="M 16.140625 -18.53125 C 16.078125 -18.070312 15.90625 -17.625 15.625 -17.1875 C 15.34375 -16.757812 15 -16.332031 14.59375 -15.90625 C 14.1875 -15.488281 13.71875 -15.0625 13.1875 -14.625 C 12.65625 -14.195312 12.125 -13.753906 11.59375 -13.296875 C 12.070312 -12.765625 12.539062 -12.234375 13 -11.703125 C 13.457031 -11.171875 13.925781 -10.65625 14.40625 -10.15625 L 17.125 -7.21875 C 17.800781 -7.851562 18.457031 -8.523438 19.09375 -9.234375 C 19.726562 -9.941406 20.347656 -10.679688 20.953125 -11.453125 L 23.546875 -9.140625 C 22.878906 -8.296875 22.207031 -7.507812 21.53125 -6.78125 C 20.851562 -6.0625 20.128906 -5.351562 19.359375 -4.65625 L 23.703125 0.078125 L 19.03125 0.078125 C 18.769531 -0.191406 18.523438 -0.445312 18.296875 -0.6875 C 18.066406 -0.925781 17.859375 -1.164062 17.671875 -1.40625 L 16.71875 -2.5 C 16.675781 -2.445312 16.632812 -2.414062 16.59375 -2.40625 C 16.5625 -2.394531 16.519531 -2.363281 16.46875 -2.3125 C 15.9375 -1.925781 15.410156 -1.550781 14.890625 -1.1875 C 14.378906 -0.832031 13.820312 -0.515625 13.21875 -0.234375 C 12.613281 0.046875 11.953125 0.269531 11.234375 0.4375 C 10.515625 0.601562 9.695312 0.6875 8.78125 0.6875 C 7.84375 0.6875 6.929688 0.539062 6.046875 0.25 C 5.171875 -0.0390625 4.398438 -0.460938 3.734375 -1.015625 C 3.078125 -1.566406 2.539062 -2.242188 2.125 -3.046875 C 1.71875 -3.859375 1.515625 -4.796875 1.515625 -5.859375 C 1.515625 -6.742188 1.644531 -7.554688 1.90625 -8.296875 C 2.175781 -9.046875 2.539062 -9.738281 3 -10.375 C 3.457031 -11.019531 3.984375 -11.617188 4.578125 -12.171875 C 5.179688 -12.722656 5.820312 -13.253906 6.5 -13.765625 C 5.78125 -14.609375 5.046875 -15.429688 4.296875 -16.234375 C 3.546875 -17.046875 2.8125 -17.859375 2.09375 -18.671875 L 2.09375 -18.921875 C 2.09375 -19.941406 2.300781 -20.890625 2.71875 -21.765625 C 3.144531 -22.640625 3.691406 -23.394531 4.359375 -24.03125 C 5.035156 -24.675781 5.804688 -25.175781 6.671875 -25.53125 C 7.546875 -25.894531 8.441406 -26.078125 9.359375 -26.078125 C 10.222656 -26.078125 11.070312 -25.910156 11.90625 -25.578125 C 12.738281 -25.242188 13.472656 -24.785156 14.109375 -24.203125 C 14.742188 -23.628906 15.257812 -22.957031 15.65625 -22.1875 C 16.050781 -21.414062 16.25 -20.582031 16.25 -19.6875 C 16.25 -19.5 16.238281 -19.304688 16.21875 -19.109375 C 16.195312 -18.921875 16.171875 -18.726562 16.140625 -18.53125 Z M 10.984375 -3.078125 C 12.210938 -3.578125 13.351562 -4.210938 14.40625 -4.984375 C 13.78125 -5.679688 13.15625 -6.378906 12.53125 -7.078125 C 11.90625 -7.773438 11.28125 -8.472656 10.65625 -9.171875 L 8.75 -11.265625 C 8.289062 -10.929688 7.84375 -10.570312 7.40625 -10.1875 C 6.96875 -9.800781 6.570312 -9.390625 6.21875 -8.953125 C 5.875 -8.523438 5.597656 -8.0625 5.390625 -7.5625 C 5.191406 -7.070312 5.09375 -6.550781 5.09375 -6 C 5.09375 -4.820312 5.4375 -3.953125 6.125 -3.390625 C 6.8125 -2.835938 7.648438 -2.5625 8.640625 -2.5625 C 9.046875 -2.5625 9.453125 -2.609375 9.859375 -2.703125 C 10.265625 -2.804688 10.640625 -2.929688 10.984375 -3.078125 Z M 12.6875 -19.5 C 12.6875 -19.914062 12.59375 -20.316406 12.40625 -20.703125 C 12.226562 -21.085938 11.988281 -21.429688 11.6875 -21.734375 C 11.382812 -22.035156 11.035156 -22.273438 10.640625 -22.453125 C 10.242188 -22.628906 9.828125 -22.71875 9.390625 -22.71875 C 8.546875 -22.71875 7.785156 -22.421875 7.109375 -21.828125 C 6.441406 -21.242188 6.007812 -20.503906 5.8125 -19.609375 L 9.28125 -15.78125 C 9.625 -16.019531 9.957031 -16.269531 10.28125 -16.53125 C 10.601562 -16.800781 10.910156 -17.054688 11.203125 -17.296875 C 11.222656 -17.328125 11.296875 -17.394531 11.421875 -17.5 C 11.554688 -17.613281 11.640625 -17.679688 11.671875 -17.703125 C 11.960938 -17.941406 12.191406 -18.171875 12.359375 -18.390625 C 12.523438 -18.609375 12.632812 -18.921875 12.6875 -19.328125 Z M 12.6875 -19.5 "/></g></g></g><g fill="#212121" fill-opacity="1"><g transform="translate(526.179268, 700.945807)"><g/></g></g><g fill="#212121" fill-opacity="1"><g transform="translate(555.291318, 700.945807)"><g><path d="M 14.09375 -3.140625 C 15.488281 -3.140625 16.78125 -3.476562 17.96875 -4.15625 C 19.164062 -4.832031 20.171875 -5.722656 20.984375 -6.828125 L 23.625 -4.296875 C 22.46875 -2.921875 21.0625 -1.800781 19.40625 -0.9375 C 17.757812 -0.0703125 15.988281 0.359375 14.09375 0.359375 C 12.351562 0.359375 10.710938 0.0078125 9.171875 -0.6875 C 7.628906 -1.382812 6.289062 -2.328125 5.15625 -3.515625 C 4.03125 -4.710938 3.132812 -6.109375 2.46875 -7.703125 C 1.8125 -9.304688 1.484375 -11 1.484375 -12.78125 C 1.484375 -14.59375 1.8125 -16.289062 2.46875 -17.875 C 3.132812 -19.46875 4.03125 -20.859375 5.15625 -22.046875 C 6.289062 -23.242188 7.628906 -24.191406 9.171875 -24.890625 C 10.710938 -25.585938 12.351562 -25.9375 14.09375 -25.9375 C 15.707031 -25.9375 17.226562 -25.613281 18.65625 -24.96875 C 20.09375 -24.332031 21.375 -23.5 22.5 -22.46875 L 20.265625 -19.609375 C 19.472656 -20.453125 18.546875 -21.144531 17.484375 -21.6875 C 16.421875 -22.226562 15.289062 -22.5 14.09375 -22.5 C 12.863281 -22.5 11.710938 -22.238281 10.640625 -21.71875 C 9.566406 -21.207031 8.628906 -20.503906 7.828125 -19.609375 C 7.035156 -18.722656 6.40625 -17.695312 5.9375 -16.53125 C 5.46875 -15.363281 5.234375 -14.113281 5.234375 -12.78125 C 5.234375 -11.457031 5.46875 -10.210938 5.9375 -9.046875 C 6.40625 -7.878906 7.035156 -6.851562 7.828125 -5.96875 C 8.628906 -5.09375 9.566406 -4.398438 10.640625 -3.890625 C 11.710938 -3.390625 12.863281 -3.140625 14.09375 -3.140625 Z M 14.09375 -3.140625 "/></g></g></g><g fill="#212121" fill-opacity="1"><g transform="translate(599.754106, 700.945807)"><g><path d="M 13.90625 -25.96875 C 15.644531 -25.96875 17.285156 -25.617188 18.828125 -24.921875 C 20.367188 -24.222656 21.707031 -23.273438 22.84375 -22.078125 C 23.988281 -20.890625 24.898438 -19.492188 25.578125 -17.890625 C 26.253906 -16.296875 26.59375 -14.609375 26.59375 -12.828125 C 26.59375 -11.015625 26.253906 -9.3125 25.578125 -7.71875 C 24.898438 -6.132812 23.984375 -4.742188 22.828125 -3.546875 C 21.671875 -2.359375 20.320312 -1.414062 18.78125 -0.71875 C 17.238281 -0.0195312 15.601562 0.328125 13.875 0.328125 C 12.132812 0.328125 10.492188 -0.0195312 8.953125 -0.71875 C 7.410156 -1.414062 6.066406 -2.359375 4.921875 -3.546875 C 3.785156 -4.742188 2.882812 -6.132812 2.21875 -7.71875 C 1.5625 -9.3125 1.234375 -11.015625 1.234375 -12.828125 C 1.234375 -14.609375 1.5625 -16.296875 2.21875 -17.890625 C 2.882812 -19.492188 3.796875 -20.890625 4.953125 -22.078125 C 6.109375 -23.273438 7.457031 -24.222656 9 -24.921875 C 10.539062 -25.617188 12.175781 -25.96875 13.90625 -25.96875 Z M 13.90625 -3.25 C 15.132812 -3.25 16.285156 -3.492188 17.359375 -3.984375 C 18.429688 -4.484375 19.363281 -5.164062 20.15625 -6.03125 C 20.945312 -6.894531 21.570312 -7.910156 22.03125 -9.078125 C 22.488281 -10.253906 22.71875 -11.503906 22.71875 -12.828125 C 22.71875 -14.148438 22.488281 -15.390625 22.03125 -16.546875 C 21.570312 -17.703125 20.945312 -18.710938 20.15625 -19.578125 C 19.363281 -20.441406 18.429688 -21.117188 17.359375 -21.609375 C 16.285156 -22.109375 15.132812 -22.359375 13.90625 -22.359375 C 12.675781 -22.359375 11.523438 -22.109375 10.453125 -21.609375 C 9.378906 -21.117188 8.445312 -20.441406 7.65625 -19.578125 C 6.863281 -18.710938 6.234375 -17.703125 5.765625 -16.546875 C 5.296875 -15.390625 5.0625 -14.148438 5.0625 -12.828125 C 5.0625 -11.503906 5.296875 -10.253906 5.765625 -9.078125 C 6.234375 -7.910156 6.863281 -6.894531 7.65625 -6.03125 C 8.445312 -5.164062 9.378906 -4.484375 10.453125 -3.984375 C 11.523438 -3.492188 12.675781 -3.25 13.90625 -3.25 Z M 13.90625 -3.25 "/></g></g></g><g fill="#212121" fill-opacity="1"><g transform="translate(647.142589, 700.945807)"><g><path d="M 1.546875 -1.875 C 1.546875 -2.5 1.765625 -3.035156 2.203125 -3.484375 C 2.640625 -3.929688 3.171875 -4.15625 3.796875 -4.15625 C 4.421875 -4.15625 4.945312 -3.929688 5.375 -3.484375 C 5.8125 -3.035156 6.03125 -2.5 6.03125 -1.875 C 6.03125 -1.25 5.8125 -0.71875 5.375 -0.28125 C 4.945312 0.144531 4.421875 0.359375 3.796875 0.359375 C 3.171875 0.359375 2.640625 0.144531 2.203125 -0.28125 C 1.765625 -0.71875 1.546875 -1.25 1.546875 -1.875 Z M 1.546875 -1.875 "/></g></g></g></svg>