<svg xmlns="http://www.w3.org/2000/svg" xmlns:xlink="http://www.w3.org/1999/xlink" width="1080" zoomAndPan="magnify" viewBox="0 0 810 809.999993" height="1080" preserveAspectRatio="xMidYMid meet" version="1.0"><defs><g/></defs><g fill="#000000" fill-opacity="1"><g transform="translate(25.783174, 534.334535)"><g><path d="M 294.875 -467.9375 C 331.382812 -472.519531 361.347656 -470.164062 384.765625 -460.875 C 408.179688 -451.59375 425.695312 -436.945312 437.3125 -416.9375 C 448.9375 -396.925781 455.601562 -373.148438 457.3125 -345.609375 C 459.019531 -318.066406 456.414062 -288.347656 449.5 -256.453125 C 442.59375 -224.554688 432.226562 -192.1875 418.40625 -159.34375 C 404.59375 -126.507812 388.15625 -94.679688 369.09375 -63.859375 C 350.03125 -33.035156 329.054688 -4.953125 306.171875 20.390625 C 283.296875 45.734375 259.296875 66.796875 234.171875 83.578125 C 222.328125 91.472656 210.054688 98.671875 197.359375 105.171875 C 184.671875 111.679688 171.414062 116.910156 157.59375 120.859375 C 141 126.054688 124.222656 128.65625 107.265625 128.65625 C 98.109375 128.84375 89 127.945312 79.9375 125.96875 C 55.894531 120.582031 37.054688 107.53125 23.421875 86.8125 C 11.398438 67.695312 4.488281 46.789062 2.6875 24.09375 C 0.894531 3.007812 1.476562 -17.800781 4.4375 -38.34375 C 7.394531 -58.894531 12.148438 -79.222656 18.703125 -99.328125 C 34.046875 -146.960938 54.367188 -192.269531 79.671875 -235.25 C 85.410156 -244.582031 87.878906 -254.851562 87.078125 -266.0625 C 85.734375 -293.070312 91.023438 -318.128906 102.953125 -341.234375 C 114.890625 -364.335938 131.265625 -384.769531 152.078125 -402.53125 C 172.890625 -420.300781 195.789062 -434.816406 220.78125 -446.078125 C 245.769531 -457.335938 270.46875 -464.625 294.875 -467.9375 Z M 204.96875 85.734375 C 231.976562 69.304688 257.414062 48.597656 281.28125 23.609375 C 305.144531 -1.367188 326.8125 -29 346.28125 -59.28125 C 365.75 -89.5625 382.390625 -120.941406 396.203125 -153.421875 C 410.023438 -185.898438 420.476562 -217.816406 427.5625 -249.171875 C 434.65625 -280.535156 437.863281 -309.785156 437.1875 -336.921875 C 436.519531 -364.066406 431.335938 -387.578125 421.640625 -407.453125 C 411.953125 -427.328125 397.238281 -441.835938 377.5 -450.984375 C 357.757812 -460.140625 332.414062 -462.335938 301.46875 -457.578125 C 274.632812 -453.453125 248.476562 -445.019531 223 -432.28125 C 197.519531 -419.539062 175.113281 -403.050781 155.78125 -382.8125 C 136.445312 -362.582031 122.515625 -339.144531 113.984375 -312.5 C 113.804688 -312.144531 113.71875 -311.785156 113.71875 -311.421875 C 112.375 -307.203125 111.207031 -302.828125 110.21875 -298.296875 C 109.238281 -293.765625 108.835938 -289.035156 109.015625 -284.109375 C 111.523438 -285.898438 113.410156 -287.875 114.671875 -290.03125 C 115.023438 -290.65625 115.378906 -291.367188 115.734375 -292.171875 C 119.679688 -297.472656 123.628906 -302.769531 127.578125 -308.0625 C 133.773438 -316.582031 140.101562 -325.101562 146.5625 -333.625 C 167.914062 -361.4375 192.09375 -386.601562 219.09375 -409.125 C 224.84375 -413.613281 230.765625 -418.054688 236.859375 -422.453125 C 240.453125 -424.960938 244.398438 -426.128906 248.703125 -425.953125 C 250.503906 -426.128906 252.390625 -425.953125 254.359375 -425.421875 C 255.523438 -424.972656 256.421875 -424.253906 257.046875 -423.265625 C 257.585938 -422.453125 257.722656 -421.664062 257.453125 -420.90625 C 257.179688 -420.144531 256.644531 -419.539062 255.84375 -419.09375 C 245.789062 -412.988281 236.410156 -405.988281 227.703125 -398.09375 C 219.003906 -390.195312 210.617188 -382.03125 202.546875 -373.59375 C 187.117188 -357.988281 172.804688 -341.550781 159.609375 -324.28125 C 146.421875 -307.007812 133.90625 -289.265625 122.0625 -271.046875 C 119.644531 -267.546875 117.359375 -264.003906 115.203125 -260.421875 C 114.390625 -259.078125 113.492188 -257.820312 112.515625 -256.65625 C 110.359375 -253.0625 109.863281 -249.203125 111.03125 -245.078125 C 115.96875 -225.335938 126.53125 -209.140625 142.71875 -196.484375 C 158.914062 -183.835938 177.195312 -177.109375 197.5625 -176.296875 C 202.851562 -176.296875 208.148438 -176.925781 213.453125 -178.1875 C 247.816406 -186.082031 271.632812 -206.40625 284.90625 -239.15625 C 286.882812 -244.09375 288.457031 -249.207031 289.625 -254.5 C 290.15625 -257.101562 290.828125 -259.566406 291.640625 -261.890625 C 293.253906 -266.648438 295.945312 -268.625 299.71875 -267.8125 C 300.882812 -268.257812 302.140625 -268.257812 303.484375 -267.8125 C 305.453125 -267.007812 306.679688 -265.867188 307.171875 -264.390625 C 307.671875 -262.910156 307.742188 -261.316406 307.390625 -259.609375 C 307.390625 -259.160156 307.300781 -258.847656 307.125 -258.671875 C 307.125 -258.304688 307.125 -257.988281 307.125 -257.71875 C 301.914062 -232.875 290.875 -212.507812 274 -196.625 C 257.132812 -180.738281 236.1875 -171.316406 211.15625 -168.359375 C 205.238281 -167.734375 199.5 -167.421875 193.9375 -167.421875 C 173.832031 -167.242188 155.769531 -171.550781 139.75 -180.34375 C 123.738281 -189.132812 110.128906 -202.726562 98.921875 -221.125 C 98.554688 -221.476562 98.238281 -221.835938 97.96875 -222.203125 C 97.4375 -223.816406 96.453125 -225.113281 95.015625 -226.09375 C 94.835938 -225.738281 94.566406 -225.335938 94.203125 -224.890625 C 93.222656 -223.359375 92.238281 -221.695312 91.25 -219.90625 C 89.09375 -215.957031 87.03125 -212.007812 85.0625 -208.0625 C 79.132812 -197.382812 73.570312 -186.617188 68.375 -175.765625 C 58.5 -154.679688 49.722656 -133.210938 42.046875 -111.359375 C 34.378906 -89.515625 28.570312 -67.066406 24.625 -44.015625 C 22.65625 -31.535156 21.378906 -19.035156 20.796875 -6.515625 C 20.210938 5.992188 20.90625 18.570312 22.875 31.21875 C 24.582031 41.269531 27.117188 50.9375 30.484375 60.21875 C 33.847656 69.507812 38.488281 78.28125 44.40625 86.53125 C 58.675781 105.738281 77.519531 116.414062 100.9375 118.5625 C 103.71875 118.75 106.5 118.84375 109.28125 118.84375 C 115.195312 118.84375 121.207031 118.257812 127.3125 117.09375 C 141.132812 114.3125 154.457031 110.203125 167.28125 104.765625 C 180.113281 99.335938 192.675781 92.992188 204.96875 85.734375 Z M 204.96875 85.734375 "/></g></g></g><g fill="#000000" fill-opacity="1"><g transform="translate(451.266233, 534.334535)"><g><path d="M 65.140625 -64.203125 C 68.097656 -67.160156 70.5625 -68.816406 72.53125 -69.171875 C 74.507812 -69.535156 75.789062 -69.222656 76.375 -68.234375 C 76.957031 -67.242188 76.578125 -65.898438 75.234375 -64.203125 C 67.335938 -54.691406 58.5 -46.476562 48.71875 -39.5625 C 38.9375 -32.65625 28.863281 -28.660156 18.5 -27.578125 C 8.132812 -26.503906 1.878906 -32.160156 -0.265625 -44.546875 C -1.878906 -56.835938 5.5625 -81.867188 22.0625 -119.640625 C 38.570312 -157.410156 51.628906 -188.363281 61.234375 -212.5 C 62.046875 -214.65625 63.257812 -216.539062 64.875 -218.15625 C 67.019531 -220.3125 69.578125 -220.804688 72.546875 -219.640625 C 73.523438 -219.191406 74.507812 -218.472656 75.5 -217.484375 C 76.488281 -216.492188 76.800781 -214.742188 76.4375 -212.234375 C 34 -111.566406 13.453125 -56.835938 14.796875 -48.046875 C 16.148438 -39.253906 21.828125 -37.078125 31.828125 -41.515625 C 41.828125 -45.960938 49.539062 -50.492188 54.96875 -55.109375 C 60.40625 -59.734375 63.796875 -62.765625 65.140625 -64.203125 Z M 65.140625 -64.203125 "/></g></g></g><g fill="#000000" fill-opacity="1"><g transform="translate(518.412379, 534.334535)"><g><path d="M 53.5 -56.71875 C 48.695312 -51.03125 43.019531 -45.804688 36.46875 -41.046875 C 29.914062 -36.296875 22.515625 -33.085938 14.265625 -31.421875 C 6.015625 -29.765625 -0.394531 -30.367188 -4.96875 -33.234375 C -9.550781 -36.109375 -10.453125 -42.484375 -7.671875 -52.359375 C -4.078125 -62.578125 0.859375 -72.3125 7.140625 -81.5625 C 8.566406 -83.53125 10.628906 -84.921875 13.328125 -85.734375 C 15.296875 -86.179688 17.019531 -85.84375 18.5 -84.71875 C 19.976562 -83.59375 20.539062 -82.179688 20.1875 -80.484375 C 18.84375 -77.253906 17.363281 -74.023438 15.75 -70.796875 C 14.132812 -67.566406 13.054688 -65.457031 12.515625 -64.46875 C 9.378906 -58.726562 7.179688 -52.71875 5.921875 -46.4375 C 5.921875 -42.84375 10.71875 -42.613281 20.3125 -45.75 C 29.914062 -48.894531 39.25 -54.660156 48.3125 -63.046875 C 57.375 -71.441406 61.703125 -73.910156 61.296875 -70.453125 C 60.898438 -66.992188 58.300781 -62.414062 53.5 -56.71875 Z M 30.015625 -101.75 C 29.566406 -101.382812 28.644531 -100.953125 27.25 -100.453125 C 25.863281 -99.960938 24.382812 -99.601562 22.8125 -99.375 C 21.238281 -99.15625 20.003906 -99.40625 19.109375 -100.125 C 18.210938 -100.84375 18.164062 -102.28125 18.96875 -104.4375 C 20.40625 -108.207031 21.910156 -111.503906 23.484375 -114.328125 C 25.054688 -117.148438 27.097656 -120.269531 29.609375 -123.6875 C 31.222656 -125.207031 32.972656 -126.035156 34.859375 -126.171875 C 36.742188 -126.304688 38.3125 -125.8125 39.5625 -124.6875 C 40.820312 -123.570312 41.179688 -122.023438 40.640625 -120.046875 C 38.671875 -112.960938 35.128906 -106.863281 30.015625 -101.75 Z M 30.015625 -101.75 "/></g></g></g><g fill="#000000" fill-opacity="1"><g transform="translate(570.891313, 534.334535)"><g><path d="M 85.859375 -113.3125 C 85.054688 -111.34375 84.070312 -109.460938 82.90625 -107.671875 C 68.28125 -83.984375 51.679688 -61.957031 33.109375 -41.59375 C 30.597656 -38.625 27.859375 -35.972656 24.890625 -33.640625 C 22.109375 -31.671875 19.148438 -30.28125 16.015625 -29.46875 C 7.128906 -27.945312 1.96875 -31.492188 0.53125 -40.109375 C 0.175781 -45.492188 0.175781 -50.832031 0.53125 -56.125 C 0.53125 -58.539062 0.53125 -60.914062 0.53125 -63.25 C 0.53125 -63.25 0.664062 -63.25 0.9375 -63.25 C 0.9375 -64.863281 0.9375 -66.4375 0.9375 -67.96875 C 0.9375 -71.914062 0.9375 -75.863281 0.9375 -79.8125 C 0.9375 -81.957031 1.03125 -84.15625 1.21875 -86.40625 C 2.195312 -91.332031 4.660156 -93.890625 8.609375 -94.078125 C 12.921875 -93.890625 15.300781 -90.835938 15.75 -84.921875 C 15.75 -83.304688 15.613281 -81.828125 15.34375 -80.484375 C 15.164062 -79.046875 15.078125 -77.742188 15.078125 -76.578125 C 14.710938 -67.867188 14.441406 -59.078125 14.265625 -50.203125 C 14.265625 -48.222656 15.117188 -47.054688 16.828125 -46.703125 C 17.453125 -46.703125 18.007812 -46.832031 18.5 -47.09375 C 19 -47.363281 19.425781 -47.726562 19.78125 -48.1875 C 24.988281 -54.28125 30.054688 -60.378906 34.984375 -66.484375 C 36.960938 -68.910156 38.9375 -71.285156 40.90625 -73.609375 C 43.0625 -76.390625 45.21875 -79.039062 47.375 -81.5625 C 55.894531 -92.238281 64.460938 -102.820312 73.078125 -113.3125 C 74.066406 -114.664062 75.210938 -115.832031 76.515625 -116.8125 C 77.816406 -117.800781 79.453125 -118.296875 81.421875 -118.296875 C 83.035156 -118.117188 84.425781 -117.535156 85.59375 -116.546875 C 85.957031 -116.191406 86.140625 -115.695312 86.140625 -115.0625 C 86.140625 -114.4375 86.046875 -113.851562 85.859375 -113.3125 Z M 85.859375 -113.3125 "/></g></g></g><g fill="#000000" fill-opacity="1"><g transform="translate(642.477962, 534.334535)"><g><path d="M 53.5 -56.71875 C 48.695312 -51.03125 43.019531 -45.804688 36.46875 -41.046875 C 29.914062 -36.296875 22.515625 -33.085938 14.265625 -31.421875 C 6.015625 -29.765625 -0.394531 -30.367188 -4.96875 -33.234375 C -9.550781 -36.109375 -10.453125 -42.484375 -7.671875 -52.359375 C -4.078125 -62.578125 0.859375 -72.3125 7.140625 -81.5625 C 8.566406 -83.53125 10.628906 -84.921875 13.328125 -85.734375 C 15.296875 -86.179688 17.019531 -85.84375 18.5 -84.71875 C 19.976562 -83.59375 20.539062 -82.179688 20.1875 -80.484375 C 18.84375 -77.253906 17.363281 -74.023438 15.75 -70.796875 C 14.132812 -67.566406 13.054688 -65.457031 12.515625 -64.46875 C 9.378906 -58.726562 7.179688 -52.71875 5.921875 -46.4375 C 5.921875 -42.84375 10.71875 -42.613281 20.3125 -45.75 C 29.914062 -48.894531 39.25 -54.660156 48.3125 -63.046875 C 57.375 -71.441406 61.703125 -73.910156 61.296875 -70.453125 C 60.898438 -66.992188 58.300781 -62.414062 53.5 -56.71875 Z M 30.015625 -101.75 C 29.566406 -101.382812 28.644531 -100.953125 27.25 -100.453125 C 25.863281 -99.960938 24.382812 -99.601562 22.8125 -99.375 C 21.238281 -99.15625 20.003906 -99.40625 19.109375 -100.125 C 18.210938 -100.84375 18.164062 -102.28125 18.96875 -104.4375 C 20.40625 -108.207031 21.910156 -111.503906 23.484375 -114.328125 C 25.054688 -117.148438 27.097656 -120.269531 29.609375 -123.6875 C 31.222656 -125.207031 32.972656 -126.035156 34.859375 -126.171875 C 36.742188 -126.304688 38.3125 -125.8125 39.5625 -124.6875 C 40.820312 -123.570312 41.179688 -122.023438 40.640625 -120.046875 C 38.671875 -112.960938 35.128906 -106.863281 30.015625 -101.75 Z M 30.015625 -101.75 "/></g></g></g><g fill="#000000" fill-opacity="1"><g transform="translate(694.956895, 534.334535)"><g><path d="M 97.640625 -68.5625 C 99.742188 -67.351562 99.898438 -64.414062 98.109375 -59.75 C 95.503906 -56.34375 92.722656 -53.160156 89.765625 -50.203125 C 86.804688 -47.242188 83.578125 -44.597656 80.078125 -42.265625 C 79.804688 -42.265625 79.671875 -42.171875 79.671875 -41.984375 C 77.335938 -40.367188 74.867188 -38.976562 72.265625 -37.8125 C 50.828125 -30.101562 39.882812 -34.632812 39.4375 -51.40625 C 30.726562 -43.875 24.894531 -39.253906 21.9375 -37.546875 C 14.851562 -33.328125 7.179688 -31.441406 -1.078125 -31.890625 C -7.179688 -32.253906 -11.332031 -34.117188 -13.53125 -37.484375 C -15.726562 -40.847656 -15.523438 -45.398438 -12.921875 -51.140625 C -8.972656 -60.203125 -3.363281 -68.273438 3.90625 -75.359375 C 12.425781 -83.253906 21.890625 -89.582031 32.296875 -94.34375 C 37.859375 -97.125 43.691406 -98.203125 49.796875 -97.578125 C 55.898438 -97.210938 59.578125 -93.753906 60.828125 -87.203125 C 61.367188 -85.234375 60.875 -83.484375 59.34375 -81.953125 C 57.375 -80.160156 55.085938 -79.757812 52.484375 -80.75 C 52.304688 -80.75 52.0625 -80.789062 51.75 -80.875 C 51.4375 -80.96875 51.1875 -81.101562 51 -81.28125 C 48.40625 -84.875 45.78125 -86.378906 43.125 -85.796875 C 40.476562 -85.210938 37.675781 -84.023438 34.71875 -82.234375 C 20.90625 -74.160156 10.632812 -62.898438 3.90625 -48.453125 C 3.539062 -47.816406 3.3125 -47.117188 3.21875 -46.359375 C 3.132812 -45.597656 3.363281 -44.992188 3.90625 -44.546875 C 5.519531 -44.003906 7.3125 -44.113281 9.28125 -44.875 C 11.257812 -45.644531 13.234375 -46.769531 15.203125 -48.25 C 17.179688 -49.726562 18.84375 -50.960938 20.1875 -51.953125 C 20.363281 -52.222656 20.453125 -52.359375 20.453125 -52.359375 C 27.003906 -57.828125 33.421875 -63.429688 39.703125 -69.171875 C 42.484375 -72.128906 45.9375 -73.789062 50.0625 -74.15625 C 55.988281 -74.15625 58.457031 -71.507812 57.46875 -66.21875 C 56.925781 -64.238281 56.34375 -62.265625 55.71875 -60.296875 C 53.382812 -51.765625 53.289062 -46.757812 55.4375 -45.28125 C 57.59375 -43.800781 60.890625 -43.800781 65.328125 -45.28125 C 69.773438 -46.757812 74.21875 -49.585938 78.65625 -53.765625 C 83.101562 -57.941406 86.851562 -61.753906 89.90625 -65.203125 C 92.957031 -68.660156 95.535156 -69.78125 97.640625 -68.5625 Z M 97.640625 -68.5625 "/></g></g></g><g fill="#000000" fill-opacity="1"><g transform="translate(454.377027, 581.559501)"><g><path d="M 1.328125 -31.15625 L 4.890625 -31.15625 L 13.125 -5.125 L 21.59375 -31.15625 L 24.703125 -31.15625 L 33.171875 -5.125 L 41.40625 -31.15625 L 44.953125 -31.15625 L 34.71875 0 L 31.390625 0 L 23.140625 -26.046875 L 14.90625 0 L 11.578125 0 Z M 1.328125 -31.15625 "/></g></g></g><g fill="#000000" fill-opacity="1"><g transform="translate(529.157703, 581.559501)"><g><path d="M 4.671875 -31.15625 L 8.015625 -31.15625 L 8.015625 0 L 4.671875 0 Z M 4.671875 -31.15625 "/></g></g></g><g fill="#000000" fill-opacity="1"><g transform="translate(570.336706, 581.559501)"><g><path d="M 4.671875 -31.15625 L 8.015625 -31.15625 L 8.015625 -3.109375 L 24.03125 -3.109375 L 24.03125 0 L 4.671875 0 Z M 4.671875 -31.15625 "/></g></g></g><g fill="#000000" fill-opacity="1"><g transform="translate(623.754731, 581.559501)"><g><path d="M 12.46875 0.4375 C 10.6875 0.4375 9.132812 0.203125 7.8125 -0.265625 C 6.488281 -0.742188 5.398438 -1.28125 4.546875 -1.875 C 3.535156 -2.550781 2.6875 -3.335938 2 -4.234375 L 4 -6.5 C 4.570312 -5.757812 5.253906 -5.117188 6.046875 -4.578125 C 6.734375 -4.078125 7.609375 -3.632812 8.671875 -3.25 C 9.742188 -2.863281 11.007812 -2.671875 12.46875 -2.671875 C 14.8125 -2.671875 16.582031 -3.210938 17.78125 -4.296875 C 18.988281 -5.378906 19.59375 -6.765625 19.59375 -8.453125 C 19.59375 -9.460938 19.347656 -10.285156 18.859375 -10.921875 C 18.367188 -11.566406 17.726562 -12.109375 16.9375 -12.546875 C 16.15625 -12.992188 15.257812 -13.375 14.25 -13.6875 C 13.238281 -14 12.195312 -14.316406 11.125 -14.640625 C 10.0625 -14.972656 9.023438 -15.335938 8.015625 -15.734375 C 7.003906 -16.140625 6.101562 -16.660156 5.3125 -17.296875 C 4.53125 -17.929688 3.894531 -18.71875 3.40625 -19.65625 C 2.914062 -20.59375 2.671875 -21.753906 2.671875 -23.140625 C 2.671875 -24.273438 2.898438 -25.351562 3.359375 -26.375 C 3.816406 -27.394531 4.484375 -28.289062 5.359375 -29.0625 C 6.234375 -29.832031 7.285156 -30.445312 8.515625 -30.90625 C 9.753906 -31.375 11.144531 -31.609375 12.6875 -31.609375 C 14.195312 -31.609375 15.515625 -31.398438 16.640625 -30.984375 C 17.773438 -30.566406 18.726562 -30.109375 19.5 -29.609375 C 20.382812 -29.015625 21.15625 -28.34375 21.8125 -27.59375 L 19.59375 -25.375 C 19.113281 -25.9375 18.53125 -26.457031 17.84375 -26.9375 C 17.25 -27.320312 16.53125 -27.675781 15.6875 -28 C 14.84375 -28.320312 13.84375 -28.484375 12.6875 -28.484375 C 11.613281 -28.484375 10.660156 -28.332031 9.828125 -28.03125 C 9.003906 -27.738281 8.3125 -27.347656 7.75 -26.859375 C 7.1875 -26.367188 6.753906 -25.804688 6.453125 -25.171875 C 6.160156 -24.535156 6.015625 -23.859375 6.015625 -23.140625 C 6.015625 -21.804688 6.425781 -20.773438 7.25 -20.046875 C 8.082031 -19.328125 9.128906 -18.726562 10.390625 -18.25 C 11.648438 -17.78125 13.007812 -17.347656 14.46875 -16.953125 C 15.925781 -16.566406 17.285156 -16.054688 18.546875 -15.421875 C 19.804688 -14.785156 20.847656 -13.925781 21.671875 -12.84375 C 22.503906 -11.757812 22.921875 -10.296875 22.921875 -8.453125 C 22.921875 -7.179688 22.691406 -6.003906 22.234375 -4.921875 C 21.773438 -3.835938 21.097656 -2.894531 20.203125 -2.09375 C 19.316406 -1.289062 18.21875 -0.664062 16.90625 -0.21875 C 15.601562 0.21875 14.125 0.4375 12.46875 0.4375 Z M 12.46875 0.4375 "/></g></g></g><g fill="#000000" fill-opacity="1"><g transform="translate(677.395267, 581.559501)"><g><path d="M 18.703125 0.4375 C 16.472656 0.4375 14.382812 0.0234375 12.4375 -0.796875 C 10.5 -1.628906 8.800781 -2.769531 7.34375 -4.21875 C 5.882812 -5.675781 4.738281 -7.375 3.90625 -9.3125 C 3.082031 -11.257812 2.671875 -13.347656 2.671875 -15.578125 C 2.671875 -17.804688 3.082031 -19.890625 3.90625 -21.828125 C 4.738281 -23.773438 5.882812 -25.472656 7.34375 -26.921875 C 8.800781 -28.378906 10.5 -29.523438 12.4375 -30.359375 C 14.382812 -31.191406 16.472656 -31.609375 18.703125 -31.609375 C 20.921875 -31.609375 23 -31.191406 24.9375 -30.359375 C 26.882812 -29.523438 28.585938 -28.378906 30.046875 -26.921875 C 31.503906 -25.472656 32.644531 -23.773438 33.46875 -21.828125 C 34.300781 -19.890625 34.71875 -17.804688 34.71875 -15.578125 C 34.71875 -13.347656 34.300781 -11.257812 33.46875 -9.3125 C 32.644531 -7.375 31.503906 -5.675781 30.046875 -4.21875 C 28.585938 -2.769531 26.882812 -1.628906 24.9375 -0.796875 C 23 0.0234375 20.921875 0.4375 18.703125 0.4375 Z M 18.703125 -2.671875 C 20.484375 -2.671875 22.144531 -2.992188 23.6875 -3.640625 C 25.226562 -4.296875 26.566406 -5.203125 27.703125 -6.359375 C 28.847656 -7.523438 29.75 -8.894531 30.40625 -10.46875 C 31.0625 -12.039062 31.390625 -13.742188 31.390625 -15.578125 C 31.390625 -17.421875 31.0625 -19.128906 30.40625 -20.703125 C 29.75 -22.273438 28.847656 -23.640625 27.703125 -24.796875 C 26.566406 -25.953125 25.226562 -26.851562 23.6875 -27.5 C 22.144531 -28.15625 20.484375 -28.484375 18.703125 -28.484375 C 16.921875 -28.484375 15.253906 -28.15625 13.703125 -27.5 C 12.160156 -26.851562 10.816406 -25.953125 9.671875 -24.796875 C 8.535156 -23.640625 7.640625 -22.273438 6.984375 -20.703125 C 6.335938 -19.128906 6.015625 -17.421875 6.015625 -15.578125 C 6.015625 -13.742188 6.335938 -12.039062 6.984375 -10.46875 C 7.640625 -8.894531 8.535156 -7.523438 9.671875 -6.359375 C 10.816406 -5.203125 12.160156 -4.296875 13.703125 -3.640625 C 15.253906 -2.992188 16.921875 -2.671875 18.703125 -2.671875 Z M 18.703125 -2.671875 "/></g></g></g><g fill="#000000" fill-opacity="1"><g transform="translate(743.274812, 581.559501)"><g><path d="M 4.671875 -31.15625 L 7.5625 -31.15625 L 26.703125 -6.015625 L 26.703125 -31.15625 L 30.046875 -31.15625 L 30.046875 0 L 27.15625 0 L 8.015625 -25.15625 L 8.015625 0 L 4.671875 0 Z M 4.671875 -31.15625 "/></g></g></g></svg>