<svg xmlns="http://www.w3.org/2000/svg" xmlns:xlink="http://www.w3.org/1999/xlink" width="1080" zoomAndPan="magnify" viewBox="0 0 810 809.999993" height="1080" preserveAspectRatio="xMidYMid meet" version="1.0"><defs><g/><clipPath id="062cdf6be8"><path d="M 219.542969 10.121094 L 590.117188 10.121094 L 590.117188 623.226562 L 219.542969 623.226562 Z M 219.542969 10.121094 " clip-rule="nonzero"/></clipPath><clipPath id="e7f8d13b5a"><path d="M 219.542969 195.082031 C 219.542969 92.660156 302.570312 9.628906 404.992188 9.628906 C 507.414062 9.628906 590.445312 92.660156 590.445312 195.082031 L 590.445312 437.777344 C 590.445312 540.199219 507.414062 623.226562 404.992188 623.226562 C 302.570312 623.226562 219.542969 540.199219 219.542969 437.777344 Z M 219.542969 195.082031 " clip-rule="nonzero"/></clipPath><clipPath id="ad42e0e1d2"><path d="M 389.683594 26.300781 L 420.316406 26.300781 L 420.316406 56.933594 L 389.683594 56.933594 Z M 389.683594 26.300781 " clip-rule="nonzero"/></clipPath><clipPath id="5397e11ad6"><path d="M 405 26.300781 C 396.539062 26.300781 389.683594 33.15625 389.683594 41.617188 C 389.683594 50.078125 396.539062 56.933594 405 56.933594 C 413.460938 56.933594 420.316406 50.078125 420.316406 41.617188 C 420.316406 33.15625 413.460938 26.300781 405 26.300781 Z M 405 26.300781 " clip-rule="nonzero"/></clipPath><clipPath id="f90299ee47"><path d="M 389.683594 575.652344 L 420.316406 575.652344 L 420.316406 606.289062 L 389.683594 606.289062 Z M 389.683594 575.652344 " clip-rule="nonzero"/></clipPath><clipPath id="98fde97516"><path d="M 405 575.652344 C 396.539062 575.652344 389.683594 582.511719 389.683594 590.96875 C 389.683594 599.429688 396.539062 606.289062 405 606.289062 C 413.460938 606.289062 420.316406 599.429688 420.316406 590.96875 C 420.316406 582.511719 413.460938 575.652344 405 575.652344 Z M 405 575.652344 " clip-rule="nonzero"/></clipPath></defs><g clip-path="url(#062cdf6be8)"><g clip-path="url(#e7f8d13b5a)"><path stroke-linecap="butt" transform="matrix(0, -1.231146, 1.231146, 0, 219.541574, 623.226493)" fill="none" stroke-linejoin="miter" d="M 347.761029 0.00113284 C 430.953362 0.00113284 498.395629 67.440227 498.395629 150.63256 C 498.395629 233.824893 430.953362 301.267159 347.761029 301.267159 L 150.63137 301.267159 C 67.439037 301.267159 -0.0000567388 233.824893 -0.0000567388 150.63256 C -0.0000567388 67.440227 67.439037 0.00113284 150.63137 0.00113284 Z M 347.761029 0.00113284 " stroke="#000000" stroke-width="4.873509" stroke-opacity="1" stroke-miterlimit="4"/></g></g><g clip-path="url(#ad42e0e1d2)"><g clip-path="url(#5397e11ad6)"><path fill="#000000" d="M 389.683594 26.300781 L 420.316406 26.300781 L 420.316406 56.933594 L 389.683594 56.933594 Z M 389.683594 26.300781 " fill-opacity="1" fill-rule="nonzero"/></g></g><g fill="#000000" fill-opacity="1"><g transform="translate(256.15207, 504.066341)"><g><path d="M 60.40625 -225.8125 L 60.40625 0 L 19.046875 0 L 19.046875 -384.15625 L 60.40625 -384.15625 L 60.40625 -255.75 C 60.40625 -239.78125 63.125 -227.710938 68.5625 -219.546875 C 74 -211.390625 81.253906 -205.859375 90.328125 -202.953125 C 99.398438 -200.054688 109.554688 -198.695312 120.796875 -198.875 C 132.046875 -199.0625 143.5625 -199.515625 155.34375 -200.234375 C 167.132812 -200.960938 178.472656 -201.054688 189.359375 -200.515625 C 200.242188 -199.972656 209.765625 -197.429688 217.921875 -192.890625 C 226.085938 -188.359375 232.164062 -180.648438 236.15625 -169.765625 L 236.15625 -384.15625 L 278.59375 -384.15625 L 278.59375 0 L 236.15625 0 L 236.15625 -140.390625 C 236.15625 -155.984375 233.429688 -167.859375 227.984375 -176.015625 C 222.546875 -184.179688 215.289062 -189.625 206.21875 -192.34375 C 197.15625 -195.070312 187.09375 -196.4375 176.03125 -196.4375 C 164.96875 -196.4375 153.539062 -196.070312 141.75 -195.34375 C 129.957031 -194.625 118.617188 -194.625 107.734375 -195.34375 C 96.859375 -196.070312 87.25 -198.613281 78.90625 -202.96875 C 70.5625 -207.320312 64.394531 -214.9375 60.40625 -225.8125 Z M 60.40625 -225.8125 "/></g></g></g><g clip-path="url(#f90299ee47)"><g clip-path="url(#98fde97516)"><path fill="#000000" d="M 389.683594 575.652344 L 420.316406 575.652344 L 420.316406 606.289062 L 389.683594 606.289062 Z M 389.683594 575.652344 " fill-opacity="1" fill-rule="nonzero"/></g></g><g fill="#000000" fill-opacity="1"><g transform="translate(56.572309, 719.742725)"><g><path d="M 3.390625 0 L 3.390625 -1.015625 L 7.46875 -2.03125 L 7.46875 -45.5 L 3.390625 -46.515625 L 3.390625 -47.53125 L 22.75 -47.53125 L 22.75 -46.515625 L 18.671875 -45.5 L 18.671875 -24.453125 L 33.28125 -24.453125 L 33.28125 -45.5 L 29.203125 -46.515625 L 29.203125 -47.53125 L 48.546875 -47.53125 L 48.546875 -46.515625 L 44.484375 -45.5 L 44.484375 -2.03125 L 48.546875 -1.015625 L 48.546875 0 L 29.203125 0 L 29.203125 -1.015625 L 33.28125 -2.03125 L 33.28125 -22.75 L 18.671875 -22.75 L 18.671875 -2.03125 L 22.75 -1.015625 L 22.75 0 Z M 3.390625 0 "/></g></g></g><g fill="#000000" fill-opacity="1"><g transform="translate(108.501124, 719.742725)"><g><path d="M -1.359375 -1.015625 L 4.078125 -3.0625 L 22.75 -48.21875 L 24.78125 -48.21875 L 44.140625 -2.03125 L 47.53125 -1.015625 L 47.53125 0 L 39.390625 0 C 37.035156 0 35.109375 -0.53125 33.609375 -1.59375 C 32.117188 -2.65625 31.007812 -4.046875 30.28125 -5.765625 L 26.828125 -13.921875 L 10.59375 -13.921875 L 6.109375 -3.0625 L 11.203125 -1.015625 L 11.203125 0 L -1.359375 0 Z M 11.265625 -15.625 L 26.140625 -15.625 L 18.671875 -33.484375 Z M 11.265625 -15.625 "/></g></g></g><g fill="#000000" fill-opacity="1"><g transform="translate(154.660057, 719.742725)"><g><path d="M 9.5 -35.984375 L 9.5 -3.0625 L 14.9375 -1.015625 L 14.9375 0 L 2.03125 0 L 2.03125 -1.015625 L 7.46875 -3.0625 L 7.46875 -45.15625 L 2.71875 -46.515625 L 2.71875 -47.53125 L 9.84375 -47.53125 C 12.25 -47.53125 14.128906 -47.097656 15.484375 -46.234375 C 16.835938 -45.378906 18.128906 -44.226562 19.359375 -42.78125 L 41.078125 -17.3125 L 41.078125 -44.484375 L 35.65625 -46.515625 L 35.65625 -47.53125 L 48.546875 -47.53125 L 48.546875 -46.515625 L 43.125 -44.484375 L 43.125 1.015625 L 41.078125 1.015625 Z M 9.5 -35.984375 "/></g></g></g><g fill="#000000" fill-opacity="1"><g transform="translate(204.891835, 719.742725)"><g><path d="M 25.125 1.015625 C 20.6875 1.015625 16.800781 0.0546875 13.46875 -1.859375 C 10.144531 -3.785156 7.578125 -6.601562 5.765625 -10.3125 C 3.960938 -14.03125 3.0625 -18.515625 3.0625 -23.765625 C 3.0625 -29.015625 3.960938 -33.492188 5.765625 -37.203125 C 7.578125 -40.921875 10.144531 -43.738281 13.46875 -45.65625 C 16.800781 -47.582031 20.6875 -48.546875 25.125 -48.546875 C 29.5625 -48.546875 33.441406 -47.582031 36.765625 -45.65625 C 40.097656 -43.738281 42.664062 -40.921875 44.46875 -37.203125 C 46.28125 -33.492188 47.1875 -29.015625 47.1875 -23.765625 C 47.1875 -18.515625 46.28125 -14.03125 44.46875 -10.3125 C 42.664062 -6.601562 40.097656 -3.785156 36.765625 -1.859375 C 33.441406 0.0546875 29.5625 1.015625 25.125 1.015625 Z M 25.125 -0.34375 C 26.894531 -0.34375 28.535156 -1.085938 30.046875 -2.578125 C 31.566406 -4.078125 32.820312 -6.566406 33.8125 -10.046875 C 34.8125 -13.535156 35.3125 -18.109375 35.3125 -23.765625 C 35.3125 -29.421875 34.8125 -33.992188 33.8125 -37.484375 C 32.820312 -40.972656 31.566406 -43.460938 30.046875 -44.953125 C 28.535156 -46.441406 26.894531 -47.1875 25.125 -47.1875 C 23.363281 -47.1875 21.722656 -46.441406 20.203125 -44.953125 C 18.679688 -43.460938 17.421875 -40.972656 16.421875 -37.484375 C 15.429688 -33.992188 14.9375 -29.421875 14.9375 -23.765625 C 14.9375 -18.109375 15.429688 -13.535156 16.421875 -10.046875 C 17.421875 -6.566406 18.679688 -4.078125 20.203125 -2.578125 C 21.722656 -1.085938 23.363281 -0.34375 25.125 -0.34375 Z M 25.125 -0.34375 "/></g></g></g><g fill="#000000" fill-opacity="1"><g transform="translate(255.123614, 719.742725)"><g><path d="M 2.03125 -45.5 L -1.359375 -46.515625 L -1.359375 -47.53125 L 6.796875 -47.53125 C 9.148438 -47.53125 11.070312 -47 12.5625 -45.9375 C 14.050781 -44.875 15.179688 -43.484375 15.953125 -41.765625 L 27.984375 -14.390625 L 39.046875 -44.484375 L 33.953125 -46.515625 L 33.953125 -47.53125 L 46.515625 -47.53125 L 46.515625 -46.515625 L 41.078125 -44.484375 L 24.453125 0.671875 L 22.40625 0.671875 Z M 2.03125 -45.5 "/></g></g></g><g fill="#000000" fill-opacity="1"><g transform="translate(300.264336, 719.742725)"><g><path d="M 3.390625 -1.015625 L 7.46875 -2.03125 L 7.46875 -45.5 L 3.390625 -46.515625 L 3.390625 -47.53125 L 39.71875 -47.53125 L 39.71875 -35.3125 L 37.6875 -35.3125 C 36.820312 -35.988281 36.078125 -36.847656 35.453125 -37.890625 C 34.003906 -40.335938 33.28125 -42.988281 33.28125 -45.84375 L 18.671875 -45.84375 L 18.671875 -24.453125 L 26.484375 -24.453125 C 26.796875 -26.171875 27.382812 -27.773438 28.25 -29.265625 C 28.613281 -29.941406 29.046875 -30.597656 29.546875 -31.234375 L 31.578125 -31.234375 L 31.578125 -15.953125 L 29.546875 -15.953125 C 29.046875 -16.585938 28.613281 -17.242188 28.25 -17.921875 C 27.382812 -19.421875 26.796875 -21.03125 26.484375 -22.75 L 18.671875 -22.75 L 18.671875 -1.703125 L 34.625 -1.703125 C 34.625 -4.546875 35.351562 -7.191406 36.8125 -9.640625 C 37.4375 -10.679688 38.179688 -11.539062 39.046875 -12.21875 L 41.078125 -12.21875 L 41.078125 0 L 3.390625 0 Z M 3.390625 -1.015625 "/></g></g></g><g fill="#000000" fill-opacity="1"><g transform="translate(344.047459, 719.742725)"><g><path d="M 3.390625 -1.015625 L 7.46875 -2.03125 L 7.46875 -45.5 L 3.390625 -46.515625 L 3.390625 -47.53125 L 21.390625 -47.53125 C 29.085938 -47.53125 34.632812 -46.363281 38.03125 -44.03125 C 41.425781 -41.707031 43.125 -38.460938 43.125 -34.296875 C 43.125 -31.484375 42.375 -29.207031 40.875 -27.46875 C 39.382812 -25.726562 37.460938 -24.425781 35.109375 -23.5625 C 32.617188 -22.613281 29.96875 -22.113281 27.15625 -22.0625 L 27.15625 -21.734375 C 28.832031 -21.640625 30.304688 -21.390625 31.578125 -20.984375 C 34.742188 -19.984375 36.894531 -18.195312 38.03125 -15.625 L 44.140625 -2.03125 L 47.53125 -1.015625 L 47.53125 0 L 38.03125 0 C 34.3125 0 31.59375 -1.921875 29.875 -5.765625 L 23.09375 -21.046875 L 18.671875 -21.046875 L 18.671875 -2.03125 L 23.421875 -1.015625 L 23.421875 0 L 3.390625 0 Z M 21.390625 -22.75 C 24.554688 -22.75 27.046875 -23.742188 28.859375 -25.734375 C 30.671875 -27.722656 31.578125 -30.578125 31.578125 -34.296875 C 31.578125 -38.003906 30.671875 -40.851562 28.859375 -42.84375 C 27.046875 -44.84375 24.554688 -45.84375 21.390625 -45.84375 L 18.671875 -45.84375 L 18.671875 -22.75 Z M 21.390625 -22.75 "/></g></g></g><g fill="#000000" fill-opacity="1"><g transform="translate(391.564016, 719.742725)"><g/></g></g><g fill="#000000" fill-opacity="1"><g transform="translate(410.570649, 719.742725)"><g><path d="M -1.359375 -1.015625 L 4.078125 -3.0625 L 22.75 -48.21875 L 24.78125 -48.21875 L 44.140625 -2.03125 L 47.53125 -1.015625 L 47.53125 0 L 39.390625 0 C 37.035156 0 35.109375 -0.53125 33.609375 -1.59375 C 32.117188 -2.65625 31.007812 -4.046875 30.28125 -5.765625 L 26.828125 -13.921875 L 10.59375 -13.921875 L 6.109375 -3.0625 L 11.203125 -1.015625 L 11.203125 0 L -1.359375 0 Z M 11.265625 -15.625 L 26.140625 -15.625 L 18.671875 -33.484375 Z M 11.265625 -15.625 "/></g></g></g><g fill="#000000" fill-opacity="1"><g transform="translate(456.729581, 719.742725)"><g><path d="M 9.5 -35.984375 L 9.5 -3.0625 L 14.9375 -1.015625 L 14.9375 0 L 2.03125 0 L 2.03125 -1.015625 L 7.46875 -3.0625 L 7.46875 -45.15625 L 2.71875 -46.515625 L 2.71875 -47.53125 L 9.84375 -47.53125 C 12.25 -47.53125 14.128906 -47.097656 15.484375 -46.234375 C 16.835938 -45.378906 18.128906 -44.226562 19.359375 -42.78125 L 41.078125 -17.3125 L 41.078125 -44.484375 L 35.65625 -46.515625 L 35.65625 -47.53125 L 48.546875 -47.53125 L 48.546875 -46.515625 L 43.125 -44.484375 L 43.125 1.015625 L 41.078125 1.015625 Z M 9.5 -35.984375 "/></g></g></g><g fill="#000000" fill-opacity="1"><g transform="translate(506.96136, 719.742725)"><g><path d="M 3.390625 -1.015625 L 7.46875 -2.03125 L 7.46875 -45.5 L 3.390625 -46.515625 L 3.390625 -47.53125 L 20.71875 -47.53125 C 28.8125 -47.53125 35.019531 -45.445312 39.34375 -41.28125 C 43.675781 -37.125 45.84375 -31.285156 45.84375 -23.765625 C 45.84375 -16.253906 43.675781 -10.414062 39.34375 -6.25 C 35.019531 -2.082031 28.8125 0 20.71875 0 L 3.390625 0 Z M 20.71875 -1.703125 C 24.925781 -1.703125 28.179688 -3.410156 30.484375 -6.828125 C 32.796875 -10.242188 33.953125 -15.890625 33.953125 -23.765625 C 33.953125 -31.640625 32.796875 -37.285156 30.484375 -40.703125 C 28.179688 -44.128906 24.925781 -45.84375 20.71875 -45.84375 L 18.671875 -45.84375 L 18.671875 -1.703125 Z M 20.71875 -1.703125 "/></g></g></g><g fill="#000000" fill-opacity="1"><g transform="translate(555.496129, 719.742725)"><g/></g></g><g fill="#000000" fill-opacity="1"><g transform="translate(574.502762, 719.742725)"><g><path d="M 11.890625 -1.015625 L 15.953125 -2.03125 L 15.953125 -45.84375 L 8.15625 -45.84375 C 8.15625 -43.070312 7.40625 -40.421875 5.90625 -37.890625 C 5.269531 -36.847656 4.546875 -35.988281 3.734375 -35.3125 L 1.703125 -35.3125 L 1.703125 -47.53125 L 41.421875 -47.53125 L 41.421875 -35.3125 L 39.390625 -35.3125 C 38.523438 -35.988281 37.773438 -36.847656 37.140625 -37.890625 C 35.691406 -40.335938 34.96875 -42.988281 34.96875 -45.84375 L 27.15625 -45.84375 L 27.15625 -2.03125 L 31.234375 -1.015625 L 31.234375 0 L 11.890625 0 Z M 11.890625 -1.015625 "/></g></g></g><g fill="#000000" fill-opacity="1"><g transform="translate(617.607034, 719.742725)"><g><path d="M 13.234375 -1.015625 L 17.3125 -2.03125 L 17.3125 -17.65625 L 3.390625 -45.5 L 0 -46.515625 L 0 -47.53125 L 8.484375 -47.53125 C 10.835938 -47.53125 12.726562 -47.03125 14.15625 -46.03125 C 15.582031 -45.039062 16.75 -43.617188 17.65625 -41.765625 L 27.703125 -21.734375 L 38.03125 -44.484375 L 32.9375 -46.515625 L 32.9375 -47.53125 L 45.84375 -47.53125 L 45.84375 -46.515625 L 40.40625 -44.484375 L 28.515625 -18.328125 L 28.515625 -2.03125 L 32.59375 -1.015625 L 32.59375 0 L 13.234375 0 Z M 13.234375 -1.015625 "/></g></g></g><g fill="#000000" fill-opacity="1"><g transform="translate(662.747729, 719.742725)"><g><path d="M 3.390625 -1.015625 L 7.46875 -2.03125 L 7.46875 -45.5 L 3.390625 -46.515625 L 3.390625 -47.53125 L 22.75 -47.53125 L 22.75 -46.515625 L 18.671875 -45.5 L 18.671875 -24.171875 L 35.3125 -44.484375 L 30.21875 -46.515625 L 30.21875 -47.53125 L 43.125 -47.53125 L 43.125 -46.515625 L 37.6875 -44.484375 L 25.796875 -29.875 L 44.140625 -2.03125 L 47.53125 -1.015625 L 47.53125 0 L 38.03125 0 C 35.988281 0 34.253906 -0.507812 32.828125 -1.53125 C 31.398438 -2.550781 30.078125 -3.960938 28.859375 -5.765625 L 18.671875 -21.390625 L 18.671875 -2.03125 L 22.75 -1.015625 L 22.75 0 L 3.390625 0 Z M 3.390625 -1.015625 "/></g></g></g><g fill="#000000" fill-opacity="1"><g transform="translate(709.585461, 719.742725)"><g><path d="M 3.390625 -1.015625 L 7.46875 -2.03125 L 7.46875 -45.5 L 3.390625 -46.515625 L 3.390625 -47.53125 L 39.71875 -47.53125 L 39.71875 -35.3125 L 37.6875 -35.3125 C 36.820312 -35.988281 36.078125 -36.847656 35.453125 -37.890625 C 34.003906 -40.335938 33.28125 -42.988281 33.28125 -45.84375 L 18.671875 -45.84375 L 18.671875 -24.453125 L 26.484375 -24.453125 C 26.796875 -26.171875 27.382812 -27.773438 28.25 -29.265625 C 28.613281 -29.941406 29.046875 -30.597656 29.546875 -31.234375 L 31.578125 -31.234375 L 31.578125 -15.953125 L 29.546875 -15.953125 C 29.046875 -16.585938 28.613281 -17.242188 28.25 -17.921875 C 27.382812 -19.421875 26.796875 -21.03125 26.484375 -22.75 L 18.671875 -22.75 L 18.671875 -1.703125 L 34.625 -1.703125 C 34.625 -4.546875 35.351562 -7.191406 36.8125 -9.640625 C 37.4375 -10.679688 38.179688 -11.539062 39.046875 -12.21875 L 41.078125 -12.21875 L 41.078125 0 L 3.390625 0 Z M 3.390625 -1.015625 "/></g></g></g><g fill="#000000" fill-opacity="1"><g transform="translate(262.330848, 800.949079)"><g><path d="M 14.328125 -23.625 L 42.78125 -23.625 L 42.78125 0 L 48.953125 0 L 48.953125 -47.53125 L 42.78125 -47.53125 L 42.78125 -26.75 L 14.328125 -26.75 L 14.328125 -47.53125 L 8.15625 -47.53125 L 8.15625 0 L 14.328125 0 Z M 14.328125 -23.625 "/></g></g></g><g fill="#000000" fill-opacity="1"><g transform="translate(319.431348, 800.949079)"><g><path d="M 3.390625 -23.765625 C 3.390625 -21.234375 3.875 -18.53125 4.84375 -15.65625 C 5.820312 -12.78125 7.351562 -10.117188 9.4375 -7.671875 C 11.519531 -5.222656 14.164062 -3.195312 17.375 -1.59375 C 20.59375 0.0078125 24.441406 0.8125 28.921875 0.8125 C 31.960938 0.8125 34.710938 0.441406 37.171875 -0.296875 C 39.640625 -1.046875 41.859375 -2.054688 43.828125 -3.328125 C 45.796875 -4.597656 47.503906 -6.054688 48.953125 -7.703125 C 50.410156 -9.359375 51.601562 -11.101562 52.53125 -12.9375 C 53.457031 -14.769531 54.15625 -16.613281 54.625 -18.46875 C 55.101562 -20.320312 55.34375 -22.085938 55.34375 -23.765625 C 55.34375 -26.296875 54.820312 -29 53.78125 -31.875 C 52.738281 -34.75 51.128906 -37.410156 48.953125 -39.859375 C 46.785156 -42.304688 44.035156 -44.332031 40.703125 -45.9375 C 37.378906 -47.539062 33.453125 -48.34375 28.921875 -48.34375 C 24.441406 -48.34375 20.59375 -47.550781 17.375 -45.96875 C 14.164062 -44.382812 11.519531 -42.378906 9.4375 -39.953125 C 7.351562 -37.535156 5.820312 -34.878906 4.84375 -31.984375 C 3.875 -29.085938 3.390625 -26.347656 3.390625 -23.765625 Z M 10.046875 -23.765625 C 10.046875 -26.929688 10.53125 -29.835938 11.5 -32.484375 C 12.476562 -35.140625 13.816406 -37.414062 15.515625 -39.3125 C 17.210938 -41.21875 19.210938 -42.703125 21.515625 -43.765625 C 23.828125 -44.828125 26.34375 -45.359375 29.0625 -45.359375 C 31.726562 -45.359375 34.25 -44.828125 36.625 -43.765625 C 39.007812 -42.703125 41.09375 -41.21875 42.875 -39.3125 C 44.664062 -37.414062 46.082031 -35.140625 47.125 -32.484375 C 48.164062 -29.835938 48.6875 -26.929688 48.6875 -23.765625 C 48.6875 -20.597656 48.164062 -17.6875 47.125 -15.03125 C 46.082031 -12.382812 44.664062 -10.109375 42.875 -8.203125 C 41.09375 -6.304688 39.007812 -4.828125 36.625 -3.765625 C 34.25 -2.703125 31.726562 -2.171875 29.0625 -2.171875 C 26.34375 -2.171875 23.828125 -2.703125 21.515625 -3.765625 C 19.210938 -4.828125 17.210938 -6.304688 15.515625 -8.203125 C 13.816406 -10.109375 12.476562 -12.382812 11.5 -15.03125 C 10.53125 -17.6875 10.046875 -20.597656 10.046875 -23.765625 Z M 10.046875 -23.765625 "/></g></g></g><g fill="#000000" fill-opacity="1"><g transform="translate(378.161346, 800.949079)"><g><path d="M 25.734375 0 L 25.734375 -43.796875 L 43.9375 -43.796875 L 43.9375 -47.53125 L 1.359375 -47.53125 L 1.359375 -43.796875 L 19.5625 -43.796875 L 19.5625 0 Z M 25.734375 0 "/></g></g></g><g fill="#000000" fill-opacity="1"><g transform="translate(423.447955, 800.949079)"><g><path d="M 8.15625 -47.53125 L 8.15625 0 L 38.84375 0 L 38.84375 -3.734375 L 14.328125 -3.734375 L 14.328125 -23.625 L 35.375 -23.625 L 35.375 -26.75 L 14.328125 -26.75 L 14.328125 -43.796875 L 38.84375 -43.796875 L 38.84375 -47.53125 Z M 8.15625 -47.53125 "/></g></g></g><g fill="#000000" fill-opacity="1"><g transform="translate(464.321311, 800.949079)"><g><path d="M 8.15625 0 L 8.15625 -47.53125 L 14.328125 -47.53125 L 14.328125 -3.734375 L 38.84375 -3.734375 L 38.84375 0 Z M 8.15625 0 "/></g></g></g><g fill="#000000" fill-opacity="1"><g transform="translate(505.194667, 800.949079)"><g><path d="M 2.515625 -12.015625 C 2.597656 -10.066406 3.101562 -8.300781 4.03125 -6.71875 C 4.96875 -5.132812 6.238281 -3.785156 7.84375 -2.671875 C 9.445312 -1.566406 11.332031 -0.707031 13.5 -0.09375 C 15.675781 0.507812 18.054688 0.8125 20.640625 0.8125 C 23.265625 0.8125 25.628906 0.492188 27.734375 -0.140625 C 29.835938 -0.773438 31.632812 -1.679688 33.125 -2.859375 C 34.625 -4.035156 35.78125 -5.457031 36.59375 -7.125 C 37.414062 -8.800781 37.828125 -10.660156 37.828125 -12.703125 C 37.828125 -15.503906 37.125 -17.796875 35.71875 -19.578125 C 34.3125 -21.367188 32.554688 -22.863281 30.453125 -24.0625 C 28.347656 -25.269531 26.0625 -26.28125 23.59375 -27.09375 C 21.125 -27.90625 18.835938 -28.765625 16.734375 -29.671875 C 14.628906 -30.578125 12.875 -31.617188 11.46875 -32.796875 C 10.070312 -33.972656 9.375 -35.535156 9.375 -37.484375 C 9.375 -38.566406 9.609375 -39.582031 10.078125 -40.53125 C 10.554688 -41.488281 11.257812 -42.316406 12.1875 -43.015625 C 13.113281 -43.722656 14.253906 -44.289062 15.609375 -44.71875 C 16.972656 -45.144531 18.535156 -45.359375 20.296875 -45.359375 C 23.242188 -45.359375 25.742188 -44.734375 27.796875 -43.484375 C 29.859375 -42.242188 31.070312 -40.289062 31.4375 -37.625 L 36.0625 -37.625 C 35.789062 -39.289062 35.175781 -40.789062 34.21875 -42.125 C 33.269531 -43.46875 32.070312 -44.601562 30.625 -45.53125 C 29.175781 -46.457031 27.535156 -47.15625 25.703125 -47.625 C 23.867188 -48.101562 21.957031 -48.34375 19.96875 -48.34375 C 17.882812 -48.34375 15.898438 -48.070312 14.015625 -47.53125 C 12.140625 -46.988281 10.488281 -46.195312 9.0625 -45.15625 C 7.632812 -44.113281 6.5 -42.800781 5.65625 -41.21875 C 4.820312 -39.632812 4.40625 -37.820312 4.40625 -35.78125 C 4.40625 -33.113281 5.082031 -30.960938 6.4375 -29.328125 C 7.800781 -27.703125 9.515625 -26.34375 11.578125 -25.25 C 13.640625 -24.164062 15.867188 -23.238281 18.265625 -22.46875 C 20.660156 -21.707031 22.890625 -20.835938 24.953125 -19.859375 C 27.015625 -18.890625 28.722656 -17.703125 30.078125 -16.296875 C 31.441406 -14.890625 32.125 -13.007812 32.125 -10.65625 C 32.125 -7.71875 31.046875 -5.566406 28.890625 -4.203125 C 26.742188 -2.847656 23.878906 -2.171875 20.296875 -2.171875 C 17.453125 -2.171875 15.164062 -2.539062 13.4375 -3.28125 C 11.71875 -4.03125 10.40625 -4.925781 9.5 -5.96875 C 8.601562 -7.007812 7.992188 -8.082031 7.671875 -9.1875 C 7.359375 -10.300781 7.175781 -11.242188 7.125 -12.015625 Z M 2.515625 -12.015625 "/></g></g></g><path stroke-linecap="butt" transform="matrix(1.231146, 0, 0, 1.231146, 56.491549, 777.109373)" fill="none" stroke-linejoin="miter" d="M 0.0005189 1.500763 L 151.326787 1.500763 " stroke="#000000" stroke-width="3" stroke-opacity="1" stroke-miterlimit="4"/><path stroke-linecap="butt" transform="matrix(1.231146, 0, 0, 1.231146, 567.202295, 777.109373)" fill="none" stroke-linejoin="miter" d="M 0.000674197 1.500763 L 151.326942 1.500763 " stroke="#000000" stroke-width="3" stroke-opacity="1" stroke-miterlimit="4"/></svg>