<svg viewBox="0 0 80 80" fill="none" xmlns="http://www.w3.org/2000/svg"><path clip-rule="evenodd" d="M40 1.26C18.605 1.26 1.26 18.606 1.26 40c0 21.395 17.345 38.74 38.74 38.74 21.395 0 38.74-17.345 38.74-38.74C78.74 18.605 61.394 1.26 40 1.26ZM0 40C0 17.909 17.909 0 40 0s40 17.909 40 40-17.909 40-40 40S0 62.091 0 40Z" fill-rule="evenodd" fill="#fff"></path><path d="m12.987 44.125-5.218.398-.148-1.959c-.032-.398 0-.722.083-.972.088-.25.237-.45.445-.602.208-.153.435-.24.671-.26.223-.018.44.029.644.135.208.106.38.278.518.514.07-.324.209-.579.417-.764.209-.185.468-.292.773-.315.246-.018.477.014.695.102.217.088.389.204.514.347.125.144.227.329.3.551.075.227.126.505.154.834l.152 1.99Zm-3.079-.459-.088-1.13c-.023-.305-.06-.523-.11-.652a.715.715 0 0 0-.292-.375.763.763 0 0 0-.468-.098.825.825 0 0 0-.45.162.648.648 0 0 0-.245.376c-.037.157-.041.425-.013.8l.078 1.042 1.588-.125Zm2.413-.185-.102-1.301a3.267 3.267 0 0 0-.06-.468 1.164 1.164 0 0 0-.172-.389.748.748 0 0 0-.31-.24.894.894 0 0 0-.449-.07.856.856 0 0 0-.495.19.808.808 0 0 0-.274.44c-.046.18-.055.44-.027.768l.092 1.209 1.797-.14ZM8.385 32.619l.134-.68 2.968.578c.519.102.917.24 1.195.417.282.176.486.435.62.778.13.342.148.759.051 1.254-.092.482-.255.861-.481 1.135-.227.273-.51.444-.848.514-.338.069-.782.05-1.329-.056l-2.963-.574.134-.68 2.968.578c.445.088.783.111 1.01.07a.977.977 0 0 0 .574-.334c.153-.18.26-.417.315-.708.097-.5.055-.88-.13-1.135-.185-.254-.602-.449-1.245-.574l-2.973-.583ZM15.372 28.53l-4.153-2.023-.755 1.551-.556-.268 1.815-3.732.556.268-.76 1.556 4.154 2.023-.301.625ZM18.97 22.835l-3.538-2.972-1.111 1.32-.472-.399 2.671-3.176.472.398-1.115 1.329 3.537 2.973-.445.527ZM22.752 18.965l-3.032-4.27 3.088-2.194.356.505-2.523 1.791.93 1.306 2.362-1.68.357.5-2.362 1.68 1.033 1.454 2.62-1.861.357.504-3.186 2.265ZM28.776 15.21l-1.792-4.922 2.181-.792c.44-.157.787-.236 1.046-.231.26.004.5.097.718.268.218.176.375.398.477.667.125.347.12.685-.019 1.005-.138.319-.43.601-.88.838.204.018.362.055.482.101.255.107.514.26.778.459l1.343 1.028-.82.296-1.023-.787a10.688 10.688 0 0 0-.718-.51 1.603 1.603 0 0 0-.449-.208.973.973 0 0 0-.342-.023c-.08.01-.204.046-.37.107l-.756.273.797 2.185-.653.246Zm-.352-2.987 1.399-.51c.296-.106.518-.221.666-.346a.788.788 0 0 0 .273-.436.886.886 0 0 0-.027-.49.783.783 0 0 0-.463-.482c-.223-.088-.519-.065-.885.065l-1.556.565.593 1.634ZM36.022 13.098l-.472-5.213 3.519-.32.055.616-2.829.26.149 1.615 2.449-.222.055.616-2.449.222.218 2.37-.695.056ZM42.713 12.922l.787-5.176.685.102-.695 4.565 2.552.389-.093.611-3.236-.49ZM49.848 14.635l.824-2.06-.755-3.551.783.315.37 1.847c.07.343.12.685.167 1.019.245-.195.537-.412.875-.649l1.514-1.05.75.3-3.06 2.028-.825 2.06-.643-.259ZM58.404 19.724l3.83-3.57.712.764-1.866 3.436c-.176.32-.305.555-.398.713.18-.088.45-.209.806-.37l3.519-1.566.634.68-3.829 3.57-.454-.49 3.204-2.986-4.245 1.875-.427-.459 2.227-4.148-3.26 3.037-.453-.486ZM63.382 25.641l5.579-.565.338.667-3.709 4.274-.356-.704 1.139-1.26-.987-1.953-1.676.203-.328-.662Zm2.602.38.8 1.583 1.047-1.139c.32-.347.583-.62.801-.82a6.705 6.705 0 0 1-1.019.2l-1.63.176ZM66.46 32.693l5.13-1.047.464 2.274c.093.458.12.815.074 1.07a1.163 1.163 0 0 1-.37.67 1.47 1.47 0 0 1-.732.371 1.309 1.309 0 0 1-.99-.166c-.297-.186-.533-.52-.7-.996-.051.2-.106.352-.171.463a3.65 3.65 0 0 1-.57.704l-1.213 1.176-.176-.852.93-.898c.27-.26.468-.473.607-.635.14-.162.227-.3.273-.416.047-.116.07-.227.074-.338 0-.08-.018-.209-.05-.385l-.163-.787-2.277.468-.14-.676Zm3.006.092.296 1.459c.064.31.143.546.245.708a.824.824 0 0 0 .39.338c.161.06.323.074.485.042.241-.05.426-.18.547-.384.12-.209.143-.5.064-.885l-.328-1.625-1.7.347ZM67.498 40.083l5.227.347-.046.69-2.593-.172 2.421 2.765-.06.935-1.972-2.334-3.26 2.084.06-.912 2.77-1.686-.779-.912-1.81-.12.042-.685ZM16.185 59.751l.265.664c-.548.218-1.053.26-1.518.13-.463-.13-.858-.418-1.178-.858-.334-.46-.51-.896-.534-1.318-.023-.422.089-.836.335-1.244a3.62 3.62 0 0 1 .974-1.053c.44-.32.89-.515 1.34-.59a2.14 2.14 0 0 1 1.277.177c.399.186.733.469 1.007.845.31.426.459.858.454 1.308-.004.445-.162.868-.473 1.267l-.534-.46c.237-.325.358-.63.362-.919.005-.287-.097-.575-.301-.858-.237-.325-.515-.542-.83-.65a1.53 1.53 0 0 0-.966-.004c-.33.102-.63.255-.914.46a3.241 3.241 0 0 0-.83.844 1.445 1.445 0 0 0-.246.928c.027.32.134.608.324.867.228.316.515.516.854.604.339.093.72.042 1.132-.14ZM18.264 64.614l3.285-4.092 2.96 2.375-.39.483-2.417-1.94-1.007 1.253 2.265 1.82-.386.482-2.264-1.82-1.118 1.393 2.515 2.018-.39.483-3.053-2.455ZM25.27 69.454l2.084-4.817 2.134.924c.432.185.738.371.923.552.186.18.297.413.34.691.036.279 0 .548-.112.812-.149.344-.385.58-.706.72-.324.139-.728.139-1.22.004.135.153.228.288.279.408.111.251.194.543.25.868l.27 1.675-.803-.348-.205-1.276c-.06-.37-.12-.659-.171-.863a1.68 1.68 0 0 0-.186-.464 1.13 1.13 0 0 0-.236-.255 2.033 2.033 0 0 0-.344-.176l-.738-.32-.923 2.138-.636-.273Zm1.8-2.418 1.37.594c.292.126.533.195.723.204.19.01.358-.032.501-.125a.856.856 0 0 0 .316-.376.782.782 0 0 0-.005-.668c-.102-.218-.33-.404-.686-.557l-1.527-.658-.691 1.586ZM34.856 72.52l.697-4.574-1.708-.26.093-.613 4.11.627-.092.612-1.717-.26-.696 4.575-.687-.106ZM41.561 72.92l-.278-5.239.691-.037.279 5.239-.692.037ZM46.948 72.275l-1.35-5.072 3.42-.91.157.6-2.751.733.417 1.568 2.38-.636.159.598-2.38.636.612 2.302-.664.18ZM54.516 69.611l-2.366-4.686.621-.31 2.367 4.685-.622.311ZM59.193 66.865l-3.3-4.079 2.952-2.385.39.482-2.408 1.95 1.011 1.247 2.255-1.827.385.477-2.255 1.829 1.123 1.387 2.506-2.028.39.483-3.049 2.464ZM65.401 61.06l-4.26-3.067 1.059-1.466c.236-.33.44-.57.607-.715.233-.204.483-.338.757-.403.352-.089.714-.08 1.09.018.376.102.752.288 1.133.562.324.231.584.478.78.733.194.255.333.5.412.738.079.236.116.459.107.667-.01.21-.06.427-.153.664a3.624 3.624 0 0 1-.423.738l-1.109 1.531Zm-.097-.928.654-.91c.204-.278.334-.519.399-.718.065-.2.08-.377.056-.544a1.643 1.643 0 0 0-.316-.7 3.268 3.268 0 0 0-.737-.705c-.446-.32-.84-.497-1.183-.52-.344-.028-.632.037-.864.185-.167.112-.37.33-.612.669l-.645.895 3.248 2.348ZM68.5 50.783a.674.674 0 1 0 0-1.348.674.674 0 0 0 0 1.348ZM11.76 50.783a.674.674 0 1 0 0-1.348.674.674 0 0 0 0 1.348Z" fill="#fff"></path><path clip-rule="evenodd" d="M23.547 27.428c.479 1.919 1.248 4.65 2.116 7.09.467 1.314.958 2.53 1.442 3.483.242.477.477.878.7 1.189.2.28.371.46.507.561l5.68 1.95-.105 1.178c-.81.125-2.042.431-3.08.933-.52.251-.964.538-1.283.852-.317.313-.485.626-.521.942v.003l-.001.003c-.164 1.31-.192 3.357.25 5.22.447 1.882 1.33 3.408 2.851 3.974l.032.012.03.015c.967.486 3.839.972 7.011-1.596-1.664-2.153-2.263-3.763-2.404-5.067l-.003-.03v-.029c-.012-1.223.467-2.033 1.161-2.501.647-.436 1.402-.524 1.917-.501 1.354-.01 2.272.371 2.84 1.017.556.632.676 1.406.683 1.972v.003c.004.52-.145 1.095-.35 1.645a11.519 11.519 0 0 1-.8 1.664c-.307.532-.64 1.033-.953 1.443-.113.15-.229.293-.342.424.708.555 1.729 1.113 2.864 1.496 1.543.52 3.137.663 4.313.17 1.785-.83 3.518-3.51 2.824-9.334a1.691 1.691 0 0 0-.248-.745c-.136-.21-.353-.428-.72-.651-.758-.46-2.06-.89-4.295-1.34l-.027-1.187.157-.039c.614-.152 1.572-.389 2.562-.693 1.048-.323 2.077-.705 2.765-1.117.916-1.182 3.32-5.213 4.827-12.457-.709-.339-1.658-.404-2.7-.308-.985.09-1.948.31-2.723.489l-.466.105c-1.776.48-5.745 2.466-9.447 7.228 1.169 1.46 2.035 2.788 2.552 3.722l.075.135.001.154c.014 1.486-.494 2.49-1.215 3.114-.699.605-1.535.799-2.111.806h-.032l-.032-.002c-1.41-.13-2.28-.82-2.748-1.67-.448-.813-.505-1.723-.424-2.323l.015-.11.053-.098a32.69 32.69 0 0 1 2.317-3.694c-2.256-2.662-5.478-5.622-9.357-7.294-.926-.399-2.292-.633-3.595-.634-.646-.001-1.256.056-1.768.168-.324.072-.59.161-.795.26Zm16.268 6.508c-2.343-2.722-5.642-5.701-9.628-7.42-1.12-.483-2.662-.732-4.076-.734-.711 0-1.412.061-2.03.197-.608.134-1.189.35-1.614.696l-.299.242.091.374c.474 1.953 1.305 4.958 2.257 7.634.475 1.338.986 2.607 1.504 3.627.258.51.524.969.795 1.346.265.371.56.7.889.913l.062.04 3.864 1.326c-.454.149-.916.328-1.353.54-.59.284-1.16.64-1.608 1.08-.449.443-.798.997-.875 1.668-.177 1.412-.21 3.61.274 5.648.477 2.011 1.504 4.034 3.58 4.822 1.435.704 4.837 1.095 8.377-1.82.862.712 2.082 1.376 3.374 1.812 1.666.562 3.61.8 5.186.134l.009-.004.009-.004c2.508-1.159 4.25-4.554 3.532-10.588a2.903 2.903 0 0 0-.434-1.262c-.258-.398-.625-.735-1.112-1.03-.565-.343-1.316-.645-2.302-.928.14-.041.283-.084.426-.128 1.104-.34 2.31-.779 3.142-1.302l.086-.054.064-.08c1.027-1.273 3.656-5.647 5.222-13.487l.079-.39-.328-.229c-1.097-.763-2.56-.833-3.842-.716-1.076.099-2.137.343-2.91.52-.162.038-.31.072-.444.101l-.013.003-.013.004c-2.012.539-6.121 2.627-9.94 7.449Zm.255 18.467c-1.5-1.965-1.97-3.334-2.084-4.333 0-.838.308-1.237.625-1.451.36-.243.834-.312 1.193-.294l.018.001h.019c1.134-.01 1.667.302 1.932.604.28.318.374.749.38 1.181.001.306-.09.72-.274 1.208-.18.48-.432.993-.715 1.484-.281.49-.586.946-.865 1.312a7.8 7.8 0 0 1-.229.288Zm-.211-16.498a31.57 31.57 0 0 0-1.987 3.191c-.035.407.026.98.295 1.47.27.488.772.942 1.76 1.041.354-.01.875-.14 1.3-.509.397-.344.772-.947.794-2.03-.469-.826-1.2-1.938-2.162-3.163Z" fill-rule="evenodd" fill="#fff"></path></svg>
