<svg xmlns="http://www.w3.org/2000/svg" fill="none" viewBox="0 0 38 31" height="31" width="38">
<path fill="#3D7E8F" d="M9.57643 0.903114C9.91037 0.287957 10.6368 0.0126005 11.293 0.252805L18.9971 3.05324L26.7012 0.252805C27.3574 0.0126005 28.0897 0.293815 28.4178 0.903114L33.1985 9.74966C35.0967 13.2707 33.8195 17.5592 30.5269 19.5336L32.6243 25.2985L35.8583 24.1209C36.5906 23.8573 37.3933 24.2322 37.6628 24.9587C37.9323 25.6852 37.5514 26.4937 36.825 26.7632L32.267 28.4212L27.7089 30.0792C26.9766 30.3428 26.174 29.9678 25.9045 29.2414C25.635 28.5149 26.0158 27.7064 26.7423 27.4369L29.9762 26.2593L27.8788 20.4886C24.2933 21.0393 20.7489 18.7544 19.8935 15.0693L18.9971 11.2143L18.1008 15.0693C17.2454 18.7544 13.7009 21.0393 10.1154 20.4886L8.01803 26.2593L11.252 27.4369C11.9843 27.7005 12.3593 28.509 12.0898 29.2414C11.8203 29.9737 11.0177 30.3486 10.2853 30.0792L5.73316 28.4212L1.17514 26.7632C0.442806 26.4937 0.0678534 25.691 0.337351 24.9587C0.606849 24.2264 1.40948 23.8514 2.14181 24.1209L5.36993 25.2985L7.46732 19.5336C4.17476 17.5592 2.89172 13.2707 4.79578 9.74966L9.57643 0.903114ZM11.4746 3.30516L9.43582 7.07812L16.4779 9.63835L17.4446 5.47871L11.4746 3.30516ZM7.26813 11.0854C5.95579 13.5168 7.10408 16.5515 9.70532 17.4948C12.1249 18.3736 14.773 16.9441 15.3589 14.4307L15.8335 12.3978L8.08248 9.57976L7.26813 11.0854ZM26.5196 3.30516L20.5497 5.47871L21.5163 9.63835L28.5584 7.07812L26.5196 3.30516ZM30.7203 11.0796L29.9059 9.5739L22.1608 12.3978L22.6353 14.4307C23.2212 16.9441 25.8693 18.3736 28.2889 17.4948C30.8843 16.5515 32.0385 13.5168 30.7261 11.0854L30.7203 11.0796Z"></path>
</svg>
