<svg viewBox="0 0 188 16" fill="none" xmlns="http://www.w3.org/2000/svg"><path d="M35.71.433a.322.322 0 0 1 .085.233v14.723a.313.313 0 0 1-.085.232.313.313 0 0 1-.232.085h-2.564c-.182 0-.286-.104-.317-.317l-.062-.65c-.8.84-1.737 1.261-2.816 1.261a4.55 4.55 0 0 1-2.521-.727 4.986 4.986 0 0 1-1.776-1.966c-.43-.828-.642-1.738-.642-2.736 0-.998.213-1.907.642-2.735a5.014 5.014 0 0 1 1.776-1.966 4.59 4.59 0 0 1 2.521-.728c.925 0 1.837.372 2.607 1.115V.666c0-.097.027-.175.085-.233a.307.307 0 0 1 .232-.085h2.84c.096 0 .173.027.231.085M31.63 12.146c.39-.449.588-.983.588-1.598a2.29 2.29 0 0 0-.588-1.579 1.905 1.905 0 0 0-1.474-.65c-.591 0-1.075.21-1.462.63-.386.423-.576.953-.576 1.599s.193 1.184.576 1.617c.387.434.874.65 1.462.65s1.08-.224 1.474-.673M45.526 6.048a.722.722 0 0 1-.042.166l-.778 2.02c-.058.182-.17.275-.336.275a.745.745 0 0 1-.19-.02 2.583 2.583 0 0 0-.881-.166c-.646 0-1.145.209-1.505.62-.36.413-.537.936-.537 1.566v4.88a.313.313 0 0 1-.086.232.307.307 0 0 1-.232.085H38.1a.313.313 0 0 1-.232-.085.307.307 0 0 1-.085-.232V5.71c0-.096.027-.174.085-.232a.322.322 0 0 1 .232-.085h2.735c.182 0 .286.104.317.317l.085 1.262c.603-1.208 1.493-1.811 2.669-1.811.294 0 .568.054.82.158.251.105.464.236.63.391.112.112.17.225.17.337ZM46.768 5.48A.316.316 0 0 1 47 5.393h2.839c.097 0 .174.027.232.085a.307.307 0 0 1 .085.232v9.674c0 .1-.027.174-.085.232a.315.315 0 0 1-.232.085H47a.312.312 0 0 1-.232-.085.307.307 0 0 1-.085-.232V5.71c0-.096.027-.174.085-.232ZM60.622 5.723c.572.371 1.029.898 1.365 1.579.337.68.503 1.47.503 2.364v5.719c0 .1-.027.174-.085.232a.307.307 0 0 1-.232.085h-2.839a.306.306 0 0 1-.232-.085c-.058-.054-.085-.132-.085-.232V10.4c0-.743-.163-1.261-.484-1.556a1.654 1.654 0 0 0-1.156-.44c-.39 0-.723.104-.986.313a1.931 1.931 0 0 0-.588.735c-.128.282-.19.518-.19.716v5.216c0 .1-.027.174-.085.232-.054.058-.131.085-.232.085h-2.839a.306.306 0 0 1-.232-.085c-.058-.054-.085-.132-.085-.232V5.71c0-.096.027-.174.085-.232.054-.058.132-.085.232-.085h2.754c.182 0 .286.104.313.317l.085 1.262a3.815 3.815 0 0 1 1.292-1.324c.526-.32 1.133-.483 1.818-.483s1.319.185 1.891.557M75.4 15.512c0 .128-.085.19-.251.19H72.12c-.17 0-.294-.062-.38-.19l-2.71-3.594-1.072 1.157v2.314a.313.313 0 0 1-.085.232.307.307 0 0 1-.232.085h-2.84a.312.312 0 0 1-.231-.085.316.316 0 0 1-.085-.232V.666c0-.097.027-.175.085-.233.054-.058.131-.085.232-.085h2.839c.097 0 .174.027.232.085.058.055.085.132.085.233v8.203l3.005-3.3a.48.48 0 0 1 .38-.171h3.217c.085 0 .15.02.201.054a.168.168 0 0 1 .074.135c0 .055-.035.12-.105.19l-3.573 3.85 4.184 5.7a.31.31 0 0 1 .062.19M86.257 5.48a.329.329 0 0 1 .085.231v9.674a.313.313 0 0 1-.085.232.312.312 0 0 1-.232.085H83.46c-.182 0-.287-.104-.314-.317l-.062-.65c-.8.84-1.736 1.261-2.815 1.261a4.55 4.55 0 0 1-2.522-.727 4.985 4.985 0 0 1-1.775-1.966c-.43-.828-.642-1.737-.642-2.736 0-.998.212-1.907.642-2.735a5.013 5.013 0 0 1 1.775-1.966 4.581 4.581 0 0 1 2.522-.727c1.079 0 2.019.448 2.815 1.346l.062-.778c.027-.209.132-.317.314-.317h2.564c.096 0 .174.027.232.085m-4.08 6.671c.39-.449.587-.983.587-1.598 0-.615-.197-1.141-.587-1.579a1.905 1.905 0 0 0-1.474-.65c-.592 0-1.075.21-1.462.63-.387.423-.576.953-.576 1.599s.193 1.184.576 1.617c.387.434.874.65 1.462.65s1.079-.224 1.474-.673M105.951 5.49c.05.063.054.152.012.264l-3.574 9.697c-.054.17-.182.251-.379.251h-2.692a.381.381 0 0 1-.379-.252l-2.123-5.552-2.1 5.553c-.058.17-.182.251-.38.251h-2.71a.381.381 0 0 1-.38-.252l-3.554-9.696a.439.439 0 0 1-.02-.147c0-.14.093-.21.275-.21h2.777c.197 0 .321.086.38.252l1.995 5.975 2.019-5.975c.042-.127.112-.197.209-.209a.395.395 0 0 1 .17-.042h2.65a.38.38 0 0 1 .165.042c.097.016.17.086.21.21l2.061 5.974 1.953-5.975a.381.381 0 0 1 .379-.251h2.796c.112 0 .194.03.24.093ZM117.252 5.48a.326.326 0 0 1 .086.231v9.674a.313.313 0 0 1-.086.232.312.312 0 0 1-.232.085h-2.564c-.182 0-.286-.104-.317-.317l-.062-.65c-.8.84-1.736 1.261-2.816 1.261-.924 0-1.767-.24-2.521-.727a4.991 4.991 0 0 1-1.776-1.966c-.429-.828-.642-1.737-.642-2.736 0-.998.213-1.907.642-2.735a5.021 5.021 0 0 1 1.776-1.966 4.58 4.58 0 0 1 2.521-.727c1.08 0 2.019.448 2.816 1.346l.062-.778c.027-.209.131-.317.317-.317h2.564c.097 0 .174.027.232.085m-4.08 6.671c.391-.449.588-.983.588-1.598 0-.615-.197-1.141-.588-1.579a1.905 1.905 0 0 0-1.474-.65c-.591 0-1.075.21-1.461.63-.387.423-.581.953-.581 1.599s.194 1.184.581 1.617c.386.434.874.65 1.461.65.588 0 1.08-.224 1.474-.673M127.069 6.048a.733.733 0 0 1-.043.166l-.777 2.02c-.058.182-.167.275-.337.275a.738.738 0 0 1-.189-.02 2.589 2.589 0 0 0-.882-.166c-.646 0-1.145.209-1.505.62-.359.413-.537.936-.537 1.566v4.88a.313.313 0 0 1-.085.232.307.307 0 0 1-.232.085h-2.839a.312.312 0 0 1-.232-.085.307.307 0 0 1-.085-.232V5.71c0-.096.027-.174.085-.232a.321.321 0 0 1 .232-.085h2.734c.182 0 .286.104.313.317l.086 1.262c.603-1.208 1.492-1.811 2.668-1.811.294 0 .569.054.82.158.252.105.464.236.631.391.112.112.17.225.17.337M137.426 11.473c-.104.209-.317.317-.642.317h-5.948c.139.476.417.836.831 1.072.414.24.936.356 1.567.356.321 0 .626-.035.912-.105.287-.07.6-.208.936-.421a.353.353 0 0 1 .233-.085c.096 0 .174.042.232.127l1.218 1.2c.07.07.104.139.104.209 0 .07-.05.154-.147.251a5.587 5.587 0 0 1-1.744 1.157 5.237 5.237 0 0 1-2.061.422c-1.08 0-2.039-.24-2.882-.716a5.061 5.061 0 0 1-1.957-1.946c-.464-.82-.692-1.738-.692-2.744 0-1.006.232-1.907.692-2.735a5.16 5.16 0 0 1 1.891-1.954 5.129 5.129 0 0 1 2.669-.716c.979 0 1.845.236 2.595.704a4.7 4.7 0 0 1 1.733 1.904c.406.8.611 1.683.611 2.65 0 .492-.054.84-.158 1.053m-5.964-3.014c-.345.259-.573.65-.685 1.168h3.721c-.097-.518-.31-.91-.631-1.168-.321-.26-.715-.391-1.179-.391-.464 0-.886.127-1.23.39M50.465 2.05a2.049 2.049 0 1 1-4.1 0c0-1.133.921-2.05 2.05-2.05 1.13 0 2.05.917 2.05 2.05ZM139.395 15.683a.97.97 0 0 1-.294-.716.97.97 0 0 1 .294-.716.968.968 0 0 1 .715-.294c.283 0 .519.097.716.294a.97.97 0 0 1 .294.716.97.97 0 0 1-.294.716.968.968 0 0 1-.716.294.968.968 0 0 1-.715-.294ZM149.335 14.197a5.707 5.707 0 0 0 1.261-.98c.085-.084.162-.127.232-.127.069 0 .147.043.232.128l.526.484c.069.07.104.147.104.232a.272.272 0 0 1-.085.209 5.458 5.458 0 0 1-1.763 1.346 5.108 5.108 0 0 1-2.228.484c-.967 0-1.849-.24-2.638-.716a5.028 5.028 0 0 1-1.86-1.958c-.449-.828-.673-1.737-.673-2.736 0-.998.224-1.907.673-2.735a5.017 5.017 0 0 1 1.86-1.954 5.027 5.027 0 0 1 2.638-.716c.785 0 1.508.162 2.177.484.665.325 1.249.77 1.756 1.346a.3.3 0 0 1 .085.21.33.33 0 0 1-.104.231l-.526.484a.322.322 0 0 1-.232.104c-.058 0-.132-.034-.232-.104a10.576 10.576 0 0 1-.515-.464 3.122 3.122 0 0 0-1.052-.631 3.845 3.845 0 0 0-1.357-.232c-.7 0-1.327.17-1.88.514-.553.345-.99.82-1.303 1.432a4.381 4.381 0 0 0-.472 2.031c0 .743.158 1.42.472 2.028.313.611.75 1.087 1.303 1.432.553.344 1.18.514 1.88.514s1.303-.116 1.725-.348M155.515 15.26a5.107 5.107 0 0 1-1.883-1.953 5.56 5.56 0 0 1-.685-2.736c0-.998.228-1.907.685-2.735a5.118 5.118 0 0 1 1.883-1.958 5.09 5.09 0 0 1 2.65-.716c.967 0 1.849.24 2.649.716a5.084 5.084 0 0 1 1.88 1.958 5.57 5.57 0 0 1 .684 2.735 5.57 5.57 0 0 1-.684 2.736 5.102 5.102 0 0 1-4.529 2.67c-.967 0-1.849-.24-2.65-.716Zm4.533-1.23a3.602 3.602 0 0 0 1.335-1.42c.321-.603.483-1.284.483-2.039 0-.754-.162-1.435-.483-2.039a3.602 3.602 0 0 0-3.214-1.935 3.584 3.584 0 0 0-3.214 1.935c-.321.604-.484 1.285-.484 2.04 0 .754.163 1.439.484 2.038a3.6 3.6 0 0 0 3.214 1.935c.684 0 1.315-.17 1.879-.514ZM164.593 15.683a.97.97 0 0 1-.294-.716.97.97 0 0 1 .294-.716.968.968 0 0 1 .715-.294c.283 0 .519.097.716.294a.97.97 0 0 1 .294.716.97.97 0 0 1-.294.716.968.968 0 0 1-.716.294.968.968 0 0 1-.715-.294ZM176.648 5.48a.319.319 0 0 1 .085.231v9.674a.313.313 0 0 1-.085.232.328.328 0 0 1-.232.085h-.862c-.182 0-.286-.104-.313-.317l-.086-1.262a4.454 4.454 0 0 1-1.407 1.347 3.605 3.605 0 0 1-1.892.503c-1.206 0-2.142-.348-2.808-1.053-.665-.7-.997-1.73-.997-3.091V5.707c0-.096.027-.174.085-.232a.321.321 0 0 1 .232-.085h.947c.097 0 .174.027.232.085a.323.323 0 0 1 .085.232v6.017c0 .913.217 1.618.654 2.113.433.5 1.037.747 1.806.747.604 0 1.137-.155 1.598-.464.464-.31.823-.67 1.083-1.084.259-.414.39-.747.39-.998V5.71c0-.096.027-.174.085-.232a.316.316 0 0 1 .232-.085h.948c.097 0 .174.027.232.085M188 15.512c0 .058-.023.101-.073.136a.35.35 0 0 1-.202.054h-1.052c-.17 0-.294-.062-.379-.19l-3.744-4.774-1.933 2.02v2.63a.313.313 0 0 1-.085.233.308.308 0 0 1-.233.085h-.947a.312.312 0 0 1-.232-.085c-.058-.054-.085-.132-.085-.232V.666c0-.097.027-.175.085-.233a.306.306 0 0 1 .232-.085h.947c.097 0 .175.027.233.085a.307.307 0 0 1 .085.233v10.242l5.066-5.344a.501.501 0 0 1 .399-.166h1.071c.182 0 .275.058.275.166 0 .043-.035.112-.105.21l-3.806 3.973 4.394 5.572c.054.058.085.12.085.19M7.809 5.9a5.044 5.044 0 0 1 1.798 1.947c.434.82.65 1.73.65 2.724 0 .995-.216 1.904-.65 2.724a4.986 4.986 0 0 1-1.798 1.947c-.766.475-1.628.715-2.595.715-.77 0-1.462-.162-2.07-.483a4.652 4.652 0 0 1-1.566-1.347l-.085 1.262c-.027.209-.132.317-.313.317H.317a.313.313 0 0 1-.232-.085.316.316 0 0 1-.085-.232V.666C0 .569.027.49.085.433.14.375.217.348.317.348h.948c.096 0 .174.027.232.085a.322.322 0 0 1 .085.233v6.372c.421-.576.94-1.029 1.555-1.358.615-.329 1.31-.495 2.08-.495.967 0 1.834.24 2.596.716m-.855 8.11c.56-.344.998-.82 1.315-1.432.317-.61.472-1.284.472-2.031 0-.747-.159-1.412-.472-2.008A3.604 3.604 0 0 0 6.958 7.13a3.502 3.502 0 0 0-1.872-.514c-.688 0-1.307.178-1.86.538a3.782 3.782 0 0 0-1.304 1.431 4.112 4.112 0 0 0-.472 1.966c0 .716.159 1.377.472 1.989.317.611.75 1.095 1.304 1.45a3.364 3.364 0 0 0 1.86.539c.688 0 1.311-.17 1.872-.515M18.975 5.858A4.723 4.723 0 0 1 20.677 7.7c.398.766.6 1.587.6 2.473 0 .379-.04.65-.117.808-.077.163-.244.244-.495.244h-7.716c.112 1.01.51 1.827 1.199 2.45.688.622 1.563.936 2.626.936a4.243 4.243 0 0 0 2.816-1.03c.085-.085.166-.127.251-.127a.26.26 0 0 1 .19.085l.398.38c.097.096.147.181.147.25 0 .07-.043.148-.128.233a5.139 5.139 0 0 1-1.725 1.168 5.451 5.451 0 0 1-2.123.41c-1.01 0-1.91-.24-2.7-.715a4.971 4.971 0 0 1-1.848-1.947c-.441-.82-.662-1.733-.662-2.743 0-1.01.213-1.908.642-2.736a4.847 4.847 0 0 1 1.799-1.954c.77-.476 1.64-.715 2.607-.715.966 0 1.798.232 2.533.692m-4.916 1.66c-.638.646-1.013 1.47-1.125 2.48h6.958a3.795 3.795 0 0 0-.496-1.756 3.352 3.352 0 0 0-1.218-1.242c-.51-.302-1.09-.453-1.736-.453-.952 0-1.749.321-2.387.967" fill="#fff"></path></svg>
