<svg xmlns="http://www.w3.org/2000/svg" xmlns:xlink="http://www.w3.org/1999/xlink" width="1080" zoomAndPan="magnify" viewBox="0 0 810 60" height="80" preserveAspectRatio="xMidYMid meet" version="1.0"><defs><clipPath id="cf40544d27"><path d="M 12 24.136719 L 790 24.136719 L 790 36 L 12 36 Z M 12 24.136719 " clip-rule="nonzero"/></clipPath><clipPath id="5a4c398c75"><path d="M 239 6 L 405 6 L 405 12.75 L 239 12.75 Z M 239 6 " clip-rule="nonzero"/></clipPath></defs><g clip-path="url(#cf40544d27)"><path fill="#d4af37" d="M 786.210938 24.296875 L 24.871094 24.296875 C 17.953125 24.296875 6.027344 35.824219 15.703125 35.824219 L 777.042969 35.824219 C 783.960938 35.824219 795.886719 24.296875 786.210938 24.296875 Z M 786.210938 24.296875 " fill-opacity="1" fill-rule="nonzero"/></g><g clip-path="url(#5a4c398c75)"><path fill="#ffffff" d="M 403.65625 11.640625 C 398.441406 10.773438 393.183594 10.285156 387.90625 9.804688 C 382.589844 9.320312 377.273438 8.894531 371.960938 8.527344 C 361.417969 7.796875 350.859375 7.273438 340.292969 6.953125 C 319.046875 6.316406 297.800781 6.515625 276.546875 7.554688 C 264.601562 8.152344 252.683594 9.015625 240.785156 10.152344 C 240.089844 10.21875 239.550781 11.140625 240.375 11.457031 C 241.527344 11.894531 242.882812 11.988281 244.132812 12.042969 C 245.4375 12.09375 246.6875 12.105469 247.980469 11.910156 C 248.359375 11.851562 248.191406 11.371094 247.820312 11.417969 C 246.652344 11.558594 245.394531 11.609375 244.234375 11.378906 C 244.101562 11.351562 243.96875 11.320312 243.835938 11.285156 C 263.960938 9.546875 284.148438 8.519531 304.394531 8.207031 C 325.539062 7.910156 346.671875 8.441406 367.789062 9.800781 C 373.753906 10.1875 379.710938 10.636719 385.664062 11.148438 C 391.609375 11.65625 397.53125 12.308594 403.492188 12.621094 C 404.140625 12.644531 404.292969 11.746094 403.65625 11.640625 Z M 403.65625 11.640625 " fill-opacity="1" fill-rule="nonzero"/></g></svg>