<svg xmlns="http://www.w3.org/2000/svg" fill="none" viewBox="0 0 36 31" height="31" width="36">
<path fill="#3D7E8F" d="M10.8765 13.7228C12.2758 13.2743 13.7689 13.0265 15.3222 13.0265H20.6784C21.5689 13.0265 22.2853 13.7429 22.2853 14.6334C22.2853 15.5239 21.5689 16.2403 20.6784 16.2403H15.3222C13.6216 16.2403 12.008 16.6152 10.5685 17.2914C11.0841 21.5296 14.6928 24.8103 19.0649 24.8103H19.0716H19.1251H19.1318C25.6464 24.7768 31.9266 18.0949 31.9266 8.51389C31.9266 7.65689 31.873 6.81998 31.7726 6.00315C30.1188 7.06101 28.1504 7.67028 26.0347 7.67028H19.0716C15.2151 7.67028 11.9545 10.2212 10.8765 13.7228ZM7.31462 15.4435C7.72304 9.31063 12.8316 4.45654 19.0716 4.45654H26.0347C27.9562 4.45654 29.7037 3.73345 31.0294 2.54838C31.0763 2.5082 31.1231 2.46134 31.17 2.42117C31.6119 2.00606 32.0069 1.53739 32.335 1.02185C32.4421 0.854465 32.5492 0.680387 32.643 0.499614C32.8773 0.0644193 33.5535 0.0443333 33.7276 0.506309C33.8146 0.740645 33.895 0.97498 33.9753 1.21601C34.1695 1.81189 34.3436 2.41447 34.4976 3.03713C34.531 3.16434 34.5578 3.29156 34.5846 3.41207C34.9461 5.03903 35.1403 6.74633 35.1403 8.51389C35.1403 19.2599 27.983 27.9771 19.1385 28.024H19.0716C13.6015 28.024 9.00184 24.2947 7.67617 19.2398C5.46003 21.2952 4.0741 24.2278 4.0741 27.4884V28.5596C4.0741 29.4501 3.3577 30.1665 2.46722 30.1665C1.57675 30.1665 0.860352 29.4501 0.860352 28.5596V27.4884C0.860352 22.4602 3.42465 18.0346 7.31462 15.4435Z"></path>
</svg>
