<svg xmlns="http://www.w3.org/2000/svg" xmlns:xlink="http://www.w3.org/1999/xlink" width="100" zoomAndPan="magnify" viewBox="0 0 75 30.000001" height="40" preserveAspectRatio="xMidYMid meet" version="1.0"><defs><g/><clipPath id="b20bfd95dd"><path d="M 1.210938 11 L 6 11 L 6 17 L 1.210938 17 Z M 1.210938 11 " clip-rule="nonzero"/></clipPath><clipPath id="1569933491"><path d="M 71 14 L 73.789062 14 L 73.789062 17 L 71 17 Z M 71 14 " clip-rule="nonzero"/></clipPath></defs><g clip-path="url(#b20bfd95dd)"><g fill="#000000" fill-opacity="1"><g transform="translate(1.209676, 15.959399)"><g><path d="M 2.875 -3.3125 C 2.59375 -3.3125 2.347656 -3.203125 2.140625 -2.984375 C 1.929688 -2.773438 1.828125 -2.519531 1.828125 -2.21875 C 1.828125 -1.914062 1.929688 -1.65625 2.140625 -1.4375 C 2.347656 -1.226562 2.59375 -1.125 2.875 -1.125 C 3.019531 -1.125 3.15625 -1.140625 3.28125 -1.171875 C 3.40625 -1.210938 3.492188 -1.25 3.546875 -1.28125 L 3.625 -1.328125 L 4.140625 -0.265625 C 4.097656 -0.234375 4.039062 -0.195312 3.96875 -0.15625 C 3.90625 -0.113281 3.742188 -0.0546875 3.484375 0.015625 C 3.222656 0.0859375 2.945312 0.125 2.65625 0.125 C 2 0.125 1.425781 -0.101562 0.9375 -0.5625 C 0.445312 -1.019531 0.203125 -1.566406 0.203125 -2.203125 C 0.203125 -2.847656 0.445312 -3.40625 0.9375 -3.875 C 1.425781 -4.34375 2 -4.578125 2.65625 -4.578125 C 2.945312 -4.578125 3.21875 -4.539062 3.46875 -4.46875 C 3.71875 -4.394531 3.894531 -4.328125 4 -4.265625 L 4.140625 -4.15625 L 3.625 -3.109375 C 3.4375 -3.242188 3.1875 -3.3125 2.875 -3.3125 Z M 2.875 -3.3125 "/></g></g></g></g><g fill="#000000" fill-opacity="1"><g transform="translate(5.461578, 15.959399)"><g><path d="M 0.828125 -0.546875 C 0.410156 -1.003906 0.203125 -1.5625 0.203125 -2.21875 C 0.203125 -2.875 0.410156 -3.429688 0.828125 -3.890625 C 1.242188 -4.347656 1.769531 -4.578125 2.40625 -4.578125 C 3 -4.578125 3.484375 -4.390625 3.859375 -4.015625 L 3.859375 -4.4375 L 5.390625 -4.4375 L 5.390625 0 L 3.875 0 L 3.875 -0.5 L 3.859375 -0.5 C 3.484375 -0.0820312 3 0.125 2.40625 0.125 C 1.769531 0.125 1.242188 -0.0976562 0.828125 -0.546875 Z M 2.125 -2.96875 C 1.925781 -2.769531 1.828125 -2.515625 1.828125 -2.203125 C 1.828125 -1.898438 1.921875 -1.648438 2.109375 -1.453125 C 2.296875 -1.265625 2.546875 -1.171875 2.859375 -1.171875 C 3.160156 -1.171875 3.40625 -1.269531 3.59375 -1.46875 C 3.789062 -1.664062 3.890625 -1.914062 3.890625 -2.21875 C 3.890625 -2.519531 3.789062 -2.769531 3.59375 -2.96875 C 3.394531 -3.164062 3.148438 -3.265625 2.859375 -3.265625 C 2.566406 -3.265625 2.320312 -3.164062 2.125 -2.96875 Z M 2.125 -2.96875 "/></g></g></g><g fill="#000000" fill-opacity="1"><g transform="translate(11.376138, 15.959399)"><g><path d="M 0.515625 0 L 0.515625 -4.4375 L 2.046875 -4.4375 L 2.046875 -3.96875 L 2.0625 -3.96875 C 2.46875 -4.375 2.894531 -4.578125 3.34375 -4.578125 C 3.5625 -4.578125 3.773438 -4.546875 3.984375 -4.484375 C 4.203125 -4.421875 4.410156 -4.328125 4.609375 -4.203125 C 4.816406 -4.085938 4.976562 -3.921875 5.09375 -3.703125 C 5.21875 -3.484375 5.28125 -3.222656 5.28125 -2.921875 L 5.28125 0 L 3.75 0 L 3.75 -2.515625 C 3.75 -2.742188 3.675781 -2.941406 3.53125 -3.109375 C 3.382812 -3.285156 3.191406 -3.375 2.953125 -3.375 C 2.722656 -3.375 2.515625 -3.285156 2.328125 -3.109375 C 2.140625 -2.929688 2.046875 -2.734375 2.046875 -2.515625 L 2.046875 0 Z M 0.515625 0 "/></g></g></g><g fill="#000000" fill-opacity="1"><g transform="translate(17.10018, 15.959399)"><g><path d="M 0.515625 0 L 0.515625 -4.4375 L 2.046875 -4.4375 L 2.046875 -3.96875 L 2.0625 -3.96875 C 2.46875 -4.375 2.894531 -4.578125 3.34375 -4.578125 C 3.5625 -4.578125 3.773438 -4.546875 3.984375 -4.484375 C 4.203125 -4.421875 4.410156 -4.328125 4.609375 -4.203125 C 4.816406 -4.085938 4.976562 -3.921875 5.09375 -3.703125 C 5.21875 -3.484375 5.28125 -3.222656 5.28125 -2.921875 L 5.28125 0 L 3.75 0 L 3.75 -2.515625 C 3.75 -2.742188 3.675781 -2.941406 3.53125 -3.109375 C 3.382812 -3.285156 3.191406 -3.375 2.953125 -3.375 C 2.722656 -3.375 2.515625 -3.285156 2.328125 -3.109375 C 2.140625 -2.929688 2.046875 -2.734375 2.046875 -2.515625 L 2.046875 0 Z M 0.515625 0 "/></g></g></g><g fill="#000000" fill-opacity="1"><g transform="translate(22.824223, 15.959399)"><g><path d="M 5.015625 -2.015625 L 1.796875 -2.015625 C 1.796875 -1.703125 1.894531 -1.46875 2.09375 -1.3125 C 2.289062 -1.164062 2.507812 -1.09375 2.75 -1.09375 C 3 -1.09375 3.195312 -1.125 3.34375 -1.1875 C 3.488281 -1.257812 3.648438 -1.390625 3.828125 -1.578125 L 4.9375 -1.03125 C 4.476562 -0.257812 3.710938 0.125 2.640625 0.125 C 1.972656 0.125 1.398438 -0.101562 0.921875 -0.5625 C 0.441406 -1.019531 0.203125 -1.570312 0.203125 -2.21875 C 0.203125 -2.863281 0.441406 -3.414062 0.921875 -3.875 C 1.398438 -4.34375 1.972656 -4.578125 2.640625 -4.578125 C 3.347656 -4.578125 3.921875 -4.367188 4.359375 -3.953125 C 4.796875 -3.546875 5.015625 -2.96875 5.015625 -2.21875 C 5.015625 -2.113281 5.015625 -2.046875 5.015625 -2.015625 Z M 1.828125 -2.859375 L 3.515625 -2.859375 C 3.484375 -3.085938 3.394531 -3.265625 3.25 -3.390625 C 3.101562 -3.515625 2.914062 -3.578125 2.6875 -3.578125 C 2.425781 -3.578125 2.222656 -3.507812 2.078125 -3.375 C 1.929688 -3.238281 1.847656 -3.066406 1.828125 -2.859375 Z M 1.828125 -2.859375 "/></g></g></g><g fill="#000000" fill-opacity="1"><g transform="translate(28.046008, 15.959399)"><g><path d="M 0.828125 -0.546875 C 0.410156 -1.003906 0.203125 -1.5625 0.203125 -2.21875 C 0.203125 -2.875 0.410156 -3.429688 0.828125 -3.890625 C 1.242188 -4.347656 1.769531 -4.578125 2.40625 -4.578125 C 3 -4.578125 3.484375 -4.390625 3.859375 -4.015625 L 3.859375 -7.4375 L 5.390625 -7.4375 L 5.390625 0 L 3.875 0 L 3.875 -0.5 L 3.859375 -0.5 C 3.484375 -0.0820312 3 0.125 2.40625 0.125 C 1.769531 0.125 1.242188 -0.0976562 0.828125 -0.546875 Z M 2.125 -2.96875 C 1.925781 -2.769531 1.828125 -2.515625 1.828125 -2.203125 C 1.828125 -1.898438 1.921875 -1.648438 2.109375 -1.453125 C 2.296875 -1.265625 2.546875 -1.171875 2.859375 -1.171875 C 3.160156 -1.171875 3.40625 -1.269531 3.59375 -1.46875 C 3.789062 -1.664062 3.890625 -1.914062 3.890625 -2.21875 C 3.890625 -2.519531 3.789062 -2.769531 3.59375 -2.96875 C 3.394531 -3.164062 3.148438 -3.265625 2.859375 -3.265625 C 2.566406 -3.265625 2.320312 -3.164062 2.125 -2.96875 Z M 2.125 -2.96875 "/></g></g></g><g fill="#000000" fill-opacity="1"><g transform="translate(33.960568, 15.959399)"><g/></g></g><g fill="#000000" fill-opacity="1"><g transform="translate(36.324654, 15.959399)"><g><path d="M 3.25 0 L 2.203125 0 L -0.171875 -4.4375 L 1.59375 -4.4375 L 2.671875 -2.046875 L 3.734375 -4.4375 L 4.796875 -4.4375 L 5.859375 -2.046875 L 6.9375 -4.4375 L 8.703125 -4.4375 L 6.328125 0 L 5.28125 0 L 4.265625 -2.296875 Z M 3.25 0 "/></g></g></g><g fill="#000000" fill-opacity="1"><g transform="translate(44.863089, 15.959399)"><g><path d="M 0.65625 -6.90625 C 0.84375 -7.09375 1.054688 -7.1875 1.296875 -7.1875 C 1.546875 -7.1875 1.757812 -7.09375 1.9375 -6.90625 C 2.125 -6.726562 2.21875 -6.515625 2.21875 -6.265625 C 2.21875 -6.023438 2.125 -5.8125 1.9375 -5.625 C 1.757812 -5.445312 1.546875 -5.359375 1.296875 -5.359375 C 1.054688 -5.359375 0.84375 -5.445312 0.65625 -5.625 C 0.476562 -5.8125 0.390625 -6.023438 0.390625 -6.265625 C 0.390625 -6.515625 0.476562 -6.726562 0.65625 -6.90625 Z M 0.515625 -4.4375 L 0.515625 0 L 2.046875 0 L 2.046875 -4.4375 Z M 0.515625 -4.4375 "/></g></g></g><g fill="#000000" fill-opacity="1"><g transform="translate(47.478309, 15.959399)"><g><path d="M 0.515625 0 L 0.515625 -4.4375 L 2.046875 -4.4375 L 2.046875 -3.96875 L 2.0625 -3.96875 C 2.46875 -4.375 2.894531 -4.578125 3.34375 -4.578125 C 3.5625 -4.578125 3.773438 -4.546875 3.984375 -4.484375 C 4.203125 -4.421875 4.410156 -4.328125 4.609375 -4.203125 C 4.816406 -4.085938 4.976562 -3.921875 5.09375 -3.703125 C 5.21875 -3.484375 5.28125 -3.222656 5.28125 -2.921875 L 5.28125 0 L 3.75 0 L 3.75 -2.515625 C 3.75 -2.742188 3.675781 -2.941406 3.53125 -3.109375 C 3.382812 -3.285156 3.191406 -3.375 2.953125 -3.375 C 2.722656 -3.375 2.515625 -3.285156 2.328125 -3.109375 C 2.140625 -2.929688 2.046875 -2.734375 2.046875 -2.515625 L 2.046875 0 Z M 0.515625 0 "/></g></g></g><g fill="#000000" fill-opacity="1"><g transform="translate(53.202351, 15.959399)"><g><path d="M 5.015625 -2.015625 L 1.796875 -2.015625 C 1.796875 -1.703125 1.894531 -1.46875 2.09375 -1.3125 C 2.289062 -1.164062 2.507812 -1.09375 2.75 -1.09375 C 3 -1.09375 3.195312 -1.125 3.34375 -1.1875 C 3.488281 -1.257812 3.648438 -1.390625 3.828125 -1.578125 L 4.9375 -1.03125 C 4.476562 -0.257812 3.710938 0.125 2.640625 0.125 C 1.972656 0.125 1.398438 -0.101562 0.921875 -0.5625 C 0.441406 -1.019531 0.203125 -1.570312 0.203125 -2.21875 C 0.203125 -2.863281 0.441406 -3.414062 0.921875 -3.875 C 1.398438 -4.34375 1.972656 -4.578125 2.640625 -4.578125 C 3.347656 -4.578125 3.921875 -4.367188 4.359375 -3.953125 C 4.796875 -3.546875 5.015625 -2.96875 5.015625 -2.21875 C 5.015625 -2.113281 5.015625 -2.046875 5.015625 -2.015625 Z M 1.828125 -2.859375 L 3.515625 -2.859375 C 3.484375 -3.085938 3.394531 -3.265625 3.25 -3.390625 C 3.101562 -3.515625 2.914062 -3.578125 2.6875 -3.578125 C 2.425781 -3.578125 2.222656 -3.507812 2.078125 -3.375 C 1.929688 -3.238281 1.847656 -3.066406 1.828125 -2.859375 Z M 1.828125 -2.859375 "/></g></g></g><g fill="#000000" fill-opacity="1"><g transform="translate(58.424137, 15.959399)"><g/></g></g><g fill="#000000" fill-opacity="1"><g transform="translate(60.788223, 15.959399)"><g><path d="M 2.875 -3.3125 C 2.59375 -3.3125 2.347656 -3.203125 2.140625 -2.984375 C 1.929688 -2.773438 1.828125 -2.519531 1.828125 -2.21875 C 1.828125 -1.914062 1.929688 -1.65625 2.140625 -1.4375 C 2.347656 -1.226562 2.59375 -1.125 2.875 -1.125 C 3.019531 -1.125 3.15625 -1.140625 3.28125 -1.171875 C 3.40625 -1.210938 3.492188 -1.25 3.546875 -1.28125 L 3.625 -1.328125 L 4.140625 -0.265625 C 4.097656 -0.234375 4.039062 -0.195312 3.96875 -0.15625 C 3.90625 -0.113281 3.742188 -0.0546875 3.484375 0.015625 C 3.222656 0.0859375 2.945312 0.125 2.65625 0.125 C 2 0.125 1.425781 -0.101562 0.9375 -0.5625 C 0.445312 -1.019531 0.203125 -1.566406 0.203125 -2.203125 C 0.203125 -2.847656 0.445312 -3.40625 0.9375 -3.875 C 1.425781 -4.34375 2 -4.578125 2.65625 -4.578125 C 2.945312 -4.578125 3.21875 -4.539062 3.46875 -4.46875 C 3.71875 -4.394531 3.894531 -4.328125 4 -4.265625 L 4.140625 -4.15625 L 3.625 -3.109375 C 3.4375 -3.242188 3.1875 -3.3125 2.875 -3.3125 Z M 2.875 -3.3125 "/></g></g></g><g fill="#000000" fill-opacity="1"><g transform="translate(65.040125, 15.959399)"><g><path d="M 0.9375 -0.53125 C 0.445312 -0.96875 0.203125 -1.53125 0.203125 -2.21875 C 0.203125 -2.90625 0.457031 -3.46875 0.96875 -3.90625 C 1.476562 -4.351562 2.113281 -4.578125 2.875 -4.578125 C 3.613281 -4.578125 4.238281 -4.351562 4.75 -3.90625 C 5.257812 -3.457031 5.515625 -2.890625 5.515625 -2.203125 C 5.515625 -1.523438 5.265625 -0.96875 4.765625 -0.53125 C 4.273438 -0.09375 3.644531 0.125 2.875 0.125 C 2.070312 0.125 1.425781 -0.09375 0.9375 -0.53125 Z M 2.125 -2.96875 C 1.925781 -2.769531 1.828125 -2.515625 1.828125 -2.203125 C 1.828125 -1.898438 1.921875 -1.648438 2.109375 -1.453125 C 2.296875 -1.265625 2.546875 -1.171875 2.859375 -1.171875 C 3.160156 -1.171875 3.40625 -1.269531 3.59375 -1.46875 C 3.789062 -1.664062 3.890625 -1.914062 3.890625 -2.21875 C 3.890625 -2.519531 3.789062 -2.769531 3.59375 -2.96875 C 3.394531 -3.164062 3.148438 -3.265625 2.859375 -3.265625 C 2.566406 -3.265625 2.320312 -3.164062 2.125 -2.96875 Z M 2.125 -2.96875 "/></g></g></g><g clip-path="url(#1569933491)"><g fill="#000000" fill-opacity="1"><g transform="translate(70.764168, 15.959399)"><g><path d="M 1.5 -1.859375 C 1.78125 -1.859375 2.015625 -1.757812 2.203125 -1.5625 C 2.398438 -1.363281 2.5 -1.128906 2.5 -0.859375 C 2.5 -0.585938 2.398438 -0.351562 2.203125 -0.15625 C 2.015625 0.03125 1.78125 0.125 1.5 0.125 C 1.226562 0.125 0.992188 0.03125 0.796875 -0.15625 C 0.609375 -0.351562 0.515625 -0.585938 0.515625 -0.859375 C 0.515625 -1.128906 0.609375 -1.363281 0.796875 -1.5625 C 0.992188 -1.757812 1.226562 -1.859375 1.5 -1.859375 Z M 1.5 -1.859375 "/></g></g></g></g></svg>