<svg xmlns="http://www.w3.org/2000/svg" xmlns:xlink="http://www.w3.org/1999/xlink" width="500" zoomAndPan="magnify" viewBox="0 0 375 60" height="80" preserveAspectRatio="xMidYMid meet" version="1.0"><defs><g/><clipPath id="d968ec2b37"><path d="M 140.621094 2.410156 L 195.664062 2.410156 L 195.664062 57.453125 L 140.621094 57.453125 Z M 140.621094 2.410156 " clip-rule="nonzero"/></clipPath></defs><path fill="#383818" d="M 189.640625 19.847656 C 188.6875 19.921875 187.714844 20.007812 186.804688 20.265625 C 184.117188 21.027344 181.710938 22.394531 179.410156 23.941406 C 176.585938 25.835938 173.753906 27.699219 170.609375 29.058594 C 164.667969 31.628906 159.277344 35.058594 154.535156 39.496094 C 151.691406 42.15625 149.074219 45.007812 146.890625 48.242188 C 146.699219 48.527344 146.546875 48.839844 146.308594 49.261719 C 147.039062 49.316406 147.632812 49.457031 148.183594 49.355469 C 148.464844 49.300781 148.667969 48.820312 148.898438 48.527344 C 149.121094 48.242188 149.332031 47.949219 149.546875 47.664062 C 151.949219 44.507812 154.585938 41.582031 157.722656 39.132812 C 157.859375 39.027344 158.105469 38.953125 158.261719 39 C 159.78125 39.433594 161.164062 40.132812 162.402344 41.121094 C 162.632812 41.304688 162.730469 41.449219 162.5625 41.757812 C 162.042969 42.710938 162.007812 43.730469 162.292969 44.757812 C 163.085938 47.609375 166.121094 49.597656 169.074219 49.222656 C 170.949219 48.980469 172.375 47.59375 172.503906 45.796875 C 172.65625 43.636719 171.867188 41.828125 170.285156 40.371094 C 168.550781 38.765625 165.695312 38.554688 164.0625 39.875 C 163.996094 39.933594 163.84375 39.972656 163.789062 39.9375 C 163.113281 39.480469 162.449219 39.007812 161.78125 38.542969 C 161.789062 38.480469 161.796875 38.421875 161.804688 38.359375 C 163.226562 38.148438 164.644531 37.867188 166.078125 37.746094 C 168.375 37.550781 170.671875 37.628906 172.945312 38.085938 C 173.269531 38.148438 173.355469 38.28125 173.335938 38.597656 C 173.253906 39.804688 173.730469 40.8125 174.511719 41.691406 C 176.34375 43.75 180.015625 44.308594 182.378906 42.886719 C 183.746094 42.0625 184.410156 40.839844 184.230469 39.253906 C 183.832031 35.808594 180.085938 33.28125 176.71875 34.15625 C 175.382812 34.503906 174.402344 35.300781 173.804688 36.515625 C 172.738281 36.375 171.707031 36.238281 170.675781 36.101562 C 170.636719 36.058594 170.59375 36.015625 170.554688 35.972656 C 170.664062 35.921875 170.792969 35.898438 170.878906 35.820312 C 172.339844 34.539062 174.015625 33.609375 175.742188 32.75 C 176.527344 32.363281 177.320312 31.984375 178.0625 31.527344 C 178.363281 31.339844 178.78125 30.875 178.714844 30.667969 C 178.570312 30.183594 178 30.332031 177.636719 30.421875 C 176.523438 30.695312 175.390625 30.949219 174.335938 31.378906 C 172.03125 32.328125 170.03125 33.71875 168.554688 35.78125 C 168.441406 35.9375 168.164062 36.027344 167.953125 36.046875 C 166.453125 36.195312 164.941406 36.269531 163.449219 36.460938 C 162.335938 36.609375 161.246094 36.898438 160.140625 37.125 C 160.164062 37.089844 160.179688 37.035156 160.214844 37.007812 C 163.882812 34.152344 167.859375 31.824219 172.214844 30.195312 C 174.976562 29.160156 177.824219 28.359375 180.605469 27.375 C 183.570312 26.324219 186.359375 24.917969 188.679688 22.742188 C 189.273438 22.1875 189.789062 21.527344 190.230469 20.839844 C 190.644531 20.199219 190.390625 19.789062 189.640625 19.847656 Z M 166.453125 40.523438 C 166.484375 40.144531 166.832031 40.039062 167.527344 40.148438 C 169.460938 40.449219 171.40625 42.535156 171.4375 44.523438 C 171.355469 44.605469 171.210938 44.835938 171.003906 44.933594 C 170.675781 45.085938 170.53125 44.835938 170.40625 44.554688 C 170.136719 43.933594 169.902344 43.28125 169.535156 42.71875 C 169.019531 41.929688 168.242188 41.46875 167.300781 41.28125 C 166.886719 41.199219 166.402344 41.121094 166.453125 40.523438 Z M 177.8125 35.042969 C 177.835938 35.042969 177.863281 35.039062 177.882812 35.039062 C 177.898438 35.035156 177.914062 35.035156 177.925781 35.035156 C 177.933594 35.035156 177.945312 35.035156 177.949219 35.035156 C 177.96875 35.03125 177.984375 35.03125 177.992188 35.035156 C 180 35.085938 181.46875 35.925781 182.601562 37.394531 C 182.671875 37.488281 182.78125 37.601562 182.773438 37.699219 C 182.761719 37.980469 182.789062 38.355469 182.628906 38.519531 C 182.339844 38.8125 182.050781 38.535156 181.875 38.273438 C 181.1875 37.265625 180.257812 36.601562 179.070312 36.332031 C 178.671875 36.242188 178.253906 36.230469 177.847656 36.199219 C 177.460938 36.175781 177.085938 36.09375 177.0625 35.636719 C 177.039062 35.152344 177.445312 35.097656 177.8125 35.042969 Z M 177.8125 35.042969 " fill-opacity="1" fill-rule="evenodd"/><path fill="#383818" d="M 183.644531 11.285156 C 183.628906 10.605469 183.445312 10.429688 182.765625 10.484375 C 182.496094 10.503906 182.226562 10.566406 181.960938 10.640625 C 179.441406 11.335938 177.378906 12.785156 175.550781 14.589844 C 171.757812 18.335938 169.628906 22.992188 168.296875 28.0625 C 168.234375 28.304688 168.308594 28.578125 168.316406 28.835938 C 168.574219 28.789062 168.859375 28.796875 169.085938 28.683594 C 170.472656 27.972656 171.882812 27.292969 173.222656 26.496094 C 176.496094 24.546875 179.289062 22.078125 181.300781 18.796875 C 182.640625 16.613281 183.539062 14.285156 183.648438 11.699219 C 183.648438 11.5625 183.648438 11.421875 183.644531 11.285156 Z M 172.265625 24.203125 C 174.351562 20.527344 176.714844 17.085938 180.238281 14.609375 C 178.578125 18.632812 175.773438 21.710938 172.265625 24.203125 Z M 172.265625 24.203125 " fill-opacity="1" fill-rule="evenodd"/><path fill="#383818" d="M 151.546875 31.664062 C 151.542969 32.347656 151.515625 33.03125 151.46875 33.707031 C 151.433594 34.273438 151.378906 34.835938 151.316406 35.394531 C 151.261719 35.84375 151.203125 36.289062 151.132812 36.734375 C 151.03125 37.402344 150.910156 38.070312 150.769531 38.730469 C 150.746094 38.84375 150.722656 38.953125 150.699219 39.0625 C 150.652344 39.285156 150.601562 39.503906 150.550781 39.722656 C 150.34375 40.601562 150.105469 41.480469 149.84375 42.347656 C 149.78125 42.546875 149.582031 42.824219 149.425781 42.839844 C 149.257812 42.855469 149.003906 42.644531 148.890625 42.464844 C 147.894531 40.898438 147.320312 39.152344 146.832031 37.378906 C 145.75 33.480469 145.480469 29.535156 146.46875 25.578125 C 146.695312 24.671875 147.101562 23.804688 147.457031 22.933594 C 147.566406 22.671875 147.753906 22.429688 147.949219 22.214844 C 148.335938 21.789062 148.789062 21.753906 149.128906 22.214844 C 149.570312 22.820312 149.980469 23.46875 150.273438 24.15625 C 150.5625 24.828125 150.789062 25.511719 150.964844 26.207031 C 151.003906 26.363281 151.039062 26.515625 151.074219 26.671875 C 151.109375 26.824219 151.140625 26.980469 151.171875 27.136719 C 151.273438 27.683594 151.355469 28.234375 151.410156 28.789062 C 151.433594 29.027344 151.453125 29.265625 151.472656 29.503906 C 151.511719 30.058594 151.53125 30.617188 151.542969 31.175781 L 151.542969 31.183594 C 151.542969 31.347656 151.546875 31.503906 151.546875 31.664062 Z M 151.546875 31.664062 " fill-opacity="1" fill-rule="evenodd"/><path fill="#383818" d="M 169.375 17.679688 C 169.0625 22.246094 167.492188 26.394531 165.097656 30.253906 C 164.980469 30.445312 164.867188 30.648438 164.703125 30.792969 C 164.5 30.976562 164.246094 31.109375 164.011719 31.261719 C 163.863281 31.027344 163.640625 30.8125 163.582031 30.558594 C 163.410156 29.773438 163.261719 28.976562 163.171875 28.175781 C 163.0625 27.15625 163.023438 26.125 162.980469 25.546875 C 163.023438 21.792969 163.460938 18.5625 164.777344 15.5 C 165.308594 14.265625 165.945312 13.085938 166.929688 12.140625 C 167.636719 11.464844 168.140625 11.554688 168.550781 12.449219 C 169.316406 14.109375 169.496094 15.882812 169.375 17.679688 Z M 169.375 17.679688 " fill-opacity="1" fill-rule="evenodd"/><path fill="#383818" d="M 159.304688 24.632812 C 159.261719 24.640625 159.21875 24.648438 159.175781 24.65625 C 159.101562 28.011719 158.179688 31.148438 156.726562 34.144531 C 155.859375 35.925781 154.804688 37.589844 153.546875 39.121094 C 153.34375 39.371094 153.109375 39.605469 152.863281 39.816406 C 152.761719 39.902344 152.53125 39.984375 152.460938 39.933594 C 152.351562 39.851562 152.269531 39.644531 152.285156 39.503906 C 152.347656 38.820312 152.445312 38.140625 152.539062 37.460938 C 152.878906 34.929688 153.183594 32.390625 153.570312 29.863281 C 153.996094 27.109375 154.632812 24.402344 156.105469 21.980469 C 156.382812 21.527344 156.691406 21.089844 157.035156 20.6875 C 157.738281 19.863281 158.386719 19.96875 158.644531 21.003906 C 158.9375 22.195312 159.089844 23.421875 159.304688 24.632812 Z M 159.304688 24.632812 " fill-opacity="1" fill-rule="evenodd"/><g clip-path="url(#d968ec2b37)"><path fill="#383818" d="M 168.140625 2.410156 C 152.941406 2.410156 140.621094 14.730469 140.621094 29.933594 C 140.621094 36.171875 142.695312 41.925781 146.195312 46.542969 C 146.394531 46.257812 146.597656 45.972656 146.804688 45.691406 C 143.542969 41.285156 141.617188 35.832031 141.617188 29.933594 C 141.617188 15.28125 153.492188 3.40625 168.140625 3.40625 C 182.792969 3.40625 194.667969 15.28125 194.667969 29.929688 C 194.667969 44.582031 182.792969 56.457031 168.140625 56.457031 C 161.234375 56.457031 154.941406 53.816406 150.222656 49.488281 C 150.101562 49.648438 149.984375 49.808594 149.859375 49.96875 C 149.785156 50.066406 149.710938 50.1875 149.632812 50.300781 C 154.523438 54.746094 161.015625 57.453125 168.140625 57.453125 C 183.34375 57.453125 195.664062 45.132812 195.664062 29.933594 C 195.664062 14.730469 183.34375 2.410156 168.140625 2.410156 Z M 168.140625 2.410156 " fill-opacity="1" fill-rule="evenodd"/></g><g fill="#383818" fill-opacity="1"><g transform="translate(7.388896, 58.536539)"><g><path d="M 9.15625 -48.75 L 2.15625 -48.75 L 2.15625 -52.203125 L 23.078125 -52.203125 L 23.078125 -48.75 L 16.078125 -48.75 L 16.078125 0 L 9.15625 0 Z M 9.15625 -48.75 "/></g></g></g><g fill="#383818" fill-opacity="1"><g transform="translate(32.628707, 58.536539)"><g><path d="M 3.609375 -41.75 L 19.25 -41.75 L 17.515625 -38.296875 L 10.59375 -38.296875 L 10.59375 -26.109375 L 17.515625 -26.109375 L 15.796875 -22.640625 L 10.59375 -22.640625 L 10.59375 -3.46875 L 19.25 -3.46875 L 19.25 0 L 3.609375 0 Z M 3.609375 -41.75 "/></g></g></g><g fill="#383818" fill-opacity="1"><g transform="translate(54.046489, 58.536539)"><g><path d="M 4.609375 -36.5625 L 2.890625 -41.75 L 11.609375 -41.75 C 13.628906 -41.75 15.394531 -41.546875 16.90625 -41.140625 C 18.425781 -40.734375 19.703125 -40.0625 20.734375 -39.125 C 21.765625 -38.1875 22.53125 -36.9375 23.03125 -35.375 C 23.539062 -33.8125 23.796875 -31.875 23.796875 -29.5625 C 23.796875 -26.726562 23.410156 -24.46875 22.640625 -22.78125 C 21.867188 -21.101562 20.71875 -19.832031 19.1875 -18.96875 L 23.796875 0 L 16.796875 0 L 12.625 -17.453125 C 12.382812 -17.398438 12.046875 -17.375 11.609375 -17.375 L 11.609375 0 L 4.609375 0 Z M 11.609375 -20.765625 C 12.765625 -20.765625 13.710938 -21.015625 14.453125 -21.515625 C 15.203125 -22.023438 15.789062 -22.703125 16.21875 -23.546875 C 16.65625 -24.390625 16.957031 -25.328125 17.125 -26.359375 C 17.289062 -27.390625 17.375 -28.457031 17.375 -29.5625 C 17.375 -30.664062 17.289062 -31.734375 17.125 -32.765625 C 16.957031 -33.804688 16.65625 -34.742188 16.21875 -35.578125 C 15.789062 -36.421875 15.203125 -37.09375 14.453125 -37.59375 C 13.710938 -38.101562 12.765625 -38.382812 11.609375 -38.4375 Z M 11.609375 -20.765625 "/></g></g></g><g fill="#383818" fill-opacity="1"><g transform="translate(80.72858, 58.536539)"><g><path d="M 4.609375 -36.5625 L 2.890625 -41.75 L 11.609375 -41.75 C 13.628906 -41.75 15.394531 -41.546875 16.90625 -41.140625 C 18.425781 -40.734375 19.703125 -40.0625 20.734375 -39.125 C 21.765625 -38.1875 22.53125 -36.9375 23.03125 -35.375 C 23.539062 -33.8125 23.796875 -31.875 23.796875 -29.5625 C 23.796875 -26.726562 23.410156 -24.46875 22.640625 -22.78125 C 21.867188 -21.101562 20.71875 -19.832031 19.1875 -18.96875 L 23.796875 0 L 16.796875 0 L 12.625 -17.453125 C 12.382812 -17.398438 12.046875 -17.375 11.609375 -17.375 L 11.609375 0 L 4.609375 0 Z M 11.609375 -20.765625 C 12.765625 -20.765625 13.710938 -21.015625 14.453125 -21.515625 C 15.203125 -22.023438 15.789062 -22.703125 16.21875 -23.546875 C 16.65625 -24.390625 16.957031 -25.328125 17.125 -26.359375 C 17.289062 -27.390625 17.375 -28.457031 17.375 -29.5625 C 17.375 -30.664062 17.289062 -31.734375 17.125 -32.765625 C 16.957031 -33.804688 16.65625 -34.742188 16.21875 -35.578125 C 15.789062 -36.421875 15.203125 -37.09375 14.453125 -37.59375 C 13.710938 -38.101562 12.765625 -38.382812 11.609375 -38.4375 Z M 11.609375 -20.765625 "/></g></g></g><g fill="#383818" fill-opacity="1"><g transform="translate(107.410671, 58.536539)"><g><path d="M 7.5 -36.5625 L 6.640625 -41.75 L 13.625 -41.75 L 20.546875 0 L 13.625 0 L 12.1875 -8.71875 L 6.34375 -8.71875 L 4.90625 0 L 1.4375 0 Z M 11.609375 -12.1875 L 9.296875 -26.109375 L 6.921875 -12.1875 Z M 11.609375 -12.1875 "/></g></g></g><g fill="#383818" fill-opacity="1"><g transform="translate(129.409704, 58.536539)"><g/></g></g><g fill="#383818" fill-opacity="1"><g transform="translate(143.832454, 58.536539)"><g/></g></g><g fill="#383818" fill-opacity="1"><g transform="translate(158.255205, 58.536539)"><g/></g></g><g fill="#383818" fill-opacity="1"><g transform="translate(172.677955, 58.536539)"><g/></g></g><g fill="#383818" fill-opacity="1"><g transform="translate(187.100706, 58.536539)"><g/></g></g><g fill="#383818" fill-opacity="1"><g transform="translate(201.531365, 58.536539)"><g><path d="M 9.15625 -48.75 L 2.15625 -48.75 L 2.15625 -52.203125 L 23.078125 -52.203125 L 23.078125 -48.75 L 16.078125 -48.75 L 16.078125 0 L 9.15625 0 Z M 9.15625 -48.75 "/></g></g></g><g fill="#383818" fill-opacity="1"><g transform="translate(226.771177, 58.536539)"><g><path d="M 13.34375 0 C 11.894531 0 10.535156 -0.210938 9.265625 -0.640625 C 7.992188 -1.078125 6.890625 -1.726562 5.953125 -2.59375 C 5.015625 -3.457031 4.269531 -4.550781 3.71875 -5.875 C 3.164062 -7.195312 2.890625 -8.722656 2.890625 -10.453125 L 2.890625 -41.75 L 9.875 -41.75 L 9.875 -10.453125 C 9.875 -9.972656 9.882812 -9.429688 9.90625 -8.828125 C 9.9375 -8.234375 10.054688 -7.660156 10.265625 -7.109375 C 10.484375 -6.554688 10.832031 -6.097656 11.3125 -5.734375 C 11.800781 -5.367188 12.476562 -5.1875 13.34375 -5.1875 C 14.207031 -5.1875 14.867188 -5.367188 15.328125 -5.734375 C 15.785156 -6.097656 16.117188 -6.554688 16.328125 -7.109375 C 16.546875 -7.660156 16.675781 -8.234375 16.71875 -8.828125 C 16.769531 -9.429688 16.796875 -9.972656 16.796875 -10.453125 L 16.796875 -41.75 L 23.796875 -41.75 L 23.796875 -10.453125 C 23.796875 -8.722656 23.519531 -7.195312 22.96875 -5.875 C 22.414062 -4.550781 21.671875 -3.457031 20.734375 -2.59375 C 19.796875 -1.726562 18.6875 -1.078125 17.40625 -0.640625 C 16.132812 -0.210938 14.78125 0 13.34375 0 Z M 13.34375 0 "/></g></g></g><g fill="#383818" fill-opacity="1"><g transform="translate(253.453268, 58.536539)"><g><path d="M 10.09375 0 C 8.9375 0 7.890625 -0.238281 6.953125 -0.71875 C 6.015625 -1.195312 5.222656 -1.738281 4.578125 -2.34375 C 3.929688 -2.945312 3.414062 -3.546875 3.03125 -4.140625 C 2.644531 -4.742188 2.378906 -5.164062 2.234375 -5.40625 L 5.046875 -7.71875 C 5.378906 -7.238281 5.738281 -6.828125 6.125 -6.484375 C 6.46875 -6.203125 6.828125 -5.941406 7.203125 -5.703125 C 7.585938 -5.460938 8.023438 -5.34375 8.515625 -5.34375 C 9.472656 -5.34375 10.226562 -5.785156 10.78125 -6.671875 C 11.332031 -7.554688 11.609375 -8.625 11.609375 -9.875 C 11.609375 -10.164062 11.609375 -10.441406 11.609375 -10.703125 C 11.609375 -10.972656 11.5625 -11.25 11.46875 -11.53125 C 11.082031 -13.125 10.382812 -14.675781 9.375 -16.1875 C 8.363281 -17.695312 7.316406 -19.257812 6.234375 -20.875 C 5.148438 -22.488281 4.195312 -24.179688 3.375 -25.953125 C 2.5625 -27.734375 2.15625 -29.679688 2.15625 -31.796875 C 2.113281 -33.285156 2.304688 -34.644531 2.734375 -35.875 C 3.171875 -37.101562 3.773438 -38.148438 4.546875 -39.015625 C 5.316406 -39.878906 6.226562 -40.550781 7.28125 -41.03125 C 8.34375 -41.507812 9.472656 -41.75 10.671875 -41.75 C 11.828125 -41.75 12.875 -41.507812 13.8125 -41.03125 C 14.75 -40.550781 15.539062 -40.007812 16.1875 -39.40625 C 16.832031 -38.800781 17.347656 -38.195312 17.734375 -37.59375 C 18.117188 -37 18.382812 -36.582031 18.53125 -36.34375 L 15.71875 -34.03125 C 15.71875 -34.03125 15.617188 -34.148438 15.421875 -34.390625 C 15.234375 -34.628906 14.972656 -34.90625 14.640625 -35.21875 C 14.304688 -35.53125 13.929688 -35.804688 13.515625 -36.046875 C 13.109375 -36.296875 12.664062 -36.421875 12.1875 -36.421875 C 11.226562 -36.421875 10.46875 -36 9.90625 -35.15625 C 9.351562 -34.3125 9.078125 -33.265625 9.078125 -32.015625 C 9.078125 -31.390625 9.148438 -30.789062 9.296875 -30.21875 C 9.679688 -28.625 10.378906 -27.070312 11.390625 -25.5625 C 12.398438 -24.050781 13.445312 -22.488281 14.53125 -20.875 C 15.613281 -19.257812 16.5625 -17.5625 17.375 -15.78125 C 18.195312 -14.007812 18.609375 -12.066406 18.609375 -9.953125 C 18.648438 -8.460938 18.453125 -7.101562 18.015625 -5.875 C 17.585938 -4.644531 16.976562 -3.597656 16.1875 -2.734375 C 15.394531 -1.867188 14.46875 -1.195312 13.40625 -0.71875 C 12.351562 -0.238281 11.25 0 10.09375 0 Z M 10.09375 0 "/></g></g></g><g fill="#383818" fill-opacity="1"><g transform="translate(274.222029, 58.536539)"><g><path d="M 16.078125 0 C 13.910156 0 11.960938 -0.347656 10.234375 -1.046875 C 8.503906 -1.742188 7.035156 -2.910156 5.828125 -4.546875 C 4.628906 -6.179688 3.71875 -8.332031 3.09375 -11 C 2.46875 -13.664062 2.15625 -16.96875 2.15625 -20.90625 C 2.15625 -24.800781 2.46875 -28.082031 3.09375 -30.75 C 3.71875 -33.414062 4.628906 -35.566406 5.828125 -37.203125 C 7.035156 -38.835938 8.503906 -40.003906 10.234375 -40.703125 C 11.960938 -41.398438 13.910156 -41.75 16.078125 -41.75 C 16.703125 -41.75 17.300781 -41.703125 17.875 -41.609375 C 18.457031 -41.515625 19.015625 -41.394531 19.546875 -41.25 L 19.546875 -36.0625 C 18.535156 -37.550781 17.378906 -38.296875 16.078125 -38.296875 C 14.734375 -38.296875 13.507812 -37.453125 12.40625 -35.765625 C 12.019531 -35.140625 11.671875 -34.296875 11.359375 -33.234375 C 11.046875 -32.179688 10.78125 -30.992188 10.5625 -29.671875 C 10.34375 -28.347656 10.1875 -26.925781 10.09375 -25.40625 C 10 -23.894531 9.953125 -22.375 9.953125 -20.84375 C 9.953125 -19.300781 10 -17.785156 10.09375 -16.296875 C 10.1875 -14.804688 10.34375 -13.398438 10.5625 -12.078125 C 10.78125 -10.753906 11.046875 -9.5625 11.359375 -8.5 C 11.671875 -7.445312 12.019531 -6.609375 12.40625 -5.984375 C 13.457031 -4.304688 14.679688 -3.46875 16.078125 -3.46875 C 17.378906 -3.46875 18.535156 -4.210938 19.546875 -5.703125 L 19.546875 -0.578125 C 18.390625 -0.191406 17.234375 0 16.078125 0 Z M 16.078125 0 "/></g></g></g><g fill="#383818" fill-opacity="1"><g transform="translate(295.928269, 58.536539)"><g><path d="M 7.5 -36.5625 L 6.640625 -41.75 L 13.625 -41.75 L 20.546875 0 L 13.625 0 L 12.1875 -8.71875 L 6.34375 -8.71875 L 4.90625 0 L 1.4375 0 Z M 11.609375 -12.1875 L 9.296875 -26.109375 L 6.921875 -12.1875 Z M 11.609375 -12.1875 "/></g></g></g><g fill="#383818" fill-opacity="1"><g transform="translate(317.922961, 58.536539)"><g><path d="M 4.609375 -37.140625 L 2.890625 -41.75 L 9.8125 -41.75 L 20.265625 -14.34375 L 20.265625 -41.75 L 23.71875 -41.75 L 23.71875 0 L 18.53125 0 L 8.078125 -27.828125 L 8.078125 0 L 4.609375 0 Z M 4.609375 -37.140625 "/></g></g></g><g fill="#383818" fill-opacity="1"><g transform="translate(345.614635, 58.536539)"><g><path d="M 7.5 -36.5625 L 6.640625 -41.75 L 13.625 -41.75 L 20.546875 0 L 13.625 0 L 12.1875 -8.71875 L 6.34375 -8.71875 L 4.90625 0 L 1.4375 0 Z M 11.609375 -12.1875 L 9.296875 -26.109375 L 6.921875 -12.1875 Z M 11.609375 -12.1875 "/></g></g></g></svg>