<svg xmlns="http://www.w3.org/2000/svg" xmlns:xlink="http://www.w3.org/1999/xlink" width="1080" zoomAndPan="magnify" viewBox="0 0 810 74.999997" height="100" preserveAspectRatio="xMidYMid meet" version="1.0"><defs><g/><clipPath id="19fe78bd29"><path d="M 359.878906 1.421875 L 431.878906 1.421875 L 431.878906 73.421875 L 359.878906 73.421875 Z M 359.878906 1.421875 " clip-rule="nonzero"/></clipPath></defs><path fill="#ffffff" d="M 424.136719 24.277344 C 422.886719 24.375 421.613281 24.488281 420.417969 24.828125 C 416.894531 25.824219 413.742188 27.617188 410.726562 29.644531 C 407.027344 32.132812 403.3125 34.570312 399.191406 36.351562 C 391.402344 39.722656 384.335938 44.214844 378.121094 50.035156 C 374.394531 53.523438 370.960938 57.257812 368.101562 61.5 C 367.851562 61.875 367.648438 62.28125 367.335938 62.835938 C 368.296875 62.90625 369.074219 63.089844 369.796875 62.957031 C 370.164062 62.886719 370.429688 62.257812 370.730469 61.871094 C 371.023438 61.5 371.296875 61.117188 371.582031 60.738281 C 374.734375 56.605469 378.1875 52.765625 382.296875 49.558594 C 382.476562 49.417969 382.800781 49.324219 383.003906 49.382812 C 384.996094 49.953125 386.8125 50.867188 388.433594 52.164062 C 388.734375 52.40625 388.863281 52.59375 388.644531 53 C 387.960938 54.246094 387.917969 55.585938 388.292969 56.933594 C 389.328125 60.667969 393.308594 63.277344 397.175781 62.78125 C 399.636719 62.46875 401.503906 60.648438 401.671875 58.292969 C 401.875 55.460938 400.839844 53.089844 398.765625 51.179688 C 396.492188 49.078125 392.75 48.796875 390.609375 50.53125 C 390.519531 50.605469 390.324219 50.660156 390.25 50.613281 C 389.363281 50.015625 388.492188 49.394531 387.617188 48.785156 C 387.628906 48.703125 387.640625 48.625 387.652344 48.546875 C 389.515625 48.269531 391.371094 47.902344 393.25 47.742188 C 396.261719 47.480469 399.269531 47.585938 402.253906 48.183594 C 402.679688 48.269531 402.792969 48.441406 402.761719 48.855469 C 402.65625 50.4375 403.28125 51.757812 404.308594 52.910156 C 406.710938 55.609375 411.523438 56.34375 414.621094 54.476562 C 416.410156 53.398438 417.28125 51.796875 417.042969 49.71875 C 416.523438 45.203125 411.613281 41.890625 407.199219 43.035156 C 405.449219 43.492188 404.164062 44.535156 403.382812 46.125 C 401.980469 45.941406 400.628906 45.761719 399.277344 45.585938 C 399.226562 45.527344 399.171875 45.472656 399.117188 45.414062 C 399.261719 45.351562 399.433594 45.316406 399.542969 45.214844 C 401.457031 43.539062 403.65625 42.316406 405.921875 41.195312 C 406.945312 40.6875 407.988281 40.191406 408.960938 39.585938 C 409.355469 39.34375 409.902344 38.734375 409.816406 38.460938 C 409.625 37.828125 408.878906 38.023438 408.402344 38.140625 C 406.945312 38.496094 405.460938 38.828125 404.078125 39.394531 C 401.054688 40.636719 398.433594 42.460938 396.496094 45.164062 C 396.351562 45.367188 395.988281 45.488281 395.710938 45.515625 C 393.742188 45.707031 391.761719 45.804688 389.804688 46.058594 C 388.347656 46.25 386.917969 46.628906 385.46875 46.925781 C 385.496094 46.878906 385.519531 46.8125 385.566406 46.773438 C 390.375 43.03125 395.589844 39.976562 401.296875 37.84375 C 404.917969 36.488281 408.648438 35.4375 412.296875 34.148438 C 416.179688 32.769531 419.832031 30.925781 422.875 28.074219 C 423.65625 27.347656 424.332031 26.480469 424.910156 25.582031 C 425.453125 24.738281 425.121094 24.199219 424.136719 24.277344 Z M 393.746094 51.378906 C 393.785156 50.886719 394.238281 50.746094 395.148438 50.886719 C 397.683594 51.28125 400.234375 54.019531 400.273438 56.625 C 400.167969 56.730469 399.980469 57.035156 399.707031 57.160156 C 399.28125 57.363281 399.085938 57.035156 398.925781 56.664062 C 398.570312 55.847656 398.265625 54.996094 397.78125 54.257812 C 397.105469 53.226562 396.085938 52.621094 394.855469 52.375 C 394.3125 52.265625 393.675781 52.164062 393.746094 51.378906 Z M 408.636719 44.199219 C 408.664062 44.195312 408.699219 44.191406 408.726562 44.191406 C 408.746094 44.1875 408.765625 44.1875 408.78125 44.1875 C 408.792969 44.1875 408.804688 44.183594 408.8125 44.183594 C 408.839844 44.183594 408.859375 44.183594 408.867188 44.183594 C 411.503906 44.253906 413.421875 45.355469 414.910156 47.277344 C 415.003906 47.402344 415.144531 47.550781 415.136719 47.679688 C 415.117188 48.046875 415.15625 48.535156 414.945312 48.753906 C 414.566406 49.136719 414.191406 48.773438 413.957031 48.433594 C 413.054688 47.109375 411.835938 46.242188 410.28125 45.886719 C 409.761719 45.769531 409.214844 45.753906 408.675781 45.714844 C 408.171875 45.679688 407.679688 45.578125 407.652344 44.976562 C 407.621094 44.339844 408.152344 44.269531 408.636719 44.199219 Z M 408.636719 44.199219 " fill-opacity="1" fill-rule="evenodd"/><path fill="#ffffff" d="M 416.277344 13.054688 C 416.257812 12.167969 416.015625 11.933594 415.128906 12.003906 C 414.773438 12.03125 414.417969 12.113281 414.070312 12.210938 C 410.769531 13.121094 408.0625 15.019531 405.664062 17.390625 C 400.695312 22.296875 397.90625 28.398438 396.160156 35.046875 C 396.078125 35.363281 396.171875 35.722656 396.183594 36.0625 C 396.523438 35.996094 396.898438 36.011719 397.191406 35.859375 C 399.011719 34.929688 400.863281 34.039062 402.617188 32.996094 C 406.90625 30.441406 410.570312 27.199219 413.207031 22.898438 C 414.960938 20.039062 416.136719 16.988281 416.28125 13.597656 C 416.28125 13.417969 416.285156 13.238281 416.277344 13.054688 Z M 401.363281 29.988281 C 404.097656 25.167969 407.191406 20.65625 411.8125 17.414062 C 409.636719 22.6875 405.960938 26.722656 401.363281 29.988281 Z M 401.363281 29.988281 " fill-opacity="1" fill-rule="evenodd"/><path fill="#ffffff" d="M 374.203125 39.769531 C 374.195312 40.664062 374.164062 41.558594 374.101562 42.445312 C 374.054688 43.1875 373.984375 43.925781 373.898438 44.660156 C 373.832031 45.246094 373.753906 45.832031 373.660156 46.414062 C 373.527344 47.292969 373.367188 48.164062 373.1875 49.03125 C 373.15625 49.175781 373.125 49.320312 373.09375 49.464844 C 373.03125 49.753906 372.964844 50.042969 372.898438 50.332031 C 372.625 51.484375 372.316406 52.632812 371.96875 53.773438 C 371.890625 54.035156 371.628906 54.394531 371.421875 54.417969 C 371.207031 54.4375 370.871094 54.160156 370.722656 53.925781 C 369.414062 51.875 368.664062 49.582031 368.023438 47.261719 C 366.605469 42.148438 366.25 36.980469 367.546875 31.789062 C 367.84375 30.601562 368.375 29.464844 368.839844 28.324219 C 368.984375 27.980469 369.230469 27.664062 369.488281 27.382812 C 369.992188 26.820312 370.589844 26.777344 371.035156 27.382812 C 371.613281 28.175781 372.148438 29.027344 372.535156 29.925781 C 372.914062 30.808594 373.210938 31.703125 373.441406 32.613281 C 373.492188 32.816406 373.539062 33.019531 373.585938 33.222656 C 373.632812 33.425781 373.671875 33.628906 373.710938 33.835938 C 373.847656 34.550781 373.949219 35.273438 374.023438 36 C 374.054688 36.308594 374.082031 36.621094 374.105469 36.9375 C 374.15625 37.664062 374.183594 38.394531 374.199219 39.128906 L 374.199219 39.140625 C 374.199219 39.351562 374.203125 39.558594 374.203125 39.769531 Z M 374.203125 39.769531 " fill-opacity="1" fill-rule="evenodd"/><path fill="#ffffff" d="M 397.574219 21.4375 C 397.160156 27.421875 395.105469 32.859375 391.96875 37.921875 C 391.816406 38.171875 391.664062 38.4375 391.449219 38.625 C 391.179688 38.867188 390.847656 39.039062 390.542969 39.242188 C 390.351562 38.933594 390.054688 38.652344 389.980469 38.316406 C 389.75 37.289062 389.558594 36.246094 389.445312 35.199219 C 389.300781 33.855469 389.246094 32.507812 389.191406 31.75 C 389.25 26.828125 389.820312 22.59375 391.546875 18.578125 C 392.242188 16.960938 393.078125 15.417969 394.371094 14.179688 C 395.292969 13.292969 395.957031 13.410156 396.492188 14.582031 C 397.492188 16.757812 397.734375 19.082031 397.574219 21.4375 Z M 397.574219 21.4375 " fill-opacity="1" fill-rule="evenodd"/><path fill="#ffffff" d="M 384.371094 30.550781 C 384.316406 30.5625 384.261719 30.574219 384.203125 30.585938 C 384.105469 34.980469 382.898438 39.089844 380.992188 43.019531 C 379.859375 45.355469 378.472656 47.535156 376.828125 49.542969 C 376.558594 49.871094 376.253906 50.175781 375.929688 50.453125 C 375.796875 50.570312 375.492188 50.675781 375.398438 50.605469 C 375.257812 50.5 375.152344 50.230469 375.167969 50.042969 C 375.253906 49.148438 375.382812 48.257812 375.503906 47.367188 C 375.949219 44.046875 376.347656 40.71875 376.855469 37.410156 C 377.414062 33.796875 378.246094 30.25 380.183594 27.074219 C 380.542969 26.480469 380.949219 25.90625 381.398438 25.378906 C 382.320312 24.300781 383.171875 24.4375 383.507812 25.796875 C 383.890625 27.359375 384.089844 28.964844 384.371094 30.550781 Z M 384.371094 30.550781 " fill-opacity="1" fill-rule="evenodd"/><g clip-path="url(#19fe78bd29)"><path fill="#ffffff" d="M 395.957031 1.421875 C 376.03125 1.421875 359.878906 17.574219 359.878906 37.496094 C 359.878906 45.675781 362.601562 53.222656 367.191406 59.269531 C 367.453125 58.894531 367.714844 58.523438 367.988281 58.15625 C 363.714844 52.378906 361.1875 45.234375 361.1875 37.496094 C 361.1875 18.296875 376.753906 2.730469 395.957031 2.730469 C 415.160156 2.730469 430.726562 18.296875 430.726562 37.496094 C 430.726562 56.699219 415.160156 72.265625 395.957031 72.265625 C 386.902344 72.265625 378.65625 68.804688 372.46875 63.132812 C 372.3125 63.34375 372.15625 63.554688 371.992188 63.761719 C 371.894531 63.890625 371.796875 64.046875 371.695312 64.199219 C 378.105469 70.023438 386.617188 73.574219 395.957031 73.574219 C 415.882812 73.574219 432.03125 57.421875 432.03125 37.496094 C 432.03125 17.574219 415.882812 1.421875 395.957031 1.421875 Z M 395.957031 1.421875 " fill-opacity="1" fill-rule="evenodd"/></g><g fill="#ffffff" fill-opacity="1"><g transform="translate(179.520754, 70.485477)"><g><path d="M 12.1875 -64.84375 L 2.875 -64.84375 L 2.875 -69.453125 L 30.6875 -69.453125 L 30.6875 -64.84375 L 21.390625 -64.84375 L 21.390625 0 L 12.1875 0 Z M 12.1875 -64.84375 "/></g></g></g><g fill="#ffffff" fill-opacity="1"><g transform="translate(213.093303, 70.485477)"><g><path d="M 4.796875 -55.53125 L 25.609375 -55.53125 L 23.3125 -50.9375 L 14.09375 -50.9375 L 14.09375 -34.71875 L 23.3125 -34.71875 L 21 -30.125 L 14.09375 -30.125 L 14.09375 -4.609375 L 25.609375 -4.609375 L 25.609375 0 L 4.796875 0 Z M 4.796875 -55.53125 "/></g></g></g><g fill="#ffffff" fill-opacity="1"><g transform="translate(241.582004, 70.485477)"><g><path d="M 6.140625 -48.625 L 3.84375 -55.53125 L 15.4375 -55.53125 C 18.125 -55.53125 20.472656 -55.257812 22.484375 -54.71875 C 24.503906 -54.175781 26.203125 -53.28125 27.578125 -52.03125 C 28.953125 -50.789062 29.972656 -49.128906 30.640625 -47.046875 C 31.316406 -44.972656 31.65625 -42.398438 31.65625 -39.328125 C 31.65625 -35.554688 31.140625 -32.550781 30.109375 -30.3125 C 29.085938 -28.070312 27.554688 -26.378906 25.515625 -25.234375 L 31.65625 0 L 22.34375 0 L 16.78125 -23.21875 C 16.46875 -23.15625 16.019531 -23.125 15.4375 -23.125 L 15.4375 0 L 6.140625 0 Z M 15.4375 -27.625 C 16.976562 -27.625 18.242188 -27.957031 19.234375 -28.625 C 20.222656 -29.300781 21.003906 -30.195312 21.578125 -31.3125 C 22.160156 -32.4375 22.5625 -33.6875 22.78125 -35.0625 C 23.007812 -36.4375 23.125 -37.859375 23.125 -39.328125 C 23.125 -40.796875 23.007812 -42.21875 22.78125 -43.59375 C 22.5625 -44.96875 22.160156 -46.210938 21.578125 -47.328125 C 21.003906 -48.453125 20.222656 -49.347656 19.234375 -50.015625 C 18.242188 -50.691406 16.976562 -51.0625 15.4375 -51.125 Z M 15.4375 -27.625 "/></g></g></g><g fill="#ffffff" fill-opacity="1"><g transform="translate(277.072984, 70.485477)"><g><path d="M 6.140625 -48.625 L 3.84375 -55.53125 L 15.4375 -55.53125 C 18.125 -55.53125 20.472656 -55.257812 22.484375 -54.71875 C 24.503906 -54.175781 26.203125 -53.28125 27.578125 -52.03125 C 28.953125 -50.789062 29.972656 -49.128906 30.640625 -47.046875 C 31.316406 -44.972656 31.65625 -42.398438 31.65625 -39.328125 C 31.65625 -35.554688 31.140625 -32.550781 30.109375 -30.3125 C 29.085938 -28.070312 27.554688 -26.378906 25.515625 -25.234375 L 31.65625 0 L 22.34375 0 L 16.78125 -23.21875 C 16.46875 -23.15625 16.019531 -23.125 15.4375 -23.125 L 15.4375 0 L 6.140625 0 Z M 15.4375 -27.625 C 16.976562 -27.625 18.242188 -27.957031 19.234375 -28.625 C 20.222656 -29.300781 21.003906 -30.195312 21.578125 -31.3125 C 22.160156 -32.4375 22.5625 -33.6875 22.78125 -35.0625 C 23.007812 -36.4375 23.125 -37.859375 23.125 -39.328125 C 23.125 -40.796875 23.007812 -42.21875 22.78125 -43.59375 C 22.5625 -44.96875 22.160156 -46.210938 21.578125 -47.328125 C 21.003906 -48.453125 20.222656 -49.347656 19.234375 -50.015625 C 18.242188 -50.691406 16.976562 -51.0625 15.4375 -51.125 Z M 15.4375 -27.625 "/></g></g></g><g fill="#ffffff" fill-opacity="1"><g transform="translate(312.563964, 70.485477)"><g><path d="M 9.96875 -48.625 L 8.828125 -55.53125 L 18.125 -55.53125 L 27.34375 0 L 18.125 0 L 16.203125 -11.609375 L 8.4375 -11.609375 L 6.515625 0 L 1.921875 0 Z M 15.4375 -16.203125 L 12.375 -34.71875 L 9.203125 -16.203125 Z M 15.4375 -16.203125 "/></g></g></g><g fill="#ffffff" fill-opacity="1"><g transform="translate(341.824475, 70.485477)"><g/></g></g><g fill="#ffffff" fill-opacity="1"><g transform="translate(361.00879, 70.485477)"><g/></g></g><g fill="#ffffff" fill-opacity="1"><g transform="translate(380.193105, 70.485477)"><g/></g></g><g fill="#ffffff" fill-opacity="1"><g transform="translate(399.377421, 70.485477)"><g/></g></g><g fill="#ffffff" fill-opacity="1"><g transform="translate(418.561736, 70.485477)"><g/></g></g><g fill="#ffffff" fill-opacity="1"><g transform="translate(437.757644, 70.485477)"><g><path d="M 12.1875 -64.84375 L 2.875 -64.84375 L 2.875 -69.453125 L 30.6875 -69.453125 L 30.6875 -64.84375 L 21.390625 -64.84375 L 21.390625 0 L 12.1875 0 Z M 12.1875 -64.84375 "/></g></g></g><g fill="#ffffff" fill-opacity="1"><g transform="translate(471.330193, 70.485477)"><g><path d="M 17.75 0 C 15.832031 0 14.023438 -0.285156 12.328125 -0.859375 C 10.628906 -1.441406 9.15625 -2.304688 7.90625 -3.453125 C 6.664062 -4.609375 5.675781 -6.0625 4.9375 -7.8125 C 4.207031 -9.570312 3.84375 -11.601562 3.84375 -13.90625 L 3.84375 -55.53125 L 13.140625 -55.53125 L 13.140625 -13.90625 C 13.140625 -13.269531 13.15625 -12.550781 13.1875 -11.75 C 13.21875 -10.945312 13.375 -10.175781 13.65625 -9.4375 C 13.945312 -8.707031 14.410156 -8.101562 15.046875 -7.625 C 15.691406 -7.144531 16.59375 -6.90625 17.75 -6.90625 C 18.894531 -6.90625 19.769531 -7.144531 20.375 -7.625 C 20.988281 -8.101562 21.4375 -8.707031 21.71875 -9.4375 C 22.007812 -10.175781 22.1875 -10.945312 22.25 -11.75 C 22.3125 -12.550781 22.34375 -13.269531 22.34375 -13.90625 L 22.34375 -55.53125 L 31.65625 -55.53125 L 31.65625 -13.90625 C 31.65625 -11.601562 31.285156 -9.570312 30.546875 -7.8125 C 29.816406 -6.0625 28.828125 -4.609375 27.578125 -3.453125 C 26.328125 -2.304688 24.851562 -1.441406 23.15625 -0.859375 C 21.46875 -0.285156 19.664062 0 17.75 0 Z M 17.75 0 "/></g></g></g><g fill="#ffffff" fill-opacity="1"><g transform="translate(506.821173, 70.485477)"><g><path d="M 13.421875 0 C 11.890625 0 10.5 -0.316406 9.25 -0.953125 C 8.007812 -1.597656 6.957031 -2.316406 6.09375 -3.109375 C 5.226562 -3.910156 4.539062 -4.710938 4.03125 -5.515625 C 3.519531 -6.316406 3.164062 -6.875 2.96875 -7.1875 L 6.71875 -10.265625 C 7.164062 -9.617188 7.644531 -9.078125 8.15625 -8.640625 C 8.601562 -8.253906 9.082031 -7.898438 9.59375 -7.578125 C 10.101562 -7.253906 10.675781 -7.09375 11.3125 -7.09375 C 12.59375 -7.09375 13.597656 -7.679688 14.328125 -8.859375 C 15.066406 -10.046875 15.4375 -11.472656 15.4375 -13.140625 C 15.4375 -13.523438 15.4375 -13.890625 15.4375 -14.234375 C 15.4375 -14.585938 15.375 -14.957031 15.25 -15.34375 C 14.738281 -17.457031 13.8125 -19.519531 12.46875 -21.53125 C 11.125 -23.550781 9.734375 -25.628906 8.296875 -27.765625 C 6.859375 -29.910156 5.59375 -32.164062 4.5 -34.53125 C 3.414062 -36.894531 2.875 -39.484375 2.875 -42.296875 C 2.8125 -44.285156 3.066406 -46.09375 3.640625 -47.71875 C 4.222656 -49.351562 5.023438 -50.742188 6.046875 -51.890625 C 7.066406 -53.046875 8.28125 -53.941406 9.6875 -54.578125 C 11.09375 -55.210938 12.597656 -55.53125 14.203125 -55.53125 C 15.734375 -55.53125 17.117188 -55.210938 18.359375 -54.578125 C 19.609375 -53.941406 20.664062 -53.222656 21.53125 -52.421875 C 22.394531 -51.617188 23.082031 -50.816406 23.59375 -50.015625 C 24.101562 -49.222656 24.457031 -48.664062 24.65625 -48.34375 L 20.90625 -45.28125 C 20.90625 -45.28125 20.773438 -45.4375 20.515625 -45.75 C 20.265625 -46.070312 19.914062 -46.441406 19.46875 -46.859375 C 19.019531 -47.273438 18.523438 -47.640625 17.984375 -47.953125 C 17.441406 -48.273438 16.847656 -48.4375 16.203125 -48.4375 C 14.929688 -48.4375 13.925781 -47.875 13.1875 -46.75 C 12.457031 -45.632812 12.09375 -44.25 12.09375 -42.59375 C 12.09375 -41.757812 12.1875 -40.957031 12.375 -40.1875 C 12.882812 -38.082031 13.8125 -36.019531 15.15625 -34 C 16.5 -31.988281 17.890625 -29.910156 19.328125 -27.765625 C 20.765625 -25.628906 22.023438 -23.375 23.109375 -21 C 24.203125 -18.632812 24.75 -16.046875 24.75 -13.234375 C 24.8125 -11.253906 24.554688 -9.445312 23.984375 -7.8125 C 23.410156 -6.1875 22.59375 -4.796875 21.53125 -3.640625 C 20.476562 -2.492188 19.25 -1.597656 17.84375 -0.953125 C 16.4375 -0.316406 14.960938 0 13.421875 0 Z M 13.421875 0 "/></g></g></g><g fill="#ffffff" fill-opacity="1"><g transform="translate(534.446587, 70.485477)"><g><path d="M 21.390625 0 C 18.515625 0 15.925781 -0.460938 13.625 -1.390625 C 11.320312 -2.316406 9.367188 -3.863281 7.765625 -6.03125 C 6.171875 -8.207031 4.957031 -11.070312 4.125 -14.625 C 3.289062 -18.175781 2.875 -22.570312 2.875 -27.8125 C 2.875 -33 3.289062 -37.363281 4.125 -40.90625 C 4.957031 -44.457031 6.171875 -47.316406 7.765625 -49.484375 C 9.367188 -51.660156 11.320312 -53.210938 13.625 -54.140625 C 15.925781 -55.066406 18.515625 -55.53125 21.390625 -55.53125 C 22.222656 -55.53125 23.019531 -55.46875 23.78125 -55.34375 C 24.550781 -55.21875 25.289062 -55.0625 26 -54.875 L 26 -47.96875 C 24.65625 -49.945312 23.117188 -50.9375 21.390625 -50.9375 C 19.597656 -50.9375 17.96875 -49.816406 16.5 -47.578125 C 15.988281 -46.742188 15.523438 -45.625 15.109375 -44.21875 C 14.691406 -42.8125 14.335938 -41.226562 14.046875 -39.46875 C 13.765625 -37.707031 13.554688 -35.820312 13.421875 -33.8125 C 13.296875 -31.800781 13.234375 -29.769531 13.234375 -27.71875 C 13.234375 -25.675781 13.296875 -23.660156 13.421875 -21.671875 C 13.554688 -19.691406 13.765625 -17.820312 14.046875 -16.0625 C 14.335938 -14.300781 14.691406 -12.71875 15.109375 -11.3125 C 15.523438 -9.90625 15.988281 -8.789062 16.5 -7.96875 C 17.90625 -5.726562 19.535156 -4.609375 21.390625 -4.609375 C 23.117188 -4.609375 24.65625 -5.597656 26 -7.578125 L 26 -0.765625 C 24.457031 -0.253906 22.921875 0 21.390625 0 Z M 21.390625 0 "/></g></g></g><g fill="#ffffff" fill-opacity="1"><g transform="translate(563.318977, 70.485477)"><g><path d="M 9.96875 -48.625 L 8.828125 -55.53125 L 18.125 -55.53125 L 27.34375 0 L 18.125 0 L 16.203125 -11.609375 L 8.4375 -11.609375 L 6.515625 0 L 1.921875 0 Z M 15.4375 -16.203125 L 12.375 -34.71875 L 9.203125 -16.203125 Z M 15.4375 -16.203125 "/></g></g></g><g fill="#ffffff" fill-opacity="1"><g transform="translate(592.575055, 70.485477)"><g><path d="M 6.140625 -49.40625 L 3.84375 -55.53125 L 13.046875 -55.53125 L 26.953125 -19.09375 L 26.953125 -55.53125 L 31.5625 -55.53125 L 31.5625 0 L 24.65625 0 L 10.75 -37.03125 L 10.75 0 L 6.140625 0 Z M 6.140625 -49.40625 "/></g></g></g><g fill="#ffffff" fill-opacity="1"><g transform="translate(629.408933, 70.485477)"><g><path d="M 9.96875 -48.625 L 8.828125 -55.53125 L 18.125 -55.53125 L 27.34375 0 L 18.125 0 L 16.203125 -11.609375 L 8.4375 -11.609375 L 6.515625 0 L 1.921875 0 Z M 15.4375 -16.203125 L 12.375 -34.71875 L 9.203125 -16.203125 Z M 15.4375 -16.203125 "/></g></g></g></svg>